G04 EAGLE Gerber RS-274X export*
G75*
%MOMM*%
%FSLAX34Y34*%
%LPD*%
%INSolderpaste Top*%
%IPPOS*%
%AMOC8*
5,1,8,0,0,1.08239X$1,22.5*%
G01*
%ADD10R,2.000000X1.200000*%
%ADD11R,1.350000X0.600000*%
%ADD12R,1.100000X1.000000*%
%ADD13C,0.300000*%
%ADD14R,0.550000X1.200000*%
%ADD15R,0.900000X0.800000*%
%ADD16R,1.000000X1.100000*%
%ADD17R,0.550000X0.400000*%
%ADD18R,0.600000X0.850000*%


D10*
X14050Y155000D03*
X14050Y99000D03*
D11*
X50800Y142000D03*
X50800Y132000D03*
X50800Y122000D03*
X50800Y112000D03*
D12*
X118500Y152400D03*
X135500Y152400D03*
D10*
X239950Y99000D03*
X239950Y155000D03*
D11*
X203200Y112000D03*
X203200Y122000D03*
X203200Y132000D03*
X203200Y142000D03*
D12*
X23250Y46990D03*
X40250Y46990D03*
D13*
X37020Y57460D02*
X37020Y64460D01*
X44020Y64460D01*
X44020Y57460D01*
X37020Y57460D01*
X37020Y60310D02*
X44020Y60310D01*
X44020Y63160D02*
X37020Y63160D01*
X19480Y64460D02*
X19480Y57460D01*
X19480Y64460D02*
X26480Y64460D01*
X26480Y57460D01*
X19480Y57460D01*
X19480Y60310D02*
X26480Y60310D01*
X26480Y63160D02*
X19480Y63160D01*
D14*
X117500Y75899D03*
X127000Y75899D03*
X136500Y75899D03*
X136500Y101901D03*
X117500Y101901D03*
D15*
X98900Y168300D03*
X98900Y187300D03*
X77900Y177800D03*
X155100Y187300D03*
X155100Y168300D03*
X176100Y177800D03*
D16*
X63500Y169300D03*
X63500Y186300D03*
X114300Y186300D03*
X114300Y169300D03*
X139700Y169300D03*
X139700Y186300D03*
X190500Y169300D03*
X190500Y186300D03*
X101600Y75320D03*
X101600Y92320D03*
X152400Y92320D03*
X152400Y75320D03*
D17*
X114500Y135000D03*
X114500Y127000D03*
X114500Y119000D03*
X139500Y135000D03*
X139500Y127000D03*
X139500Y119000D03*
D18*
X127000Y127000D03*
D10*
X273130Y155000D03*
X273130Y99000D03*
D11*
X309880Y142000D03*
X309880Y132000D03*
X309880Y122000D03*
X309880Y112000D03*
D12*
X377580Y152400D03*
X394580Y152400D03*
D10*
X499030Y99000D03*
X499030Y155000D03*
D11*
X462280Y112000D03*
X462280Y122000D03*
X462280Y132000D03*
X462280Y142000D03*
D12*
X282330Y46990D03*
X299330Y46990D03*
D13*
X296100Y57460D02*
X296100Y64460D01*
X303100Y64460D01*
X303100Y57460D01*
X296100Y57460D01*
X296100Y60310D02*
X303100Y60310D01*
X303100Y63160D02*
X296100Y63160D01*
X278560Y64460D02*
X278560Y57460D01*
X278560Y64460D02*
X285560Y64460D01*
X285560Y57460D01*
X278560Y57460D01*
X278560Y60310D02*
X285560Y60310D01*
X285560Y63160D02*
X278560Y63160D01*
D14*
X376580Y75899D03*
X386080Y75899D03*
X395580Y75899D03*
X395580Y101901D03*
X376580Y101901D03*
D15*
X357980Y168300D03*
X357980Y187300D03*
X336980Y177800D03*
X414180Y187300D03*
X414180Y168300D03*
X435180Y177800D03*
D16*
X322580Y169300D03*
X322580Y186300D03*
X373380Y186300D03*
X373380Y169300D03*
X398780Y169300D03*
X398780Y186300D03*
X449580Y169300D03*
X449580Y186300D03*
X360680Y75320D03*
X360680Y92320D03*
X411480Y92320D03*
X411480Y75320D03*
D17*
X373580Y135000D03*
X373580Y127000D03*
X373580Y119000D03*
X398580Y135000D03*
X398580Y127000D03*
X398580Y119000D03*
D18*
X386080Y127000D03*
D10*
X532210Y155000D03*
X532210Y99000D03*
D11*
X568960Y142000D03*
X568960Y132000D03*
X568960Y122000D03*
X568960Y112000D03*
D12*
X636660Y152400D03*
X653660Y152400D03*
D10*
X758110Y99000D03*
X758110Y155000D03*
D11*
X721360Y112000D03*
X721360Y122000D03*
X721360Y132000D03*
X721360Y142000D03*
D12*
X541410Y46990D03*
X558410Y46990D03*
D13*
X555180Y57460D02*
X555180Y64460D01*
X562180Y64460D01*
X562180Y57460D01*
X555180Y57460D01*
X555180Y60310D02*
X562180Y60310D01*
X562180Y63160D02*
X555180Y63160D01*
X537640Y64460D02*
X537640Y57460D01*
X537640Y64460D02*
X544640Y64460D01*
X544640Y57460D01*
X537640Y57460D01*
X537640Y60310D02*
X544640Y60310D01*
X544640Y63160D02*
X537640Y63160D01*
D14*
X635660Y75899D03*
X645160Y75899D03*
X654660Y75899D03*
X654660Y101901D03*
X635660Y101901D03*
D15*
X617060Y168300D03*
X617060Y187300D03*
X596060Y177800D03*
X673260Y187300D03*
X673260Y168300D03*
X694260Y177800D03*
D16*
X581660Y169300D03*
X581660Y186300D03*
X632460Y186300D03*
X632460Y169300D03*
X657860Y169300D03*
X657860Y186300D03*
X708660Y169300D03*
X708660Y186300D03*
X619760Y75320D03*
X619760Y92320D03*
X670560Y92320D03*
X670560Y75320D03*
D17*
X632660Y135000D03*
X632660Y127000D03*
X632660Y119000D03*
X657660Y135000D03*
X657660Y127000D03*
X657660Y119000D03*
D18*
X645160Y127000D03*
D10*
X791290Y155000D03*
X791290Y99000D03*
D11*
X828040Y142000D03*
X828040Y132000D03*
X828040Y122000D03*
X828040Y112000D03*
D12*
X895740Y152400D03*
X912740Y152400D03*
D10*
X1017190Y99000D03*
X1017190Y155000D03*
D11*
X980440Y112000D03*
X980440Y122000D03*
X980440Y132000D03*
X980440Y142000D03*
D12*
X800490Y46990D03*
X817490Y46990D03*
D13*
X814260Y57460D02*
X814260Y64460D01*
X821260Y64460D01*
X821260Y57460D01*
X814260Y57460D01*
X814260Y60310D02*
X821260Y60310D01*
X821260Y63160D02*
X814260Y63160D01*
X796720Y64460D02*
X796720Y57460D01*
X796720Y64460D02*
X803720Y64460D01*
X803720Y57460D01*
X796720Y57460D01*
X796720Y60310D02*
X803720Y60310D01*
X803720Y63160D02*
X796720Y63160D01*
D14*
X894740Y75899D03*
X904240Y75899D03*
X913740Y75899D03*
X913740Y101901D03*
X894740Y101901D03*
D15*
X876140Y168300D03*
X876140Y187300D03*
X855140Y177800D03*
X932340Y187300D03*
X932340Y168300D03*
X953340Y177800D03*
D16*
X840740Y169300D03*
X840740Y186300D03*
X891540Y186300D03*
X891540Y169300D03*
X916940Y169300D03*
X916940Y186300D03*
X967740Y169300D03*
X967740Y186300D03*
X878840Y75320D03*
X878840Y92320D03*
X929640Y92320D03*
X929640Y75320D03*
D17*
X891740Y135000D03*
X891740Y127000D03*
X891740Y119000D03*
X916740Y135000D03*
X916740Y127000D03*
X916740Y119000D03*
D18*
X904240Y127000D03*
D10*
X1050370Y155000D03*
X1050370Y99000D03*
D11*
X1087120Y142000D03*
X1087120Y132000D03*
X1087120Y122000D03*
X1087120Y112000D03*
D12*
X1154820Y152400D03*
X1171820Y152400D03*
D10*
X1276270Y99000D03*
X1276270Y155000D03*
D11*
X1239520Y112000D03*
X1239520Y122000D03*
X1239520Y132000D03*
X1239520Y142000D03*
D12*
X1059570Y46990D03*
X1076570Y46990D03*
D13*
X1073340Y57460D02*
X1073340Y64460D01*
X1080340Y64460D01*
X1080340Y57460D01*
X1073340Y57460D01*
X1073340Y60310D02*
X1080340Y60310D01*
X1080340Y63160D02*
X1073340Y63160D01*
X1055800Y64460D02*
X1055800Y57460D01*
X1055800Y64460D02*
X1062800Y64460D01*
X1062800Y57460D01*
X1055800Y57460D01*
X1055800Y60310D02*
X1062800Y60310D01*
X1062800Y63160D02*
X1055800Y63160D01*
D14*
X1153820Y75899D03*
X1163320Y75899D03*
X1172820Y75899D03*
X1172820Y101901D03*
X1153820Y101901D03*
D15*
X1135220Y168300D03*
X1135220Y187300D03*
X1114220Y177800D03*
X1191420Y187300D03*
X1191420Y168300D03*
X1212420Y177800D03*
D16*
X1099820Y169300D03*
X1099820Y186300D03*
X1150620Y186300D03*
X1150620Y169300D03*
X1176020Y169300D03*
X1176020Y186300D03*
X1226820Y169300D03*
X1226820Y186300D03*
X1137920Y75320D03*
X1137920Y92320D03*
X1188720Y92320D03*
X1188720Y75320D03*
D17*
X1150820Y135000D03*
X1150820Y127000D03*
X1150820Y119000D03*
X1175820Y135000D03*
X1175820Y127000D03*
X1175820Y119000D03*
D18*
X1163320Y127000D03*
D10*
X14050Y414080D03*
X14050Y358080D03*
D11*
X50800Y401080D03*
X50800Y391080D03*
X50800Y381080D03*
X50800Y371080D03*
D12*
X118500Y411480D03*
X135500Y411480D03*
D10*
X239950Y358080D03*
X239950Y414080D03*
D11*
X203200Y371080D03*
X203200Y381080D03*
X203200Y391080D03*
X203200Y401080D03*
D12*
X23250Y306070D03*
X40250Y306070D03*
D13*
X37020Y316540D02*
X37020Y323540D01*
X44020Y323540D01*
X44020Y316540D01*
X37020Y316540D01*
X37020Y319390D02*
X44020Y319390D01*
X44020Y322240D02*
X37020Y322240D01*
X19480Y323540D02*
X19480Y316540D01*
X19480Y323540D02*
X26480Y323540D01*
X26480Y316540D01*
X19480Y316540D01*
X19480Y319390D02*
X26480Y319390D01*
X26480Y322240D02*
X19480Y322240D01*
D14*
X117500Y334979D03*
X127000Y334979D03*
X136500Y334979D03*
X136500Y360981D03*
X117500Y360981D03*
D15*
X98900Y427380D03*
X98900Y446380D03*
X77900Y436880D03*
X155100Y446380D03*
X155100Y427380D03*
X176100Y436880D03*
D16*
X63500Y428380D03*
X63500Y445380D03*
X114300Y445380D03*
X114300Y428380D03*
X139700Y428380D03*
X139700Y445380D03*
X190500Y428380D03*
X190500Y445380D03*
X101600Y334400D03*
X101600Y351400D03*
X152400Y351400D03*
X152400Y334400D03*
D17*
X114500Y394080D03*
X114500Y386080D03*
X114500Y378080D03*
X139500Y394080D03*
X139500Y386080D03*
X139500Y378080D03*
D18*
X127000Y386080D03*
D10*
X273130Y414080D03*
X273130Y358080D03*
D11*
X309880Y401080D03*
X309880Y391080D03*
X309880Y381080D03*
X309880Y371080D03*
D12*
X377580Y411480D03*
X394580Y411480D03*
D10*
X499030Y358080D03*
X499030Y414080D03*
D11*
X462280Y371080D03*
X462280Y381080D03*
X462280Y391080D03*
X462280Y401080D03*
D12*
X282330Y306070D03*
X299330Y306070D03*
D13*
X296100Y316540D02*
X296100Y323540D01*
X303100Y323540D01*
X303100Y316540D01*
X296100Y316540D01*
X296100Y319390D02*
X303100Y319390D01*
X303100Y322240D02*
X296100Y322240D01*
X278560Y323540D02*
X278560Y316540D01*
X278560Y323540D02*
X285560Y323540D01*
X285560Y316540D01*
X278560Y316540D01*
X278560Y319390D02*
X285560Y319390D01*
X285560Y322240D02*
X278560Y322240D01*
D14*
X376580Y334979D03*
X386080Y334979D03*
X395580Y334979D03*
X395580Y360981D03*
X376580Y360981D03*
D15*
X357980Y427380D03*
X357980Y446380D03*
X336980Y436880D03*
X414180Y446380D03*
X414180Y427380D03*
X435180Y436880D03*
D16*
X322580Y428380D03*
X322580Y445380D03*
X373380Y445380D03*
X373380Y428380D03*
X398780Y428380D03*
X398780Y445380D03*
X449580Y428380D03*
X449580Y445380D03*
X360680Y334400D03*
X360680Y351400D03*
X411480Y351400D03*
X411480Y334400D03*
D17*
X373580Y394080D03*
X373580Y386080D03*
X373580Y378080D03*
X398580Y394080D03*
X398580Y386080D03*
X398580Y378080D03*
D18*
X386080Y386080D03*
D10*
X532210Y414080D03*
X532210Y358080D03*
D11*
X568960Y401080D03*
X568960Y391080D03*
X568960Y381080D03*
X568960Y371080D03*
D12*
X636660Y411480D03*
X653660Y411480D03*
D10*
X758110Y358080D03*
X758110Y414080D03*
D11*
X721360Y371080D03*
X721360Y381080D03*
X721360Y391080D03*
X721360Y401080D03*
D12*
X541410Y306070D03*
X558410Y306070D03*
D13*
X555180Y316540D02*
X555180Y323540D01*
X562180Y323540D01*
X562180Y316540D01*
X555180Y316540D01*
X555180Y319390D02*
X562180Y319390D01*
X562180Y322240D02*
X555180Y322240D01*
X537640Y323540D02*
X537640Y316540D01*
X537640Y323540D02*
X544640Y323540D01*
X544640Y316540D01*
X537640Y316540D01*
X537640Y319390D02*
X544640Y319390D01*
X544640Y322240D02*
X537640Y322240D01*
D14*
X635660Y334979D03*
X645160Y334979D03*
X654660Y334979D03*
X654660Y360981D03*
X635660Y360981D03*
D15*
X617060Y427380D03*
X617060Y446380D03*
X596060Y436880D03*
X673260Y446380D03*
X673260Y427380D03*
X694260Y436880D03*
D16*
X581660Y428380D03*
X581660Y445380D03*
X632460Y445380D03*
X632460Y428380D03*
X657860Y428380D03*
X657860Y445380D03*
X708660Y428380D03*
X708660Y445380D03*
X619760Y334400D03*
X619760Y351400D03*
X670560Y351400D03*
X670560Y334400D03*
D17*
X632660Y394080D03*
X632660Y386080D03*
X632660Y378080D03*
X657660Y394080D03*
X657660Y386080D03*
X657660Y378080D03*
D18*
X645160Y386080D03*
D10*
X791290Y414080D03*
X791290Y358080D03*
D11*
X828040Y401080D03*
X828040Y391080D03*
X828040Y381080D03*
X828040Y371080D03*
D12*
X895740Y411480D03*
X912740Y411480D03*
D10*
X1017190Y358080D03*
X1017190Y414080D03*
D11*
X980440Y371080D03*
X980440Y381080D03*
X980440Y391080D03*
X980440Y401080D03*
D12*
X800490Y306070D03*
X817490Y306070D03*
D13*
X814260Y316540D02*
X814260Y323540D01*
X821260Y323540D01*
X821260Y316540D01*
X814260Y316540D01*
X814260Y319390D02*
X821260Y319390D01*
X821260Y322240D02*
X814260Y322240D01*
X796720Y323540D02*
X796720Y316540D01*
X796720Y323540D02*
X803720Y323540D01*
X803720Y316540D01*
X796720Y316540D01*
X796720Y319390D02*
X803720Y319390D01*
X803720Y322240D02*
X796720Y322240D01*
D14*
X894740Y334979D03*
X904240Y334979D03*
X913740Y334979D03*
X913740Y360981D03*
X894740Y360981D03*
D15*
X876140Y427380D03*
X876140Y446380D03*
X855140Y436880D03*
X932340Y446380D03*
X932340Y427380D03*
X953340Y436880D03*
D16*
X840740Y428380D03*
X840740Y445380D03*
X891540Y445380D03*
X891540Y428380D03*
X916940Y428380D03*
X916940Y445380D03*
X967740Y428380D03*
X967740Y445380D03*
X878840Y334400D03*
X878840Y351400D03*
X929640Y351400D03*
X929640Y334400D03*
D17*
X891740Y394080D03*
X891740Y386080D03*
X891740Y378080D03*
X916740Y394080D03*
X916740Y386080D03*
X916740Y378080D03*
D18*
X904240Y386080D03*
D10*
X1050370Y414080D03*
X1050370Y358080D03*
D11*
X1087120Y401080D03*
X1087120Y391080D03*
X1087120Y381080D03*
X1087120Y371080D03*
D12*
X1154820Y411480D03*
X1171820Y411480D03*
D10*
X1276270Y358080D03*
X1276270Y414080D03*
D11*
X1239520Y371080D03*
X1239520Y381080D03*
X1239520Y391080D03*
X1239520Y401080D03*
D12*
X1059570Y306070D03*
X1076570Y306070D03*
D13*
X1073340Y316540D02*
X1073340Y323540D01*
X1080340Y323540D01*
X1080340Y316540D01*
X1073340Y316540D01*
X1073340Y319390D02*
X1080340Y319390D01*
X1080340Y322240D02*
X1073340Y322240D01*
X1055800Y323540D02*
X1055800Y316540D01*
X1055800Y323540D02*
X1062800Y323540D01*
X1062800Y316540D01*
X1055800Y316540D01*
X1055800Y319390D02*
X1062800Y319390D01*
X1062800Y322240D02*
X1055800Y322240D01*
D14*
X1153820Y334979D03*
X1163320Y334979D03*
X1172820Y334979D03*
X1172820Y360981D03*
X1153820Y360981D03*
D15*
X1135220Y427380D03*
X1135220Y446380D03*
X1114220Y436880D03*
X1191420Y446380D03*
X1191420Y427380D03*
X1212420Y436880D03*
D16*
X1099820Y428380D03*
X1099820Y445380D03*
X1150620Y445380D03*
X1150620Y428380D03*
X1176020Y428380D03*
X1176020Y445380D03*
X1226820Y428380D03*
X1226820Y445380D03*
X1137920Y334400D03*
X1137920Y351400D03*
X1188720Y351400D03*
X1188720Y334400D03*
D17*
X1150820Y394080D03*
X1150820Y386080D03*
X1150820Y378080D03*
X1175820Y394080D03*
X1175820Y386080D03*
X1175820Y378080D03*
D18*
X1163320Y386080D03*
D10*
X14050Y673160D03*
X14050Y617160D03*
D11*
X50800Y660160D03*
X50800Y650160D03*
X50800Y640160D03*
X50800Y630160D03*
D12*
X118500Y670560D03*
X135500Y670560D03*
D10*
X239950Y617160D03*
X239950Y673160D03*
D11*
X203200Y630160D03*
X203200Y640160D03*
X203200Y650160D03*
X203200Y660160D03*
D12*
X23250Y565150D03*
X40250Y565150D03*
D13*
X37020Y575620D02*
X37020Y582620D01*
X44020Y582620D01*
X44020Y575620D01*
X37020Y575620D01*
X37020Y578470D02*
X44020Y578470D01*
X44020Y581320D02*
X37020Y581320D01*
X19480Y582620D02*
X19480Y575620D01*
X19480Y582620D02*
X26480Y582620D01*
X26480Y575620D01*
X19480Y575620D01*
X19480Y578470D02*
X26480Y578470D01*
X26480Y581320D02*
X19480Y581320D01*
D14*
X117500Y594059D03*
X127000Y594059D03*
X136500Y594059D03*
X136500Y620061D03*
X117500Y620061D03*
D15*
X98900Y686460D03*
X98900Y705460D03*
X77900Y695960D03*
X155100Y705460D03*
X155100Y686460D03*
X176100Y695960D03*
D16*
X63500Y687460D03*
X63500Y704460D03*
X114300Y704460D03*
X114300Y687460D03*
X139700Y687460D03*
X139700Y704460D03*
X190500Y687460D03*
X190500Y704460D03*
X101600Y593480D03*
X101600Y610480D03*
X152400Y610480D03*
X152400Y593480D03*
D17*
X114500Y653160D03*
X114500Y645160D03*
X114500Y637160D03*
X139500Y653160D03*
X139500Y645160D03*
X139500Y637160D03*
D18*
X127000Y645160D03*
D10*
X273130Y673160D03*
X273130Y617160D03*
D11*
X309880Y660160D03*
X309880Y650160D03*
X309880Y640160D03*
X309880Y630160D03*
D12*
X377580Y670560D03*
X394580Y670560D03*
D10*
X499030Y617160D03*
X499030Y673160D03*
D11*
X462280Y630160D03*
X462280Y640160D03*
X462280Y650160D03*
X462280Y660160D03*
D12*
X282330Y565150D03*
X299330Y565150D03*
D13*
X296100Y575620D02*
X296100Y582620D01*
X303100Y582620D01*
X303100Y575620D01*
X296100Y575620D01*
X296100Y578470D02*
X303100Y578470D01*
X303100Y581320D02*
X296100Y581320D01*
X278560Y582620D02*
X278560Y575620D01*
X278560Y582620D02*
X285560Y582620D01*
X285560Y575620D01*
X278560Y575620D01*
X278560Y578470D02*
X285560Y578470D01*
X285560Y581320D02*
X278560Y581320D01*
D14*
X376580Y594059D03*
X386080Y594059D03*
X395580Y594059D03*
X395580Y620061D03*
X376580Y620061D03*
D15*
X357980Y686460D03*
X357980Y705460D03*
X336980Y695960D03*
X414180Y705460D03*
X414180Y686460D03*
X435180Y695960D03*
D16*
X322580Y687460D03*
X322580Y704460D03*
X373380Y704460D03*
X373380Y687460D03*
X398780Y687460D03*
X398780Y704460D03*
X449580Y687460D03*
X449580Y704460D03*
X360680Y593480D03*
X360680Y610480D03*
X411480Y610480D03*
X411480Y593480D03*
D17*
X373580Y653160D03*
X373580Y645160D03*
X373580Y637160D03*
X398580Y653160D03*
X398580Y645160D03*
X398580Y637160D03*
D18*
X386080Y645160D03*
D10*
X532210Y673160D03*
X532210Y617160D03*
D11*
X568960Y660160D03*
X568960Y650160D03*
X568960Y640160D03*
X568960Y630160D03*
D12*
X636660Y670560D03*
X653660Y670560D03*
D10*
X758110Y617160D03*
X758110Y673160D03*
D11*
X721360Y630160D03*
X721360Y640160D03*
X721360Y650160D03*
X721360Y660160D03*
D12*
X541410Y565150D03*
X558410Y565150D03*
D13*
X555180Y575620D02*
X555180Y582620D01*
X562180Y582620D01*
X562180Y575620D01*
X555180Y575620D01*
X555180Y578470D02*
X562180Y578470D01*
X562180Y581320D02*
X555180Y581320D01*
X537640Y582620D02*
X537640Y575620D01*
X537640Y582620D02*
X544640Y582620D01*
X544640Y575620D01*
X537640Y575620D01*
X537640Y578470D02*
X544640Y578470D01*
X544640Y581320D02*
X537640Y581320D01*
D14*
X635660Y594059D03*
X645160Y594059D03*
X654660Y594059D03*
X654660Y620061D03*
X635660Y620061D03*
D15*
X617060Y686460D03*
X617060Y705460D03*
X596060Y695960D03*
X673260Y705460D03*
X673260Y686460D03*
X694260Y695960D03*
D16*
X581660Y687460D03*
X581660Y704460D03*
X632460Y704460D03*
X632460Y687460D03*
X657860Y687460D03*
X657860Y704460D03*
X708660Y687460D03*
X708660Y704460D03*
X619760Y593480D03*
X619760Y610480D03*
X670560Y610480D03*
X670560Y593480D03*
D17*
X632660Y653160D03*
X632660Y645160D03*
X632660Y637160D03*
X657660Y653160D03*
X657660Y645160D03*
X657660Y637160D03*
D18*
X645160Y645160D03*
D10*
X791290Y673160D03*
X791290Y617160D03*
D11*
X828040Y660160D03*
X828040Y650160D03*
X828040Y640160D03*
X828040Y630160D03*
D12*
X895740Y670560D03*
X912740Y670560D03*
D10*
X1017190Y617160D03*
X1017190Y673160D03*
D11*
X980440Y630160D03*
X980440Y640160D03*
X980440Y650160D03*
X980440Y660160D03*
D12*
X800490Y565150D03*
X817490Y565150D03*
D13*
X814260Y575620D02*
X814260Y582620D01*
X821260Y582620D01*
X821260Y575620D01*
X814260Y575620D01*
X814260Y578470D02*
X821260Y578470D01*
X821260Y581320D02*
X814260Y581320D01*
X796720Y582620D02*
X796720Y575620D01*
X796720Y582620D02*
X803720Y582620D01*
X803720Y575620D01*
X796720Y575620D01*
X796720Y578470D02*
X803720Y578470D01*
X803720Y581320D02*
X796720Y581320D01*
D14*
X894740Y594059D03*
X904240Y594059D03*
X913740Y594059D03*
X913740Y620061D03*
X894740Y620061D03*
D15*
X876140Y686460D03*
X876140Y705460D03*
X855140Y695960D03*
X932340Y705460D03*
X932340Y686460D03*
X953340Y695960D03*
D16*
X840740Y687460D03*
X840740Y704460D03*
X891540Y704460D03*
X891540Y687460D03*
X916940Y687460D03*
X916940Y704460D03*
X967740Y687460D03*
X967740Y704460D03*
X878840Y593480D03*
X878840Y610480D03*
X929640Y610480D03*
X929640Y593480D03*
D17*
X891740Y653160D03*
X891740Y645160D03*
X891740Y637160D03*
X916740Y653160D03*
X916740Y645160D03*
X916740Y637160D03*
D18*
X904240Y645160D03*
D10*
X1050370Y673160D03*
X1050370Y617160D03*
D11*
X1087120Y660160D03*
X1087120Y650160D03*
X1087120Y640160D03*
X1087120Y630160D03*
D12*
X1154820Y670560D03*
X1171820Y670560D03*
D10*
X1276270Y617160D03*
X1276270Y673160D03*
D11*
X1239520Y630160D03*
X1239520Y640160D03*
X1239520Y650160D03*
X1239520Y660160D03*
D12*
X1059570Y565150D03*
X1076570Y565150D03*
D13*
X1073340Y575620D02*
X1073340Y582620D01*
X1080340Y582620D01*
X1080340Y575620D01*
X1073340Y575620D01*
X1073340Y578470D02*
X1080340Y578470D01*
X1080340Y581320D02*
X1073340Y581320D01*
X1055800Y582620D02*
X1055800Y575620D01*
X1055800Y582620D02*
X1062800Y582620D01*
X1062800Y575620D01*
X1055800Y575620D01*
X1055800Y578470D02*
X1062800Y578470D01*
X1062800Y581320D02*
X1055800Y581320D01*
D14*
X1153820Y594059D03*
X1163320Y594059D03*
X1172820Y594059D03*
X1172820Y620061D03*
X1153820Y620061D03*
D15*
X1135220Y686460D03*
X1135220Y705460D03*
X1114220Y695960D03*
X1191420Y705460D03*
X1191420Y686460D03*
X1212420Y695960D03*
D16*
X1099820Y687460D03*
X1099820Y704460D03*
X1150620Y704460D03*
X1150620Y687460D03*
X1176020Y687460D03*
X1176020Y704460D03*
X1226820Y687460D03*
X1226820Y704460D03*
X1137920Y593480D03*
X1137920Y610480D03*
X1188720Y610480D03*
X1188720Y593480D03*
D17*
X1150820Y653160D03*
X1150820Y645160D03*
X1150820Y637160D03*
X1175820Y653160D03*
X1175820Y645160D03*
X1175820Y637160D03*
D18*
X1163320Y645160D03*
D10*
X14050Y932240D03*
X14050Y876240D03*
D11*
X50800Y919240D03*
X50800Y909240D03*
X50800Y899240D03*
X50800Y889240D03*
D12*
X118500Y929640D03*
X135500Y929640D03*
D10*
X239950Y876240D03*
X239950Y932240D03*
D11*
X203200Y889240D03*
X203200Y899240D03*
X203200Y909240D03*
X203200Y919240D03*
D12*
X23250Y824230D03*
X40250Y824230D03*
D13*
X37020Y834700D02*
X37020Y841700D01*
X44020Y841700D01*
X44020Y834700D01*
X37020Y834700D01*
X37020Y837550D02*
X44020Y837550D01*
X44020Y840400D02*
X37020Y840400D01*
X19480Y841700D02*
X19480Y834700D01*
X19480Y841700D02*
X26480Y841700D01*
X26480Y834700D01*
X19480Y834700D01*
X19480Y837550D02*
X26480Y837550D01*
X26480Y840400D02*
X19480Y840400D01*
D14*
X117500Y853139D03*
X127000Y853139D03*
X136500Y853139D03*
X136500Y879141D03*
X117500Y879141D03*
D15*
X98900Y945540D03*
X98900Y964540D03*
X77900Y955040D03*
X155100Y964540D03*
X155100Y945540D03*
X176100Y955040D03*
D16*
X63500Y946540D03*
X63500Y963540D03*
X114300Y963540D03*
X114300Y946540D03*
X139700Y946540D03*
X139700Y963540D03*
X190500Y946540D03*
X190500Y963540D03*
X101600Y852560D03*
X101600Y869560D03*
X152400Y869560D03*
X152400Y852560D03*
D17*
X114500Y912240D03*
X114500Y904240D03*
X114500Y896240D03*
X139500Y912240D03*
X139500Y904240D03*
X139500Y896240D03*
D18*
X127000Y904240D03*
D10*
X273130Y932240D03*
X273130Y876240D03*
D11*
X309880Y919240D03*
X309880Y909240D03*
X309880Y899240D03*
X309880Y889240D03*
D12*
X377580Y929640D03*
X394580Y929640D03*
D10*
X499030Y876240D03*
X499030Y932240D03*
D11*
X462280Y889240D03*
X462280Y899240D03*
X462280Y909240D03*
X462280Y919240D03*
D12*
X282330Y824230D03*
X299330Y824230D03*
D13*
X296100Y834700D02*
X296100Y841700D01*
X303100Y841700D01*
X303100Y834700D01*
X296100Y834700D01*
X296100Y837550D02*
X303100Y837550D01*
X303100Y840400D02*
X296100Y840400D01*
X278560Y841700D02*
X278560Y834700D01*
X278560Y841700D02*
X285560Y841700D01*
X285560Y834700D01*
X278560Y834700D01*
X278560Y837550D02*
X285560Y837550D01*
X285560Y840400D02*
X278560Y840400D01*
D14*
X376580Y853139D03*
X386080Y853139D03*
X395580Y853139D03*
X395580Y879141D03*
X376580Y879141D03*
D15*
X357980Y945540D03*
X357980Y964540D03*
X336980Y955040D03*
X414180Y964540D03*
X414180Y945540D03*
X435180Y955040D03*
D16*
X322580Y946540D03*
X322580Y963540D03*
X373380Y963540D03*
X373380Y946540D03*
X398780Y946540D03*
X398780Y963540D03*
X449580Y946540D03*
X449580Y963540D03*
X360680Y852560D03*
X360680Y869560D03*
X411480Y869560D03*
X411480Y852560D03*
D17*
X373580Y912240D03*
X373580Y904240D03*
X373580Y896240D03*
X398580Y912240D03*
X398580Y904240D03*
X398580Y896240D03*
D18*
X386080Y904240D03*
D10*
X532210Y932240D03*
X532210Y876240D03*
D11*
X568960Y919240D03*
X568960Y909240D03*
X568960Y899240D03*
X568960Y889240D03*
D12*
X636660Y929640D03*
X653660Y929640D03*
D10*
X758110Y876240D03*
X758110Y932240D03*
D11*
X721360Y889240D03*
X721360Y899240D03*
X721360Y909240D03*
X721360Y919240D03*
D12*
X541410Y824230D03*
X558410Y824230D03*
D13*
X555180Y834700D02*
X555180Y841700D01*
X562180Y841700D01*
X562180Y834700D01*
X555180Y834700D01*
X555180Y837550D02*
X562180Y837550D01*
X562180Y840400D02*
X555180Y840400D01*
X537640Y841700D02*
X537640Y834700D01*
X537640Y841700D02*
X544640Y841700D01*
X544640Y834700D01*
X537640Y834700D01*
X537640Y837550D02*
X544640Y837550D01*
X544640Y840400D02*
X537640Y840400D01*
D14*
X635660Y853139D03*
X645160Y853139D03*
X654660Y853139D03*
X654660Y879141D03*
X635660Y879141D03*
D15*
X617060Y945540D03*
X617060Y964540D03*
X596060Y955040D03*
X673260Y964540D03*
X673260Y945540D03*
X694260Y955040D03*
D16*
X581660Y946540D03*
X581660Y963540D03*
X632460Y963540D03*
X632460Y946540D03*
X657860Y946540D03*
X657860Y963540D03*
X708660Y946540D03*
X708660Y963540D03*
X619760Y852560D03*
X619760Y869560D03*
X670560Y869560D03*
X670560Y852560D03*
D17*
X632660Y912240D03*
X632660Y904240D03*
X632660Y896240D03*
X657660Y912240D03*
X657660Y904240D03*
X657660Y896240D03*
D18*
X645160Y904240D03*
D10*
X791290Y932240D03*
X791290Y876240D03*
D11*
X828040Y919240D03*
X828040Y909240D03*
X828040Y899240D03*
X828040Y889240D03*
D12*
X895740Y929640D03*
X912740Y929640D03*
D10*
X1017190Y876240D03*
X1017190Y932240D03*
D11*
X980440Y889240D03*
X980440Y899240D03*
X980440Y909240D03*
X980440Y919240D03*
D12*
X800490Y824230D03*
X817490Y824230D03*
D13*
X814260Y834700D02*
X814260Y841700D01*
X821260Y841700D01*
X821260Y834700D01*
X814260Y834700D01*
X814260Y837550D02*
X821260Y837550D01*
X821260Y840400D02*
X814260Y840400D01*
X796720Y841700D02*
X796720Y834700D01*
X796720Y841700D02*
X803720Y841700D01*
X803720Y834700D01*
X796720Y834700D01*
X796720Y837550D02*
X803720Y837550D01*
X803720Y840400D02*
X796720Y840400D01*
D14*
X894740Y853139D03*
X904240Y853139D03*
X913740Y853139D03*
X913740Y879141D03*
X894740Y879141D03*
D15*
X876140Y945540D03*
X876140Y964540D03*
X855140Y955040D03*
X932340Y964540D03*
X932340Y945540D03*
X953340Y955040D03*
D16*
X840740Y946540D03*
X840740Y963540D03*
X891540Y963540D03*
X891540Y946540D03*
X916940Y946540D03*
X916940Y963540D03*
X967740Y946540D03*
X967740Y963540D03*
X878840Y852560D03*
X878840Y869560D03*
X929640Y869560D03*
X929640Y852560D03*
D17*
X891740Y912240D03*
X891740Y904240D03*
X891740Y896240D03*
X916740Y912240D03*
X916740Y904240D03*
X916740Y896240D03*
D18*
X904240Y904240D03*
D10*
X1050370Y932240D03*
X1050370Y876240D03*
D11*
X1087120Y919240D03*
X1087120Y909240D03*
X1087120Y899240D03*
X1087120Y889240D03*
D12*
X1154820Y929640D03*
X1171820Y929640D03*
D10*
X1276270Y876240D03*
X1276270Y932240D03*
D11*
X1239520Y889240D03*
X1239520Y899240D03*
X1239520Y909240D03*
X1239520Y919240D03*
D12*
X1059570Y824230D03*
X1076570Y824230D03*
D13*
X1073340Y834700D02*
X1073340Y841700D01*
X1080340Y841700D01*
X1080340Y834700D01*
X1073340Y834700D01*
X1073340Y837550D02*
X1080340Y837550D01*
X1080340Y840400D02*
X1073340Y840400D01*
X1055800Y841700D02*
X1055800Y834700D01*
X1055800Y841700D02*
X1062800Y841700D01*
X1062800Y834700D01*
X1055800Y834700D01*
X1055800Y837550D02*
X1062800Y837550D01*
X1062800Y840400D02*
X1055800Y840400D01*
D14*
X1153820Y853139D03*
X1163320Y853139D03*
X1172820Y853139D03*
X1172820Y879141D03*
X1153820Y879141D03*
D15*
X1135220Y945540D03*
X1135220Y964540D03*
X1114220Y955040D03*
X1191420Y964540D03*
X1191420Y945540D03*
X1212420Y955040D03*
D16*
X1099820Y946540D03*
X1099820Y963540D03*
X1150620Y963540D03*
X1150620Y946540D03*
X1176020Y946540D03*
X1176020Y963540D03*
X1226820Y946540D03*
X1226820Y963540D03*
X1137920Y852560D03*
X1137920Y869560D03*
X1188720Y869560D03*
X1188720Y852560D03*
D17*
X1150820Y912240D03*
X1150820Y904240D03*
X1150820Y896240D03*
X1175820Y912240D03*
X1175820Y904240D03*
X1175820Y896240D03*
D18*
X1163320Y904240D03*
D10*
X14050Y1191320D03*
X14050Y1135320D03*
D11*
X50800Y1178320D03*
X50800Y1168320D03*
X50800Y1158320D03*
X50800Y1148320D03*
D12*
X118500Y1188720D03*
X135500Y1188720D03*
D10*
X239950Y1135320D03*
X239950Y1191320D03*
D11*
X203200Y1148320D03*
X203200Y1158320D03*
X203200Y1168320D03*
X203200Y1178320D03*
D12*
X23250Y1083310D03*
X40250Y1083310D03*
D13*
X37020Y1093780D02*
X37020Y1100780D01*
X44020Y1100780D01*
X44020Y1093780D01*
X37020Y1093780D01*
X37020Y1096630D02*
X44020Y1096630D01*
X44020Y1099480D02*
X37020Y1099480D01*
X19480Y1100780D02*
X19480Y1093780D01*
X19480Y1100780D02*
X26480Y1100780D01*
X26480Y1093780D01*
X19480Y1093780D01*
X19480Y1096630D02*
X26480Y1096630D01*
X26480Y1099480D02*
X19480Y1099480D01*
D14*
X117500Y1112219D03*
X127000Y1112219D03*
X136500Y1112219D03*
X136500Y1138221D03*
X117500Y1138221D03*
D15*
X98900Y1204620D03*
X98900Y1223620D03*
X77900Y1214120D03*
X155100Y1223620D03*
X155100Y1204620D03*
X176100Y1214120D03*
D16*
X63500Y1205620D03*
X63500Y1222620D03*
X114300Y1222620D03*
X114300Y1205620D03*
X139700Y1205620D03*
X139700Y1222620D03*
X190500Y1205620D03*
X190500Y1222620D03*
X101600Y1111640D03*
X101600Y1128640D03*
X152400Y1128640D03*
X152400Y1111640D03*
D17*
X114500Y1171320D03*
X114500Y1163320D03*
X114500Y1155320D03*
X139500Y1171320D03*
X139500Y1163320D03*
X139500Y1155320D03*
D18*
X127000Y1163320D03*
D10*
X273130Y1191320D03*
X273130Y1135320D03*
D11*
X309880Y1178320D03*
X309880Y1168320D03*
X309880Y1158320D03*
X309880Y1148320D03*
D12*
X377580Y1188720D03*
X394580Y1188720D03*
D10*
X499030Y1135320D03*
X499030Y1191320D03*
D11*
X462280Y1148320D03*
X462280Y1158320D03*
X462280Y1168320D03*
X462280Y1178320D03*
D12*
X282330Y1083310D03*
X299330Y1083310D03*
D13*
X296100Y1093780D02*
X296100Y1100780D01*
X303100Y1100780D01*
X303100Y1093780D01*
X296100Y1093780D01*
X296100Y1096630D02*
X303100Y1096630D01*
X303100Y1099480D02*
X296100Y1099480D01*
X278560Y1100780D02*
X278560Y1093780D01*
X278560Y1100780D02*
X285560Y1100780D01*
X285560Y1093780D01*
X278560Y1093780D01*
X278560Y1096630D02*
X285560Y1096630D01*
X285560Y1099480D02*
X278560Y1099480D01*
D14*
X376580Y1112219D03*
X386080Y1112219D03*
X395580Y1112219D03*
X395580Y1138221D03*
X376580Y1138221D03*
D15*
X357980Y1204620D03*
X357980Y1223620D03*
X336980Y1214120D03*
X414180Y1223620D03*
X414180Y1204620D03*
X435180Y1214120D03*
D16*
X322580Y1205620D03*
X322580Y1222620D03*
X373380Y1222620D03*
X373380Y1205620D03*
X398780Y1205620D03*
X398780Y1222620D03*
X449580Y1205620D03*
X449580Y1222620D03*
X360680Y1111640D03*
X360680Y1128640D03*
X411480Y1128640D03*
X411480Y1111640D03*
D17*
X373580Y1171320D03*
X373580Y1163320D03*
X373580Y1155320D03*
X398580Y1171320D03*
X398580Y1163320D03*
X398580Y1155320D03*
D18*
X386080Y1163320D03*
D10*
X532210Y1191320D03*
X532210Y1135320D03*
D11*
X568960Y1178320D03*
X568960Y1168320D03*
X568960Y1158320D03*
X568960Y1148320D03*
D12*
X636660Y1188720D03*
X653660Y1188720D03*
D10*
X758110Y1135320D03*
X758110Y1191320D03*
D11*
X721360Y1148320D03*
X721360Y1158320D03*
X721360Y1168320D03*
X721360Y1178320D03*
D12*
X541410Y1083310D03*
X558410Y1083310D03*
D13*
X555180Y1093780D02*
X555180Y1100780D01*
X562180Y1100780D01*
X562180Y1093780D01*
X555180Y1093780D01*
X555180Y1096630D02*
X562180Y1096630D01*
X562180Y1099480D02*
X555180Y1099480D01*
X537640Y1100780D02*
X537640Y1093780D01*
X537640Y1100780D02*
X544640Y1100780D01*
X544640Y1093780D01*
X537640Y1093780D01*
X537640Y1096630D02*
X544640Y1096630D01*
X544640Y1099480D02*
X537640Y1099480D01*
D14*
X635660Y1112219D03*
X645160Y1112219D03*
X654660Y1112219D03*
X654660Y1138221D03*
X635660Y1138221D03*
D15*
X617060Y1204620D03*
X617060Y1223620D03*
X596060Y1214120D03*
X673260Y1223620D03*
X673260Y1204620D03*
X694260Y1214120D03*
D16*
X581660Y1205620D03*
X581660Y1222620D03*
X632460Y1222620D03*
X632460Y1205620D03*
X657860Y1205620D03*
X657860Y1222620D03*
X708660Y1205620D03*
X708660Y1222620D03*
X619760Y1111640D03*
X619760Y1128640D03*
X670560Y1128640D03*
X670560Y1111640D03*
D17*
X632660Y1171320D03*
X632660Y1163320D03*
X632660Y1155320D03*
X657660Y1171320D03*
X657660Y1163320D03*
X657660Y1155320D03*
D18*
X645160Y1163320D03*
D10*
X791290Y1191320D03*
X791290Y1135320D03*
D11*
X828040Y1178320D03*
X828040Y1168320D03*
X828040Y1158320D03*
X828040Y1148320D03*
D12*
X895740Y1188720D03*
X912740Y1188720D03*
D10*
X1017190Y1135320D03*
X1017190Y1191320D03*
D11*
X980440Y1148320D03*
X980440Y1158320D03*
X980440Y1168320D03*
X980440Y1178320D03*
D12*
X800490Y1083310D03*
X817490Y1083310D03*
D13*
X814260Y1093780D02*
X814260Y1100780D01*
X821260Y1100780D01*
X821260Y1093780D01*
X814260Y1093780D01*
X814260Y1096630D02*
X821260Y1096630D01*
X821260Y1099480D02*
X814260Y1099480D01*
X796720Y1100780D02*
X796720Y1093780D01*
X796720Y1100780D02*
X803720Y1100780D01*
X803720Y1093780D01*
X796720Y1093780D01*
X796720Y1096630D02*
X803720Y1096630D01*
X803720Y1099480D02*
X796720Y1099480D01*
D14*
X894740Y1112219D03*
X904240Y1112219D03*
X913740Y1112219D03*
X913740Y1138221D03*
X894740Y1138221D03*
D15*
X876140Y1204620D03*
X876140Y1223620D03*
X855140Y1214120D03*
X932340Y1223620D03*
X932340Y1204620D03*
X953340Y1214120D03*
D16*
X840740Y1205620D03*
X840740Y1222620D03*
X891540Y1222620D03*
X891540Y1205620D03*
X916940Y1205620D03*
X916940Y1222620D03*
X967740Y1205620D03*
X967740Y1222620D03*
X878840Y1111640D03*
X878840Y1128640D03*
X929640Y1128640D03*
X929640Y1111640D03*
D17*
X891740Y1171320D03*
X891740Y1163320D03*
X891740Y1155320D03*
X916740Y1171320D03*
X916740Y1163320D03*
X916740Y1155320D03*
D18*
X904240Y1163320D03*
D10*
X1050370Y1191320D03*
X1050370Y1135320D03*
D11*
X1087120Y1178320D03*
X1087120Y1168320D03*
X1087120Y1158320D03*
X1087120Y1148320D03*
D12*
X1154820Y1188720D03*
X1171820Y1188720D03*
D10*
X1276270Y1135320D03*
X1276270Y1191320D03*
D11*
X1239520Y1148320D03*
X1239520Y1158320D03*
X1239520Y1168320D03*
X1239520Y1178320D03*
D12*
X1059570Y1083310D03*
X1076570Y1083310D03*
D13*
X1073340Y1093780D02*
X1073340Y1100780D01*
X1080340Y1100780D01*
X1080340Y1093780D01*
X1073340Y1093780D01*
X1073340Y1096630D02*
X1080340Y1096630D01*
X1080340Y1099480D02*
X1073340Y1099480D01*
X1055800Y1100780D02*
X1055800Y1093780D01*
X1055800Y1100780D02*
X1062800Y1100780D01*
X1062800Y1093780D01*
X1055800Y1093780D01*
X1055800Y1096630D02*
X1062800Y1096630D01*
X1062800Y1099480D02*
X1055800Y1099480D01*
D14*
X1153820Y1112219D03*
X1163320Y1112219D03*
X1172820Y1112219D03*
X1172820Y1138221D03*
X1153820Y1138221D03*
D15*
X1135220Y1204620D03*
X1135220Y1223620D03*
X1114220Y1214120D03*
X1191420Y1223620D03*
X1191420Y1204620D03*
X1212420Y1214120D03*
D16*
X1099820Y1205620D03*
X1099820Y1222620D03*
X1150620Y1222620D03*
X1150620Y1205620D03*
X1176020Y1205620D03*
X1176020Y1222620D03*
X1226820Y1205620D03*
X1226820Y1222620D03*
X1137920Y1111640D03*
X1137920Y1128640D03*
X1188720Y1128640D03*
X1188720Y1111640D03*
D17*
X1150820Y1171320D03*
X1150820Y1163320D03*
X1150820Y1155320D03*
X1175820Y1171320D03*
X1175820Y1163320D03*
X1175820Y1155320D03*
D18*
X1163320Y1163320D03*
D10*
X14050Y1450400D03*
X14050Y1394400D03*
D11*
X50800Y1437400D03*
X50800Y1427400D03*
X50800Y1417400D03*
X50800Y1407400D03*
D12*
X118500Y1447800D03*
X135500Y1447800D03*
D10*
X239950Y1394400D03*
X239950Y1450400D03*
D11*
X203200Y1407400D03*
X203200Y1417400D03*
X203200Y1427400D03*
X203200Y1437400D03*
D12*
X23250Y1342390D03*
X40250Y1342390D03*
D13*
X37020Y1352860D02*
X37020Y1359860D01*
X44020Y1359860D01*
X44020Y1352860D01*
X37020Y1352860D01*
X37020Y1355710D02*
X44020Y1355710D01*
X44020Y1358560D02*
X37020Y1358560D01*
X19480Y1359860D02*
X19480Y1352860D01*
X19480Y1359860D02*
X26480Y1359860D01*
X26480Y1352860D01*
X19480Y1352860D01*
X19480Y1355710D02*
X26480Y1355710D01*
X26480Y1358560D02*
X19480Y1358560D01*
D14*
X117500Y1371299D03*
X127000Y1371299D03*
X136500Y1371299D03*
X136500Y1397301D03*
X117500Y1397301D03*
D15*
X98900Y1463700D03*
X98900Y1482700D03*
X77900Y1473200D03*
X155100Y1482700D03*
X155100Y1463700D03*
X176100Y1473200D03*
D16*
X63500Y1464700D03*
X63500Y1481700D03*
X114300Y1481700D03*
X114300Y1464700D03*
X139700Y1464700D03*
X139700Y1481700D03*
X190500Y1464700D03*
X190500Y1481700D03*
X101600Y1370720D03*
X101600Y1387720D03*
X152400Y1387720D03*
X152400Y1370720D03*
D17*
X114500Y1430400D03*
X114500Y1422400D03*
X114500Y1414400D03*
X139500Y1430400D03*
X139500Y1422400D03*
X139500Y1414400D03*
D18*
X127000Y1422400D03*
D10*
X273130Y1450400D03*
X273130Y1394400D03*
D11*
X309880Y1437400D03*
X309880Y1427400D03*
X309880Y1417400D03*
X309880Y1407400D03*
D12*
X377580Y1447800D03*
X394580Y1447800D03*
D10*
X499030Y1394400D03*
X499030Y1450400D03*
D11*
X462280Y1407400D03*
X462280Y1417400D03*
X462280Y1427400D03*
X462280Y1437400D03*
D12*
X282330Y1342390D03*
X299330Y1342390D03*
D13*
X296100Y1352860D02*
X296100Y1359860D01*
X303100Y1359860D01*
X303100Y1352860D01*
X296100Y1352860D01*
X296100Y1355710D02*
X303100Y1355710D01*
X303100Y1358560D02*
X296100Y1358560D01*
X278560Y1359860D02*
X278560Y1352860D01*
X278560Y1359860D02*
X285560Y1359860D01*
X285560Y1352860D01*
X278560Y1352860D01*
X278560Y1355710D02*
X285560Y1355710D01*
X285560Y1358560D02*
X278560Y1358560D01*
D14*
X376580Y1371299D03*
X386080Y1371299D03*
X395580Y1371299D03*
X395580Y1397301D03*
X376580Y1397301D03*
D15*
X357980Y1463700D03*
X357980Y1482700D03*
X336980Y1473200D03*
X414180Y1482700D03*
X414180Y1463700D03*
X435180Y1473200D03*
D16*
X322580Y1464700D03*
X322580Y1481700D03*
X373380Y1481700D03*
X373380Y1464700D03*
X398780Y1464700D03*
X398780Y1481700D03*
X449580Y1464700D03*
X449580Y1481700D03*
X360680Y1370720D03*
X360680Y1387720D03*
X411480Y1387720D03*
X411480Y1370720D03*
D17*
X373580Y1430400D03*
X373580Y1422400D03*
X373580Y1414400D03*
X398580Y1430400D03*
X398580Y1422400D03*
X398580Y1414400D03*
D18*
X386080Y1422400D03*
D10*
X532210Y1450400D03*
X532210Y1394400D03*
D11*
X568960Y1437400D03*
X568960Y1427400D03*
X568960Y1417400D03*
X568960Y1407400D03*
D12*
X636660Y1447800D03*
X653660Y1447800D03*
D10*
X758110Y1394400D03*
X758110Y1450400D03*
D11*
X721360Y1407400D03*
X721360Y1417400D03*
X721360Y1427400D03*
X721360Y1437400D03*
D12*
X541410Y1342390D03*
X558410Y1342390D03*
D13*
X555180Y1352860D02*
X555180Y1359860D01*
X562180Y1359860D01*
X562180Y1352860D01*
X555180Y1352860D01*
X555180Y1355710D02*
X562180Y1355710D01*
X562180Y1358560D02*
X555180Y1358560D01*
X537640Y1359860D02*
X537640Y1352860D01*
X537640Y1359860D02*
X544640Y1359860D01*
X544640Y1352860D01*
X537640Y1352860D01*
X537640Y1355710D02*
X544640Y1355710D01*
X544640Y1358560D02*
X537640Y1358560D01*
D14*
X635660Y1371299D03*
X645160Y1371299D03*
X654660Y1371299D03*
X654660Y1397301D03*
X635660Y1397301D03*
D15*
X617060Y1463700D03*
X617060Y1482700D03*
X596060Y1473200D03*
X673260Y1482700D03*
X673260Y1463700D03*
X694260Y1473200D03*
D16*
X581660Y1464700D03*
X581660Y1481700D03*
X632460Y1481700D03*
X632460Y1464700D03*
X657860Y1464700D03*
X657860Y1481700D03*
X708660Y1464700D03*
X708660Y1481700D03*
X619760Y1370720D03*
X619760Y1387720D03*
X670560Y1387720D03*
X670560Y1370720D03*
D17*
X632660Y1430400D03*
X632660Y1422400D03*
X632660Y1414400D03*
X657660Y1430400D03*
X657660Y1422400D03*
X657660Y1414400D03*
D18*
X645160Y1422400D03*
D10*
X791290Y1450400D03*
X791290Y1394400D03*
D11*
X828040Y1437400D03*
X828040Y1427400D03*
X828040Y1417400D03*
X828040Y1407400D03*
D12*
X895740Y1447800D03*
X912740Y1447800D03*
D10*
X1017190Y1394400D03*
X1017190Y1450400D03*
D11*
X980440Y1407400D03*
X980440Y1417400D03*
X980440Y1427400D03*
X980440Y1437400D03*
D12*
X800490Y1342390D03*
X817490Y1342390D03*
D13*
X814260Y1352860D02*
X814260Y1359860D01*
X821260Y1359860D01*
X821260Y1352860D01*
X814260Y1352860D01*
X814260Y1355710D02*
X821260Y1355710D01*
X821260Y1358560D02*
X814260Y1358560D01*
X796720Y1359860D02*
X796720Y1352860D01*
X796720Y1359860D02*
X803720Y1359860D01*
X803720Y1352860D01*
X796720Y1352860D01*
X796720Y1355710D02*
X803720Y1355710D01*
X803720Y1358560D02*
X796720Y1358560D01*
D14*
X894740Y1371299D03*
X904240Y1371299D03*
X913740Y1371299D03*
X913740Y1397301D03*
X894740Y1397301D03*
D15*
X876140Y1463700D03*
X876140Y1482700D03*
X855140Y1473200D03*
X932340Y1482700D03*
X932340Y1463700D03*
X953340Y1473200D03*
D16*
X840740Y1464700D03*
X840740Y1481700D03*
X891540Y1481700D03*
X891540Y1464700D03*
X916940Y1464700D03*
X916940Y1481700D03*
X967740Y1464700D03*
X967740Y1481700D03*
X878840Y1370720D03*
X878840Y1387720D03*
X929640Y1387720D03*
X929640Y1370720D03*
D17*
X891740Y1430400D03*
X891740Y1422400D03*
X891740Y1414400D03*
X916740Y1430400D03*
X916740Y1422400D03*
X916740Y1414400D03*
D18*
X904240Y1422400D03*
D10*
X1050370Y1450400D03*
X1050370Y1394400D03*
D11*
X1087120Y1437400D03*
X1087120Y1427400D03*
X1087120Y1417400D03*
X1087120Y1407400D03*
D12*
X1154820Y1447800D03*
X1171820Y1447800D03*
D10*
X1276270Y1394400D03*
X1276270Y1450400D03*
D11*
X1239520Y1407400D03*
X1239520Y1417400D03*
X1239520Y1427400D03*
X1239520Y1437400D03*
D12*
X1059570Y1342390D03*
X1076570Y1342390D03*
D13*
X1073340Y1352860D02*
X1073340Y1359860D01*
X1080340Y1359860D01*
X1080340Y1352860D01*
X1073340Y1352860D01*
X1073340Y1355710D02*
X1080340Y1355710D01*
X1080340Y1358560D02*
X1073340Y1358560D01*
X1055800Y1359860D02*
X1055800Y1352860D01*
X1055800Y1359860D02*
X1062800Y1359860D01*
X1062800Y1352860D01*
X1055800Y1352860D01*
X1055800Y1355710D02*
X1062800Y1355710D01*
X1062800Y1358560D02*
X1055800Y1358560D01*
D14*
X1153820Y1371299D03*
X1163320Y1371299D03*
X1172820Y1371299D03*
X1172820Y1397301D03*
X1153820Y1397301D03*
D15*
X1135220Y1463700D03*
X1135220Y1482700D03*
X1114220Y1473200D03*
X1191420Y1482700D03*
X1191420Y1463700D03*
X1212420Y1473200D03*
D16*
X1099820Y1464700D03*
X1099820Y1481700D03*
X1150620Y1481700D03*
X1150620Y1464700D03*
X1176020Y1464700D03*
X1176020Y1481700D03*
X1226820Y1464700D03*
X1226820Y1481700D03*
X1137920Y1370720D03*
X1137920Y1387720D03*
X1188720Y1387720D03*
X1188720Y1370720D03*
D17*
X1150820Y1430400D03*
X1150820Y1422400D03*
X1150820Y1414400D03*
X1175820Y1430400D03*
X1175820Y1422400D03*
X1175820Y1414400D03*
D18*
X1163320Y1422400D03*
D10*
X14050Y1709480D03*
X14050Y1653480D03*
D11*
X50800Y1696480D03*
X50800Y1686480D03*
X50800Y1676480D03*
X50800Y1666480D03*
D12*
X118500Y1706880D03*
X135500Y1706880D03*
D10*
X239950Y1653480D03*
X239950Y1709480D03*
D11*
X203200Y1666480D03*
X203200Y1676480D03*
X203200Y1686480D03*
X203200Y1696480D03*
D12*
X23250Y1601470D03*
X40250Y1601470D03*
D13*
X37020Y1611940D02*
X37020Y1618940D01*
X44020Y1618940D01*
X44020Y1611940D01*
X37020Y1611940D01*
X37020Y1614790D02*
X44020Y1614790D01*
X44020Y1617640D02*
X37020Y1617640D01*
X19480Y1618940D02*
X19480Y1611940D01*
X19480Y1618940D02*
X26480Y1618940D01*
X26480Y1611940D01*
X19480Y1611940D01*
X19480Y1614790D02*
X26480Y1614790D01*
X26480Y1617640D02*
X19480Y1617640D01*
D14*
X117500Y1630379D03*
X127000Y1630379D03*
X136500Y1630379D03*
X136500Y1656381D03*
X117500Y1656381D03*
D15*
X98900Y1722780D03*
X98900Y1741780D03*
X77900Y1732280D03*
X155100Y1741780D03*
X155100Y1722780D03*
X176100Y1732280D03*
D16*
X63500Y1723780D03*
X63500Y1740780D03*
X114300Y1740780D03*
X114300Y1723780D03*
X139700Y1723780D03*
X139700Y1740780D03*
X190500Y1723780D03*
X190500Y1740780D03*
X101600Y1629800D03*
X101600Y1646800D03*
X152400Y1646800D03*
X152400Y1629800D03*
D17*
X114500Y1689480D03*
X114500Y1681480D03*
X114500Y1673480D03*
X139500Y1689480D03*
X139500Y1681480D03*
X139500Y1673480D03*
D18*
X127000Y1681480D03*
D10*
X273130Y1709480D03*
X273130Y1653480D03*
D11*
X309880Y1696480D03*
X309880Y1686480D03*
X309880Y1676480D03*
X309880Y1666480D03*
D12*
X377580Y1706880D03*
X394580Y1706880D03*
D10*
X499030Y1653480D03*
X499030Y1709480D03*
D11*
X462280Y1666480D03*
X462280Y1676480D03*
X462280Y1686480D03*
X462280Y1696480D03*
D12*
X282330Y1601470D03*
X299330Y1601470D03*
D13*
X296100Y1611940D02*
X296100Y1618940D01*
X303100Y1618940D01*
X303100Y1611940D01*
X296100Y1611940D01*
X296100Y1614790D02*
X303100Y1614790D01*
X303100Y1617640D02*
X296100Y1617640D01*
X278560Y1618940D02*
X278560Y1611940D01*
X278560Y1618940D02*
X285560Y1618940D01*
X285560Y1611940D01*
X278560Y1611940D01*
X278560Y1614790D02*
X285560Y1614790D01*
X285560Y1617640D02*
X278560Y1617640D01*
D14*
X376580Y1630379D03*
X386080Y1630379D03*
X395580Y1630379D03*
X395580Y1656381D03*
X376580Y1656381D03*
D15*
X357980Y1722780D03*
X357980Y1741780D03*
X336980Y1732280D03*
X414180Y1741780D03*
X414180Y1722780D03*
X435180Y1732280D03*
D16*
X322580Y1723780D03*
X322580Y1740780D03*
X373380Y1740780D03*
X373380Y1723780D03*
X398780Y1723780D03*
X398780Y1740780D03*
X449580Y1723780D03*
X449580Y1740780D03*
X360680Y1629800D03*
X360680Y1646800D03*
X411480Y1646800D03*
X411480Y1629800D03*
D17*
X373580Y1689480D03*
X373580Y1681480D03*
X373580Y1673480D03*
X398580Y1689480D03*
X398580Y1681480D03*
X398580Y1673480D03*
D18*
X386080Y1681480D03*
D10*
X532210Y1709480D03*
X532210Y1653480D03*
D11*
X568960Y1696480D03*
X568960Y1686480D03*
X568960Y1676480D03*
X568960Y1666480D03*
D12*
X636660Y1706880D03*
X653660Y1706880D03*
D10*
X758110Y1653480D03*
X758110Y1709480D03*
D11*
X721360Y1666480D03*
X721360Y1676480D03*
X721360Y1686480D03*
X721360Y1696480D03*
D12*
X541410Y1601470D03*
X558410Y1601470D03*
D13*
X555180Y1611940D02*
X555180Y1618940D01*
X562180Y1618940D01*
X562180Y1611940D01*
X555180Y1611940D01*
X555180Y1614790D02*
X562180Y1614790D01*
X562180Y1617640D02*
X555180Y1617640D01*
X537640Y1618940D02*
X537640Y1611940D01*
X537640Y1618940D02*
X544640Y1618940D01*
X544640Y1611940D01*
X537640Y1611940D01*
X537640Y1614790D02*
X544640Y1614790D01*
X544640Y1617640D02*
X537640Y1617640D01*
D14*
X635660Y1630379D03*
X645160Y1630379D03*
X654660Y1630379D03*
X654660Y1656381D03*
X635660Y1656381D03*
D15*
X617060Y1722780D03*
X617060Y1741780D03*
X596060Y1732280D03*
X673260Y1741780D03*
X673260Y1722780D03*
X694260Y1732280D03*
D16*
X581660Y1723780D03*
X581660Y1740780D03*
X632460Y1740780D03*
X632460Y1723780D03*
X657860Y1723780D03*
X657860Y1740780D03*
X708660Y1723780D03*
X708660Y1740780D03*
X619760Y1629800D03*
X619760Y1646800D03*
X670560Y1646800D03*
X670560Y1629800D03*
D17*
X632660Y1689480D03*
X632660Y1681480D03*
X632660Y1673480D03*
X657660Y1689480D03*
X657660Y1681480D03*
X657660Y1673480D03*
D18*
X645160Y1681480D03*
D10*
X791290Y1709480D03*
X791290Y1653480D03*
D11*
X828040Y1696480D03*
X828040Y1686480D03*
X828040Y1676480D03*
X828040Y1666480D03*
D12*
X895740Y1706880D03*
X912740Y1706880D03*
D10*
X1017190Y1653480D03*
X1017190Y1709480D03*
D11*
X980440Y1666480D03*
X980440Y1676480D03*
X980440Y1686480D03*
X980440Y1696480D03*
D12*
X800490Y1601470D03*
X817490Y1601470D03*
D13*
X814260Y1611940D02*
X814260Y1618940D01*
X821260Y1618940D01*
X821260Y1611940D01*
X814260Y1611940D01*
X814260Y1614790D02*
X821260Y1614790D01*
X821260Y1617640D02*
X814260Y1617640D01*
X796720Y1618940D02*
X796720Y1611940D01*
X796720Y1618940D02*
X803720Y1618940D01*
X803720Y1611940D01*
X796720Y1611940D01*
X796720Y1614790D02*
X803720Y1614790D01*
X803720Y1617640D02*
X796720Y1617640D01*
D14*
X894740Y1630379D03*
X904240Y1630379D03*
X913740Y1630379D03*
X913740Y1656381D03*
X894740Y1656381D03*
D15*
X876140Y1722780D03*
X876140Y1741780D03*
X855140Y1732280D03*
X932340Y1741780D03*
X932340Y1722780D03*
X953340Y1732280D03*
D16*
X840740Y1723780D03*
X840740Y1740780D03*
X891540Y1740780D03*
X891540Y1723780D03*
X916940Y1723780D03*
X916940Y1740780D03*
X967740Y1723780D03*
X967740Y1740780D03*
X878840Y1629800D03*
X878840Y1646800D03*
X929640Y1646800D03*
X929640Y1629800D03*
D17*
X891740Y1689480D03*
X891740Y1681480D03*
X891740Y1673480D03*
X916740Y1689480D03*
X916740Y1681480D03*
X916740Y1673480D03*
D18*
X904240Y1681480D03*
D10*
X1050370Y1709480D03*
X1050370Y1653480D03*
D11*
X1087120Y1696480D03*
X1087120Y1686480D03*
X1087120Y1676480D03*
X1087120Y1666480D03*
D12*
X1154820Y1706880D03*
X1171820Y1706880D03*
D10*
X1276270Y1653480D03*
X1276270Y1709480D03*
D11*
X1239520Y1666480D03*
X1239520Y1676480D03*
X1239520Y1686480D03*
X1239520Y1696480D03*
D12*
X1059570Y1601470D03*
X1076570Y1601470D03*
D13*
X1073340Y1611940D02*
X1073340Y1618940D01*
X1080340Y1618940D01*
X1080340Y1611940D01*
X1073340Y1611940D01*
X1073340Y1614790D02*
X1080340Y1614790D01*
X1080340Y1617640D02*
X1073340Y1617640D01*
X1055800Y1618940D02*
X1055800Y1611940D01*
X1055800Y1618940D02*
X1062800Y1618940D01*
X1062800Y1611940D01*
X1055800Y1611940D01*
X1055800Y1614790D02*
X1062800Y1614790D01*
X1062800Y1617640D02*
X1055800Y1617640D01*
D14*
X1153820Y1630379D03*
X1163320Y1630379D03*
X1172820Y1630379D03*
X1172820Y1656381D03*
X1153820Y1656381D03*
D15*
X1135220Y1722780D03*
X1135220Y1741780D03*
X1114220Y1732280D03*
X1191420Y1741780D03*
X1191420Y1722780D03*
X1212420Y1732280D03*
D16*
X1099820Y1723780D03*
X1099820Y1740780D03*
X1150620Y1740780D03*
X1150620Y1723780D03*
X1176020Y1723780D03*
X1176020Y1740780D03*
X1226820Y1723780D03*
X1226820Y1740780D03*
X1137920Y1629800D03*
X1137920Y1646800D03*
X1188720Y1646800D03*
X1188720Y1629800D03*
D17*
X1150820Y1689480D03*
X1150820Y1681480D03*
X1150820Y1673480D03*
X1175820Y1689480D03*
X1175820Y1681480D03*
X1175820Y1673480D03*
D18*
X1163320Y1681480D03*
M02*
