M48
;GenerationSoftware,Autodesk,EAGLE,9.6.0*%
;CreationDate,2020-04-08T21:23:58Z*%
FMAT,2
ICI,OFF
METRIC,TZ,000.000
T3C0.381
T2C1.016
T1C3.302
%
G90
M71
T1
X54356Y74676
X106172Y178308
X2540Y22860
X22860Y22860
X28448Y22860
X48768Y22860
X54356Y22860
X74676Y22860
X80264Y22860
X100584Y22860
X106172Y22860
X126492Y22860
X2540Y48768
X22860Y48768
X28448Y48768
X48768Y48768
X54356Y48768
X74676Y48768
X80264Y48768
X100584Y48768
X106172Y48768
X126492Y48768
X2540Y74676
X22860Y74676
X28448Y74676
X48768Y74676
X2540Y152400
X74676Y74676
X80264Y74676
X100584Y74676
X106172Y74676
X126492Y74676
X2540Y100584
X22860Y100584
X28448Y100584
X48768Y100584
X54356Y100584
X74676Y100584
X80264Y100584
X100584Y100584
X106172Y100584
X126492Y100584
X2540Y126492
X22860Y126492
X28448Y126492
X48768Y126492
X54356Y126492
X74676Y126492
X80264Y126492
X100584Y126492
X106172Y126492
X126492Y126492
X126492Y178308
X22860Y152400
X28448Y152400
X48768Y152400
X54356Y152400
X74676Y152400
X80264Y152400
X100584Y152400
X106172Y152400
X126492Y152400
X2540Y178308
X22860Y178308
X28448Y178308
X48768Y178308
X54356Y178308
X74676Y178308
X80264Y178308
X100584Y178308
T2
X34798Y1270
X120142Y156718
X8890Y1270
X11430Y1270
X13970Y1270
X16510Y1270
X37338Y1270
X39878Y1270
X42418Y1270
X60706Y1270
X63246Y1270
X65786Y1270
X68326Y1270
X86614Y1270
X89154Y1270
X91694Y1270
X94234Y1270
X112522Y1270
X115062Y1270
X117602Y1270
X120142Y1270
X8890Y27178
X11430Y27178
X13970Y27178
X16510Y27178
X34798Y27178
X37338Y27178
X39878Y27178
X42418Y27178
X60706Y27178
X63246Y27178
X65786Y27178
X68326Y27178
X86614Y27178
X89154Y27178
X91694Y27178
X94234Y27178
X112522Y27178
X115062Y27178
X117602Y27178
X120142Y27178
X8890Y53086
X11430Y53086
X13970Y53086
X16510Y53086
X34798Y53086
X37338Y53086
X39878Y53086
X42418Y53086
X60706Y53086
X63246Y53086
X65786Y53086
X68326Y53086
X86614Y53086
X89154Y53086
X91694Y53086
X94234Y53086
X112522Y53086
X115062Y53086
X117602Y53086
X120142Y53086
X8890Y78994
X11430Y78994
X13970Y78994
X16510Y78994
X34798Y78994
X37338Y78994
X39878Y78994
X42418Y78994
X60706Y78994
X63246Y78994
X65786Y78994
X68326Y78994
X86614Y78994
X89154Y78994
X91694Y78994
X94234Y78994
X112522Y78994
X115062Y78994
X117602Y78994
X120142Y78994
X8890Y104902
X11430Y104902
X13970Y104902
X16510Y104902
X34798Y104902
X37338Y104902
X39878Y104902
X42418Y104902
X60706Y104902
X63246Y104902
X65786Y104902
X68326Y104902
X86614Y104902
X89154Y104902
X91694Y104902
X94234Y104902
X112522Y104902
X115062Y104902
X117602Y104902
X120142Y104902
X8890Y130810
X11430Y130810
X13970Y130810
X16510Y130810
X34798Y130810
X37338Y130810
X39878Y130810
X42418Y130810
X60706Y130810
X63246Y130810
X65786Y130810
X68326Y130810
X86614Y130810
X89154Y130810
X91694Y130810
X94234Y130810
X112522Y130810
X115062Y130810
X117602Y130810
X120142Y130810
X8890Y156718
X11430Y156718
X13970Y156718
X16510Y156718
X34798Y156718
X37338Y156718
X39878Y156718
X42418Y156718
X60706Y156718
X63246Y156718
X65786Y156718
X68326Y156718
X86614Y156718
X89154Y156718
X91694Y156718
X94234Y156718
X112522Y156718
X115062Y156718
X117602Y156718
T3
X94234Y39878
X97663Y41402
X90424Y31750
X89789Y34798
X85598Y35433
X83058Y32004
X92456Y41148
X96393Y40132
X88138Y36398
X93599Y39116
X86995Y37084
X88138Y37846
X86210Y38354
X86106Y44704
X95123Y44720
X110617Y39116
X109982Y33528
X116332Y48768
X113792Y39116
X118504Y37706
X110236Y40132
X109982Y41402
X118872Y31750
X122428Y36449
X120015Y36322
X120142Y39878
X123571Y41402
X116332Y31750
X115697Y34798
X111506Y35433
X108966Y32004
X118364Y41148
X122301Y40132
X114046Y36398
X119507Y39116
X112903Y37084
X114046Y37846
X112118Y38354
X112014Y44704
X121031Y44720
X6985Y65024
X6350Y59436
X12700Y74676
X10160Y65024
X14872Y63614
X6604Y66040
X6350Y67310
X15240Y57658
X18796Y62357
X16383Y62230
X16510Y65786
X19939Y67310
X12700Y57658
X12065Y60706
X7874Y61341
X5334Y57912
X14732Y67056
X18669Y66040
X10414Y62306
X15875Y65024
X9271Y62992
X10414Y63754
X8486Y64262
X8382Y70612
X17399Y70628
X32893Y65024
X32258Y59436
X38608Y74676
X36068Y65024
X40780Y63614
X32512Y66040
X32258Y67310
X41148Y57658
X44704Y62357
X42291Y62230
X42418Y65786
X45847Y67310
X38608Y57658
X37973Y60706
X33782Y61341
X31242Y57912
X40640Y67056
X44577Y66040
X36322Y62306
X41783Y65024
X35179Y62992
X36322Y63754
X34394Y64262
X34290Y70612
X43307Y70628
X58801Y65024
X58166Y59436
X64516Y74676
X61976Y65024
X66688Y63614
X58420Y66040
X58166Y67310
X67056Y57658
X70612Y62357
X68199Y62230
X68326Y65786
X71755Y67310
X64516Y57658
X63881Y60706
X59690Y61341
X57150Y57912
X66548Y67056
X70485Y66040
X62230Y62306
X67691Y65024
X61087Y62992
X62230Y63754
X60302Y64262
X60198Y70612
X69215Y70628
X84709Y65024
X84074Y59436
X90424Y74676
X87884Y65024
X92596Y63614
X84328Y66040
X84074Y67310
X92964Y57658
X96520Y62357
X94107Y62230
X94234Y65786
X97663Y67310
X90424Y57658
X89789Y60706
X85598Y61341
X83058Y57912
X92456Y67056
X96393Y66040
X88138Y62306
X93599Y65024
X86995Y62992
X88138Y63754
X86210Y64262
X86106Y70612
X95123Y70628
X110617Y65024
X109982Y59436
X116332Y74676
X113792Y65024
X118504Y63614
X110236Y66040
X109982Y67310
X118872Y57658
X122428Y62357
X120015Y62230
X120142Y65786
X123571Y67310
X116332Y57658
X115697Y60706
X111506Y61341
X108966Y57912
X118364Y67056
X122301Y66040
X114046Y62306
X119507Y65024
X112903Y62992
X114046Y63754
X112118Y64262
X112014Y70612
X121031Y70628
X6985Y90932
X6350Y85344
X12700Y100584
X10160Y90932
X14872Y89522
X6604Y91948
X6350Y93218
X15240Y83566
X18796Y88265
X16383Y88138
X16510Y91694
X19939Y93218
X12700Y83566
X12065Y86614
X7874Y87249
X5334Y83820
X14732Y92964
X18669Y91948
X10414Y88214
X15875Y90932
X9271Y88900
X10414Y89662
X8486Y90170
X8382Y96520
X17399Y96536
X32893Y90932
X32258Y85344
X38608Y100584
X36068Y90932
X40780Y89522
X32512Y91948
X32258Y93218
X41148Y83566
X44704Y88265
X42291Y88138
X42418Y91694
X45847Y93218
X38608Y83566
X37973Y86614
X33782Y87249
X31242Y83820
X40640Y92964
X44577Y91948
X36322Y88214
X41783Y90932
X35179Y88900
X36322Y89662
X34394Y90170
X34290Y96520
X43307Y96536
X58801Y90932
X58166Y85344
X64516Y100584
X61976Y90932
X66688Y89522
X58420Y91948
X58166Y93218
X67056Y83566
X70612Y88265
X68199Y88138
X68326Y91694
X71755Y93218
X64516Y83566
X63881Y86614
X59690Y87249
X57150Y83820
X66548Y92964
X70485Y91948
X62230Y88214
X67691Y90932
X61087Y88900
X62230Y89662
X60302Y90170
X60198Y96520
X69215Y96536
X84709Y90932
X84074Y85344
X90424Y100584
X87884Y90932
X92596Y89522
X84328Y91948
X84074Y93218
X92964Y83566
X96520Y88265
X94107Y88138
X94234Y91694
X97663Y93218
X90424Y83566
X89789Y86614
X85598Y87249
X83058Y83820
X92456Y92964
X96393Y91948
X88138Y88214
X93599Y90932
X86995Y88900
X88138Y89662
X86210Y90170
X86106Y96520
X95123Y96536
X110617Y90932
X109982Y85344
X116332Y100584
X113792Y90932
X118504Y89522
X110236Y91948
X109982Y93218
X118872Y83566
X122428Y88265
X120015Y88138
X120142Y91694
X123571Y93218
X116332Y83566
X115697Y86614
X111506Y87249
X108966Y83820
X118364Y92964
X122301Y91948
X114046Y88214
X119507Y90932
X112903Y88900
X114046Y89662
X112118Y90170
X112014Y96520
X121031Y96536
X6985Y116840
X6350Y111252
X12700Y126492
X10160Y116840
X14872Y115430
X6604Y117856
X6350Y119126
X15240Y109474
X18796Y114173
X16383Y114046
X16510Y117602
X19939Y119126
X12700Y109474
X12065Y112522
X7874Y113157
X5334Y109728
X14732Y118872
X18669Y117856
X10414Y114122
X15875Y116840
X9271Y114808
X10414Y115570
X8486Y116078
X8382Y122428
X17399Y122444
X32893Y116840
X32258Y111252
X38608Y126492
X36068Y116840
X40780Y115430
X32512Y117856
X32258Y119126
X41148Y109474
X44704Y114173
X42291Y114046
X42418Y117602
X45847Y119126
X38608Y109474
X37973Y112522
X33782Y113157
X31242Y109728
X40640Y118872
X16510Y39878
X36322Y114122
X41783Y116840
X35179Y114808
X36322Y115570
X34394Y116078
X34290Y122428
X43307Y122444
X58801Y116840
X58166Y111252
X64516Y126492
X61976Y116840
X66688Y115430
X58420Y117856
X58166Y119126
X67056Y109474
X70612Y114173
X68199Y114046
X68326Y117602
X71755Y119126
X64516Y109474
X63881Y112522
X59690Y113157
X57150Y109728
X66548Y118872
X70485Y117856
X62230Y114122
X67691Y116840
X61087Y114808
X62230Y115570
X60302Y116078
X60198Y122428
X69215Y122444
X84709Y116840
X84074Y111252
X90424Y126492
X87884Y116840
X92596Y115430
X84328Y117856
X84074Y119126
X92964Y109474
X96520Y114173
X94107Y114046
X94234Y117602
X97663Y119126
X90424Y109474
X89789Y112522
X85598Y113157
X83058Y109728
X92456Y118872
X96393Y117856
X88138Y114122
X93599Y116840
X86995Y114808
X88138Y115570
X86210Y116078
X86106Y122428
X95123Y122444
X110617Y116840
X109982Y111252
X116332Y126492
X113792Y116840
X118504Y115430
X110236Y117856
X109982Y119126
X118872Y109474
X122428Y114173
X120015Y114046
X120142Y117602
X123571Y119126
X116332Y109474
X115697Y112522
X111506Y113157
X108966Y109728
X118364Y118872
X122301Y117856
X114046Y114122
X119507Y116840
X112903Y114808
X114046Y115570
X112118Y116078
X112014Y122428
X121031Y122444
X6985Y142748
X6350Y137160
X12700Y152400
X10160Y142748
X14872Y141338
X6604Y143764
X6350Y145034
X15240Y135382
X18796Y140081
X16383Y139954
X16510Y143510
X19939Y145034
X12700Y135382
X12065Y138430
X7874Y139065
X5334Y135636
X14732Y144780
X18669Y143764
X10414Y140030
X15875Y142748
X9271Y140716
X10414Y141478
X8486Y141986
X8382Y148336
X17399Y148352
X32893Y142748
X32258Y137160
X38608Y152400
X36068Y142748
X40780Y141338
X32512Y143764
X32258Y145034
X41148Y135382
X44704Y140081
X42291Y139954
X42418Y143510
X45847Y145034
X38608Y135382
X37973Y138430
X33782Y139065
X31242Y135636
X40640Y144780
X44577Y143764
X36322Y140030
X41783Y142748
X35179Y140716
X36322Y141478
X34394Y141986
X34290Y148336
X43307Y148352
X58801Y142748
X58166Y137160
X64516Y152400
X61976Y142748
X66688Y141338
X58420Y143764
X58166Y145034
X67056Y135382
X70612Y140081
X68199Y139954
X68326Y143510
X71755Y145034
X64516Y135382
X63881Y138430
X59690Y139065
X57150Y135636
X66548Y144780
X70485Y143764
X62230Y140030
X67691Y142748
X61087Y140716
X62230Y141478
X60302Y141986
X60198Y148336
X69215Y148352
X84709Y142748
X84074Y137160
X90424Y152400
X87884Y142748
X92596Y141338
X84328Y143764
X84074Y145034
X92964Y135382
X96520Y140081
X94107Y139954
X94234Y143510
X97663Y145034
X90424Y135382
X89789Y138430
X85598Y139065
X83058Y135636
X92456Y144780
X96393Y143764
X88138Y140030
X93599Y142748
X86995Y140716
X88138Y141478
X86210Y141986
X86106Y148336
X95123Y148352
X110617Y142748
X109982Y137160
X116332Y152400
X113792Y142748
X118504Y141338
X110236Y143764
X109982Y145034
X118872Y135382
X122428Y140081
X120015Y139954
X120142Y143510
X123571Y145034
X116332Y135382
X115697Y138430
X111506Y139065
X108966Y135636
X118364Y144780
X122301Y143764
X114046Y140030
X119507Y142748
X112903Y140716
X114046Y141478
X112118Y141986
X112014Y148336
X121031Y148352
X6985Y168656
X6350Y163068
X12700Y178308
X10160Y168656
X14872Y167246
X6604Y169672
X6350Y170942
X15240Y161290
X18796Y165989
X16383Y165862
X16510Y169418
X19939Y170942
X12700Y161290
X12065Y164338
X7874Y164973
X5334Y161544
X14732Y170688
X18669Y169672
X10414Y165938
X15875Y168656
X9271Y166624
X10414Y167386
X8486Y167894
X8382Y174244
X17399Y174260
X32893Y168656
X32258Y163068
X38608Y178308
X36068Y168656
X40780Y167246
X32512Y169672
X32258Y170942
X41148Y161290
X44704Y165989
X42291Y165862
X42418Y169418
X45847Y170942
X38608Y161290
X37973Y164338
X33782Y164973
X31242Y161544
X40640Y170688
X44577Y169672
X36322Y165938
X41783Y168656
X35179Y166624
X36322Y167386
X34394Y167894
X34290Y174244
X43307Y174260
X58801Y168656
X58166Y163068
X64516Y178308
X61976Y168656
X66688Y167246
X58420Y169672
X58166Y170942
X67056Y161290
X70612Y165989
X68199Y165862
X68326Y169418
X71755Y170942
X64516Y161290
X63881Y164338
X6985Y13208
X57150Y161544
X66548Y170688
X70485Y169672
X62230Y165938
X67691Y168656
X61087Y166624
X62230Y167386
X60302Y167894
X60198Y174244
X69215Y174260
X84709Y168656
X84074Y163068
X90424Y178308
X87884Y168656
X92596Y167246
X84328Y169672
X84074Y170942
X92964Y161290
X96520Y165989
X94107Y165862
X94234Y169418
X97663Y170942
X90424Y161290
X89789Y164338
X85598Y164973
X83058Y161544
X92456Y170688
X96393Y169672
X88138Y165938
X93599Y168656
X86995Y166624
X88138Y167386
X86210Y167894
X86106Y174244
X95123Y174260
X110617Y168656
X109982Y163068
X116332Y178308
X113792Y168656
X118504Y167246
X110236Y169672
X109982Y170942
X118872Y161290
X122428Y165989
X120015Y165862
X120142Y169418
X123571Y170942
X116332Y161290
X115697Y164338
X111506Y164973
X108966Y161544
X118364Y170688
X122301Y169672
X114046Y165938
X119507Y168656
X112903Y166624
X114046Y167386
X112118Y167894
X112014Y174244
X121031Y174260
X6350Y7620
X12700Y22860
X10160Y13208
X14872Y11798
X6604Y14224
X6350Y15494
X15240Y5842
X18796Y10541
X16383Y10414
X16510Y13970
X19939Y15494
X12700Y5842
X12065Y8890
X7874Y9525
X5334Y6096
X14732Y15240
X18669Y14224
X10414Y10490
X15875Y13208
X9271Y11176
X10414Y11938
X8486Y12446
X8382Y18796
X17399Y18812
X32893Y13208
X32258Y7620
X38608Y22860
X36068Y13208
X40780Y11798
X32512Y14224
X32258Y15494
X41148Y5842
X44704Y10541
X42291Y10414
X42418Y13970
X45847Y15494
X38608Y5842
X37973Y8890
X33782Y9525
X31242Y6096
X40640Y15240
X44577Y14224
X36322Y10490
X41783Y13208
X35179Y11176
X36322Y11938
X34394Y12446
X34290Y18796
X43307Y18812
X58801Y13208
X58166Y7620
X64516Y22860
X61976Y13208
X66688Y11798
X58420Y14224
X58166Y15494
X67056Y5842
X70612Y10541
X68199Y10414
X68326Y13970
X71755Y15494
X64516Y5842
X63881Y8890
X59690Y9525
X57150Y6096
X66548Y15240
X70485Y14224
X62230Y10490
X67691Y13208
X61087Y11176
X62230Y11938
X60302Y12446
X60198Y18796
X69215Y18812
X44577Y117856
X84709Y13208
X84074Y7620
X90424Y22860
X87884Y13208
X92596Y11798
X84328Y14224
X84074Y15494
X92964Y5842
X96520Y10541
X94107Y10414
X94234Y13970
X97663Y15494
X90424Y5842
X89789Y8890
X85598Y9525
X83058Y6096
X92456Y15240
X96393Y14224
X88138Y10490
X93599Y13208
X86995Y11176
X88138Y11938
X86210Y12446
X86106Y18796
X95123Y18812
X110617Y13208
X109982Y7620
X116332Y22860
X113792Y13208
X118504Y11798
X110236Y14224
X109982Y15494
X118872Y5842
X122428Y10541
X120015Y10414
X120142Y13970
X123571Y15494
X116332Y5842
X115697Y8890
X111506Y9525
X108966Y6096
X118364Y15240
X122301Y14224
X114046Y10490
X119507Y13208
X112903Y11176
X114046Y11938
X112118Y12446
X112014Y18796
X121031Y18812
X6985Y39116
X6350Y33528
X12700Y48768
X10160Y39116
X14872Y37706
X6604Y40132
X6350Y41402
X15240Y31750
X18796Y36449
X16383Y36322
X19939Y41402
X12700Y31750
X12065Y34798
X7874Y35433
X5334Y32004
X14732Y41148
X18669Y40132
X10414Y36398
X15875Y39116
X9271Y37084
X10414Y37846
X8486Y38354
X8382Y44704
X17399Y44720
X32893Y39116
X32258Y33528
X38608Y48768
X36068Y39116
X40780Y37706
X32512Y40132
X32258Y41402
X41148Y31750
X44704Y36449
X42291Y36322
X42418Y39878
X45847Y41402
X38608Y31750
X37973Y34798
X33782Y35433
X31242Y32004
X40640Y41148
X44577Y40132
X36322Y36398
X41783Y39116
X35179Y37084
X36322Y37846
X34394Y38354
X34290Y44704
X43307Y44720
X58801Y39116
X58166Y33528
X64516Y48768
X61976Y39116
X66688Y37706
X58420Y40132
X58166Y41402
X67056Y31750
X70612Y36449
X68199Y36322
X68326Y39878
X71755Y41402
X64516Y31750
X63881Y34798
X59690Y35433
X57150Y32004
X66548Y41148
X70485Y40132
X62230Y36398
X67691Y39116
X61087Y37084
X62230Y37846
X60302Y38354
X60198Y44704
X69215Y44720
X84709Y39116
X84074Y33528
X90424Y48768
X87884Y39116
X92596Y37706
X84328Y40132
X84074Y41402
X92964Y31750
X96520Y36449
X94107Y36322
X59690Y164973
M30