G04 EAGLE Gerber RS-274X export*
G75*
%MOMM*%
%FSLAX34Y34*%
%LPD*%
%INSoldermask Top*%
%IPPOS*%
%AMOC8*
5,1,8,0,0,1.08239X$1,22.5*%
G01*
%ADD10C,3.505200*%
%ADD11C,0.838200*%
%ADD12R,2.203200X1.403200*%
%ADD13R,1.553200X0.803200*%
%ADD14R,1.303200X1.203200*%
%ADD15C,0.505344*%
%ADD16R,0.753200X1.403200*%
%ADD17R,1.103200X1.003200*%
%ADD18R,1.203200X1.303200*%
%ADD19R,1.473200X0.863600*%
%ADD20C,2.082800*%
%ADD21R,0.753200X0.603200*%
%ADD22C,1.203200*%
%ADD23C,1.270000*%
%ADD24C,1.703200*%

G36*
X1170575Y1671979D02*
X1170575Y1671979D01*
X1170574Y1671980D01*
X1170575Y1671980D01*
X1170575Y1690980D01*
X1170571Y1690985D01*
X1170570Y1690984D01*
X1170570Y1690985D01*
X1159320Y1690985D01*
X1159318Y1690983D01*
X1159317Y1690983D01*
X1156067Y1687733D01*
X1156067Y1687732D01*
X1156066Y1687732D01*
X1156067Y1687731D01*
X1156065Y1687730D01*
X1156065Y1671980D01*
X1156069Y1671975D01*
X1156070Y1671976D01*
X1156070Y1671975D01*
X1170570Y1671975D01*
X1170575Y1671979D01*
G37*
G36*
X652415Y1671979D02*
X652415Y1671979D01*
X652414Y1671980D01*
X652415Y1671980D01*
X652415Y1690980D01*
X652411Y1690985D01*
X652410Y1690984D01*
X652410Y1690985D01*
X641160Y1690985D01*
X641158Y1690983D01*
X641157Y1690983D01*
X637907Y1687733D01*
X637907Y1687732D01*
X637906Y1687732D01*
X637907Y1687731D01*
X637905Y1687730D01*
X637905Y1671980D01*
X637909Y1671975D01*
X637910Y1671976D01*
X637910Y1671975D01*
X652410Y1671975D01*
X652415Y1671979D01*
G37*
G36*
X134255Y1671979D02*
X134255Y1671979D01*
X134254Y1671980D01*
X134255Y1671980D01*
X134255Y1690980D01*
X134251Y1690985D01*
X134250Y1690984D01*
X134250Y1690985D01*
X123000Y1690985D01*
X122998Y1690983D01*
X122997Y1690983D01*
X119747Y1687733D01*
X119747Y1687732D01*
X119746Y1687732D01*
X119747Y1687731D01*
X119745Y1687730D01*
X119745Y1671980D01*
X119749Y1671975D01*
X119750Y1671976D01*
X119750Y1671975D01*
X134250Y1671975D01*
X134255Y1671979D01*
G37*
G36*
X393335Y1671979D02*
X393335Y1671979D01*
X393334Y1671980D01*
X393335Y1671980D01*
X393335Y1690980D01*
X393331Y1690985D01*
X393330Y1690984D01*
X393330Y1690985D01*
X382080Y1690985D01*
X382078Y1690983D01*
X382077Y1690983D01*
X378827Y1687733D01*
X378827Y1687732D01*
X378826Y1687732D01*
X378827Y1687731D01*
X378825Y1687730D01*
X378825Y1671980D01*
X378829Y1671975D01*
X378830Y1671976D01*
X378830Y1671975D01*
X393330Y1671975D01*
X393335Y1671979D01*
G37*
G36*
X911495Y1671979D02*
X911495Y1671979D01*
X911494Y1671980D01*
X911495Y1671980D01*
X911495Y1690980D01*
X911491Y1690985D01*
X911490Y1690984D01*
X911490Y1690985D01*
X900240Y1690985D01*
X900238Y1690983D01*
X900237Y1690983D01*
X896987Y1687733D01*
X896987Y1687732D01*
X896986Y1687732D01*
X896987Y1687731D01*
X896985Y1687730D01*
X896985Y1671980D01*
X896989Y1671975D01*
X896990Y1671976D01*
X896990Y1671975D01*
X911490Y1671975D01*
X911495Y1671979D01*
G37*
G36*
X393335Y1153819D02*
X393335Y1153819D01*
X393334Y1153820D01*
X393335Y1153820D01*
X393335Y1172820D01*
X393331Y1172825D01*
X393330Y1172824D01*
X393330Y1172825D01*
X382080Y1172825D01*
X382078Y1172823D01*
X382077Y1172823D01*
X378827Y1169573D01*
X378827Y1169572D01*
X378826Y1169572D01*
X378827Y1169571D01*
X378825Y1169570D01*
X378825Y1153820D01*
X378829Y1153815D01*
X378830Y1153816D01*
X378830Y1153815D01*
X393330Y1153815D01*
X393335Y1153819D01*
G37*
G36*
X911495Y1153819D02*
X911495Y1153819D01*
X911494Y1153820D01*
X911495Y1153820D01*
X911495Y1172820D01*
X911491Y1172825D01*
X911490Y1172824D01*
X911490Y1172825D01*
X900240Y1172825D01*
X900238Y1172823D01*
X900237Y1172823D01*
X896987Y1169573D01*
X896987Y1169572D01*
X896986Y1169572D01*
X896987Y1169571D01*
X896985Y1169570D01*
X896985Y1153820D01*
X896989Y1153815D01*
X896990Y1153816D01*
X896990Y1153815D01*
X911490Y1153815D01*
X911495Y1153819D01*
G37*
G36*
X1170575Y1153819D02*
X1170575Y1153819D01*
X1170574Y1153820D01*
X1170575Y1153820D01*
X1170575Y1172820D01*
X1170571Y1172825D01*
X1170570Y1172824D01*
X1170570Y1172825D01*
X1159320Y1172825D01*
X1159318Y1172823D01*
X1159317Y1172823D01*
X1156067Y1169573D01*
X1156067Y1169572D01*
X1156066Y1169572D01*
X1156067Y1169571D01*
X1156065Y1169570D01*
X1156065Y1153820D01*
X1156069Y1153815D01*
X1156070Y1153816D01*
X1156070Y1153815D01*
X1170570Y1153815D01*
X1170575Y1153819D01*
G37*
G36*
X1170575Y117499D02*
X1170575Y117499D01*
X1170574Y117500D01*
X1170575Y117500D01*
X1170575Y136500D01*
X1170571Y136505D01*
X1170570Y136504D01*
X1170570Y136505D01*
X1159320Y136505D01*
X1159318Y136503D01*
X1159317Y136503D01*
X1156067Y133253D01*
X1156067Y133252D01*
X1156066Y133252D01*
X1156067Y133251D01*
X1156065Y133250D01*
X1156065Y117500D01*
X1156069Y117495D01*
X1156070Y117496D01*
X1156070Y117495D01*
X1170570Y117495D01*
X1170575Y117499D01*
G37*
G36*
X134255Y894739D02*
X134255Y894739D01*
X134254Y894740D01*
X134255Y894740D01*
X134255Y913740D01*
X134251Y913745D01*
X134250Y913744D01*
X134250Y913745D01*
X123000Y913745D01*
X122998Y913743D01*
X122997Y913743D01*
X119747Y910493D01*
X119747Y910492D01*
X119746Y910492D01*
X119747Y910491D01*
X119745Y910490D01*
X119745Y894740D01*
X119749Y894735D01*
X119750Y894736D01*
X119750Y894735D01*
X134250Y894735D01*
X134255Y894739D01*
G37*
G36*
X652415Y1412899D02*
X652415Y1412899D01*
X652414Y1412900D01*
X652415Y1412900D01*
X652415Y1431900D01*
X652411Y1431905D01*
X652410Y1431904D01*
X652410Y1431905D01*
X641160Y1431905D01*
X641158Y1431903D01*
X641157Y1431903D01*
X637907Y1428653D01*
X637907Y1428652D01*
X637906Y1428652D01*
X637907Y1428651D01*
X637905Y1428650D01*
X637905Y1412900D01*
X637909Y1412895D01*
X637910Y1412896D01*
X637910Y1412895D01*
X652410Y1412895D01*
X652415Y1412899D01*
G37*
G36*
X393335Y1412899D02*
X393335Y1412899D01*
X393334Y1412900D01*
X393335Y1412900D01*
X393335Y1431900D01*
X393331Y1431905D01*
X393330Y1431904D01*
X393330Y1431905D01*
X382080Y1431905D01*
X382078Y1431903D01*
X382077Y1431903D01*
X378827Y1428653D01*
X378827Y1428652D01*
X378826Y1428652D01*
X378827Y1428651D01*
X378825Y1428650D01*
X378825Y1412900D01*
X378829Y1412895D01*
X378830Y1412896D01*
X378830Y1412895D01*
X393330Y1412895D01*
X393335Y1412899D01*
G37*
G36*
X1170575Y1412899D02*
X1170575Y1412899D01*
X1170574Y1412900D01*
X1170575Y1412900D01*
X1170575Y1431900D01*
X1170571Y1431905D01*
X1170570Y1431904D01*
X1170570Y1431905D01*
X1159320Y1431905D01*
X1159318Y1431903D01*
X1159317Y1431903D01*
X1156067Y1428653D01*
X1156067Y1428652D01*
X1156066Y1428652D01*
X1156067Y1428651D01*
X1156065Y1428650D01*
X1156065Y1412900D01*
X1156069Y1412895D01*
X1156070Y1412896D01*
X1156070Y1412895D01*
X1170570Y1412895D01*
X1170575Y1412899D01*
G37*
G36*
X911495Y1412899D02*
X911495Y1412899D01*
X911494Y1412900D01*
X911495Y1412900D01*
X911495Y1431900D01*
X911491Y1431905D01*
X911490Y1431904D01*
X911490Y1431905D01*
X900240Y1431905D01*
X900238Y1431903D01*
X900237Y1431903D01*
X896987Y1428653D01*
X896987Y1428652D01*
X896986Y1428652D01*
X896987Y1428651D01*
X896985Y1428650D01*
X896985Y1412900D01*
X896989Y1412895D01*
X896990Y1412896D01*
X896990Y1412895D01*
X911490Y1412895D01*
X911495Y1412899D01*
G37*
G36*
X134255Y1412899D02*
X134255Y1412899D01*
X134254Y1412900D01*
X134255Y1412900D01*
X134255Y1431900D01*
X134251Y1431905D01*
X134250Y1431904D01*
X134250Y1431905D01*
X123000Y1431905D01*
X122998Y1431903D01*
X122997Y1431903D01*
X119747Y1428653D01*
X119747Y1428652D01*
X119746Y1428652D01*
X119747Y1428651D01*
X119745Y1428650D01*
X119745Y1412900D01*
X119749Y1412895D01*
X119750Y1412896D01*
X119750Y1412895D01*
X134250Y1412895D01*
X134255Y1412899D01*
G37*
G36*
X652415Y894739D02*
X652415Y894739D01*
X652414Y894740D01*
X652415Y894740D01*
X652415Y913740D01*
X652411Y913745D01*
X652410Y913744D01*
X652410Y913745D01*
X641160Y913745D01*
X641158Y913743D01*
X641157Y913743D01*
X637907Y910493D01*
X637907Y910492D01*
X637906Y910492D01*
X637907Y910491D01*
X637905Y910490D01*
X637905Y894740D01*
X637909Y894735D01*
X637910Y894736D01*
X637910Y894735D01*
X652410Y894735D01*
X652415Y894739D01*
G37*
G36*
X652415Y635659D02*
X652415Y635659D01*
X652414Y635660D01*
X652415Y635660D01*
X652415Y654660D01*
X652411Y654665D01*
X652410Y654664D01*
X652410Y654665D01*
X641160Y654665D01*
X641158Y654663D01*
X641157Y654663D01*
X637907Y651413D01*
X637907Y651412D01*
X637906Y651412D01*
X637907Y651411D01*
X637905Y651410D01*
X637905Y635660D01*
X637909Y635655D01*
X637910Y635656D01*
X637910Y635655D01*
X652410Y635655D01*
X652415Y635659D01*
G37*
G36*
X911495Y894739D02*
X911495Y894739D01*
X911494Y894740D01*
X911495Y894740D01*
X911495Y913740D01*
X911491Y913745D01*
X911490Y913744D01*
X911490Y913745D01*
X900240Y913745D01*
X900238Y913743D01*
X900237Y913743D01*
X896987Y910493D01*
X896987Y910492D01*
X896986Y910492D01*
X896987Y910491D01*
X896985Y910490D01*
X896985Y894740D01*
X896989Y894735D01*
X896990Y894736D01*
X896990Y894735D01*
X911490Y894735D01*
X911495Y894739D01*
G37*
G36*
X393335Y894739D02*
X393335Y894739D01*
X393334Y894740D01*
X393335Y894740D01*
X393335Y913740D01*
X393331Y913745D01*
X393330Y913744D01*
X393330Y913745D01*
X382080Y913745D01*
X382078Y913743D01*
X382077Y913743D01*
X378827Y910493D01*
X378827Y910492D01*
X378826Y910492D01*
X378827Y910491D01*
X378825Y910490D01*
X378825Y894740D01*
X378829Y894735D01*
X378830Y894736D01*
X378830Y894735D01*
X393330Y894735D01*
X393335Y894739D01*
G37*
G36*
X1170575Y894739D02*
X1170575Y894739D01*
X1170574Y894740D01*
X1170575Y894740D01*
X1170575Y913740D01*
X1170571Y913745D01*
X1170570Y913744D01*
X1170570Y913745D01*
X1159320Y913745D01*
X1159318Y913743D01*
X1159317Y913743D01*
X1156067Y910493D01*
X1156067Y910492D01*
X1156066Y910492D01*
X1156067Y910491D01*
X1156065Y910490D01*
X1156065Y894740D01*
X1156069Y894735D01*
X1156070Y894736D01*
X1156070Y894735D01*
X1170570Y894735D01*
X1170575Y894739D01*
G37*
G36*
X652415Y1153819D02*
X652415Y1153819D01*
X652414Y1153820D01*
X652415Y1153820D01*
X652415Y1172820D01*
X652411Y1172825D01*
X652410Y1172824D01*
X652410Y1172825D01*
X641160Y1172825D01*
X641158Y1172823D01*
X641157Y1172823D01*
X637907Y1169573D01*
X637907Y1169572D01*
X637906Y1169572D01*
X637907Y1169571D01*
X637905Y1169570D01*
X637905Y1153820D01*
X637909Y1153815D01*
X637910Y1153816D01*
X637910Y1153815D01*
X652410Y1153815D01*
X652415Y1153819D01*
G37*
G36*
X134255Y1153819D02*
X134255Y1153819D01*
X134254Y1153820D01*
X134255Y1153820D01*
X134255Y1172820D01*
X134251Y1172825D01*
X134250Y1172824D01*
X134250Y1172825D01*
X123000Y1172825D01*
X122998Y1172823D01*
X122997Y1172823D01*
X119747Y1169573D01*
X119747Y1169572D01*
X119746Y1169572D01*
X119747Y1169571D01*
X119745Y1169570D01*
X119745Y1153820D01*
X119749Y1153815D01*
X119750Y1153816D01*
X119750Y1153815D01*
X134250Y1153815D01*
X134255Y1153819D01*
G37*
G36*
X911495Y635659D02*
X911495Y635659D01*
X911494Y635660D01*
X911495Y635660D01*
X911495Y654660D01*
X911491Y654665D01*
X911490Y654664D01*
X911490Y654665D01*
X900240Y654665D01*
X900238Y654663D01*
X900237Y654663D01*
X896987Y651413D01*
X896987Y651412D01*
X896986Y651412D01*
X896987Y651411D01*
X896985Y651410D01*
X896985Y635660D01*
X896989Y635655D01*
X896990Y635656D01*
X896990Y635655D01*
X911490Y635655D01*
X911495Y635659D01*
G37*
G36*
X134255Y635659D02*
X134255Y635659D01*
X134254Y635660D01*
X134255Y635660D01*
X134255Y654660D01*
X134251Y654665D01*
X134250Y654664D01*
X134250Y654665D01*
X123000Y654665D01*
X122998Y654663D01*
X122997Y654663D01*
X119747Y651413D01*
X119747Y651412D01*
X119746Y651412D01*
X119747Y651411D01*
X119745Y651410D01*
X119745Y635660D01*
X119749Y635655D01*
X119750Y635656D01*
X119750Y635655D01*
X134250Y635655D01*
X134255Y635659D01*
G37*
G36*
X1170575Y635659D02*
X1170575Y635659D01*
X1170574Y635660D01*
X1170575Y635660D01*
X1170575Y654660D01*
X1170571Y654665D01*
X1170570Y654664D01*
X1170570Y654665D01*
X1159320Y654665D01*
X1159318Y654663D01*
X1159317Y654663D01*
X1156067Y651413D01*
X1156067Y651412D01*
X1156066Y651412D01*
X1156067Y651411D01*
X1156065Y651410D01*
X1156065Y635660D01*
X1156069Y635655D01*
X1156070Y635656D01*
X1156070Y635655D01*
X1170570Y635655D01*
X1170575Y635659D01*
G37*
G36*
X393335Y635659D02*
X393335Y635659D01*
X393334Y635660D01*
X393335Y635660D01*
X393335Y654660D01*
X393331Y654665D01*
X393330Y654664D01*
X393330Y654665D01*
X382080Y654665D01*
X382078Y654663D01*
X382077Y654663D01*
X378827Y651413D01*
X378827Y651412D01*
X378826Y651412D01*
X378827Y651411D01*
X378825Y651410D01*
X378825Y635660D01*
X378829Y635655D01*
X378830Y635656D01*
X378830Y635655D01*
X393330Y635655D01*
X393335Y635659D01*
G37*
G36*
X911495Y376579D02*
X911495Y376579D01*
X911494Y376580D01*
X911495Y376580D01*
X911495Y395580D01*
X911491Y395585D01*
X911490Y395584D01*
X911490Y395585D01*
X900240Y395585D01*
X900238Y395583D01*
X900237Y395583D01*
X896987Y392333D01*
X896987Y392332D01*
X896986Y392332D01*
X896987Y392331D01*
X896985Y392330D01*
X896985Y376580D01*
X896989Y376575D01*
X896990Y376576D01*
X896990Y376575D01*
X911490Y376575D01*
X911495Y376579D01*
G37*
G36*
X1170575Y376579D02*
X1170575Y376579D01*
X1170574Y376580D01*
X1170575Y376580D01*
X1170575Y395580D01*
X1170571Y395585D01*
X1170570Y395584D01*
X1170570Y395585D01*
X1159320Y395585D01*
X1159318Y395583D01*
X1159317Y395583D01*
X1156067Y392333D01*
X1156067Y392332D01*
X1156066Y392332D01*
X1156067Y392331D01*
X1156065Y392330D01*
X1156065Y376580D01*
X1156069Y376575D01*
X1156070Y376576D01*
X1156070Y376575D01*
X1170570Y376575D01*
X1170575Y376579D01*
G37*
G36*
X652415Y376579D02*
X652415Y376579D01*
X652414Y376580D01*
X652415Y376580D01*
X652415Y395580D01*
X652411Y395585D01*
X652410Y395584D01*
X652410Y395585D01*
X641160Y395585D01*
X641158Y395583D01*
X641157Y395583D01*
X637907Y392333D01*
X637907Y392332D01*
X637906Y392332D01*
X637907Y392331D01*
X637905Y392330D01*
X637905Y376580D01*
X637909Y376575D01*
X637910Y376576D01*
X637910Y376575D01*
X652410Y376575D01*
X652415Y376579D01*
G37*
G36*
X393335Y376579D02*
X393335Y376579D01*
X393334Y376580D01*
X393335Y376580D01*
X393335Y395580D01*
X393331Y395585D01*
X393330Y395584D01*
X393330Y395585D01*
X382080Y395585D01*
X382078Y395583D01*
X382077Y395583D01*
X378827Y392333D01*
X378827Y392332D01*
X378826Y392332D01*
X378827Y392331D01*
X378825Y392330D01*
X378825Y376580D01*
X378829Y376575D01*
X378830Y376576D01*
X378830Y376575D01*
X393330Y376575D01*
X393335Y376579D01*
G37*
G36*
X134255Y376579D02*
X134255Y376579D01*
X134254Y376580D01*
X134255Y376580D01*
X134255Y395580D01*
X134251Y395585D01*
X134250Y395584D01*
X134250Y395585D01*
X123000Y395585D01*
X122998Y395583D01*
X122997Y395583D01*
X119747Y392333D01*
X119747Y392332D01*
X119746Y392332D01*
X119747Y392331D01*
X119745Y392330D01*
X119745Y376580D01*
X119749Y376575D01*
X119750Y376576D01*
X119750Y376575D01*
X134250Y376575D01*
X134255Y376579D01*
G37*
G36*
X911495Y117499D02*
X911495Y117499D01*
X911494Y117500D01*
X911495Y117500D01*
X911495Y136500D01*
X911491Y136505D01*
X911490Y136504D01*
X911490Y136505D01*
X900240Y136505D01*
X900238Y136503D01*
X900237Y136503D01*
X896987Y133253D01*
X896987Y133252D01*
X896986Y133252D01*
X896987Y133251D01*
X896985Y133250D01*
X896985Y117500D01*
X896989Y117495D01*
X896990Y117496D01*
X896990Y117495D01*
X911490Y117495D01*
X911495Y117499D01*
G37*
G36*
X134255Y117499D02*
X134255Y117499D01*
X134254Y117500D01*
X134255Y117500D01*
X134255Y136500D01*
X134251Y136505D01*
X134250Y136504D01*
X134250Y136505D01*
X123000Y136505D01*
X122998Y136503D01*
X122997Y136503D01*
X119747Y133253D01*
X119747Y133252D01*
X119746Y133252D01*
X119747Y133251D01*
X119745Y133250D01*
X119745Y117500D01*
X119749Y117495D01*
X119750Y117496D01*
X119750Y117495D01*
X134250Y117495D01*
X134255Y117499D01*
G37*
G36*
X393335Y117499D02*
X393335Y117499D01*
X393334Y117500D01*
X393335Y117500D01*
X393335Y136500D01*
X393331Y136505D01*
X393330Y136504D01*
X393330Y136505D01*
X382080Y136505D01*
X382078Y136503D01*
X382077Y136503D01*
X378827Y133253D01*
X378827Y133252D01*
X378826Y133252D01*
X378827Y133251D01*
X378825Y133250D01*
X378825Y117500D01*
X378829Y117495D01*
X378830Y117496D01*
X378830Y117495D01*
X393330Y117495D01*
X393335Y117499D01*
G37*
G36*
X652415Y117499D02*
X652415Y117499D01*
X652414Y117500D01*
X652415Y117500D01*
X652415Y136500D01*
X652411Y136505D01*
X652410Y136504D01*
X652410Y136505D01*
X641160Y136505D01*
X641158Y136503D01*
X641157Y136503D01*
X637907Y133253D01*
X637907Y133252D01*
X637906Y133252D01*
X637907Y133251D01*
X637905Y133250D01*
X637905Y117500D01*
X637909Y117495D01*
X637910Y117496D01*
X637910Y117495D01*
X652410Y117495D01*
X652415Y117499D01*
G37*
G36*
X33085Y1577352D02*
X33085Y1577352D01*
X33151Y1577354D01*
X33194Y1577372D01*
X33241Y1577380D01*
X33298Y1577414D01*
X33358Y1577439D01*
X33393Y1577470D01*
X33434Y1577495D01*
X33476Y1577546D01*
X33524Y1577590D01*
X33546Y1577632D01*
X33575Y1577669D01*
X33596Y1577731D01*
X33627Y1577790D01*
X33635Y1577844D01*
X33647Y1577881D01*
X33646Y1577921D01*
X33654Y1577975D01*
X33654Y1581785D01*
X33643Y1581850D01*
X33641Y1581916D01*
X33623Y1581959D01*
X33615Y1582006D01*
X33581Y1582063D01*
X33556Y1582123D01*
X33525Y1582158D01*
X33500Y1582199D01*
X33449Y1582241D01*
X33405Y1582289D01*
X33363Y1582311D01*
X33326Y1582340D01*
X33264Y1582361D01*
X33205Y1582392D01*
X33151Y1582400D01*
X33114Y1582412D01*
X33074Y1582411D01*
X33020Y1582419D01*
X30480Y1582419D01*
X30415Y1582408D01*
X30349Y1582406D01*
X30306Y1582388D01*
X30259Y1582380D01*
X30202Y1582346D01*
X30142Y1582321D01*
X30107Y1582290D01*
X30066Y1582265D01*
X30025Y1582214D01*
X29976Y1582170D01*
X29954Y1582128D01*
X29925Y1582091D01*
X29904Y1582029D01*
X29873Y1581970D01*
X29865Y1581916D01*
X29853Y1581879D01*
X29853Y1581875D01*
X29853Y1581874D01*
X29854Y1581839D01*
X29846Y1581785D01*
X29846Y1577975D01*
X29857Y1577910D01*
X29859Y1577844D01*
X29877Y1577801D01*
X29885Y1577754D01*
X29919Y1577697D01*
X29944Y1577637D01*
X29975Y1577602D01*
X30000Y1577561D01*
X30051Y1577520D01*
X30095Y1577471D01*
X30137Y1577449D01*
X30174Y1577420D01*
X30236Y1577399D01*
X30295Y1577368D01*
X30349Y1577360D01*
X30386Y1577348D01*
X30426Y1577349D01*
X30480Y1577341D01*
X33020Y1577341D01*
X33085Y1577352D01*
G37*
G36*
X33085Y800112D02*
X33085Y800112D01*
X33151Y800114D01*
X33194Y800132D01*
X33241Y800140D01*
X33298Y800174D01*
X33358Y800199D01*
X33393Y800230D01*
X33434Y800255D01*
X33476Y800306D01*
X33524Y800350D01*
X33546Y800392D01*
X33575Y800429D01*
X33596Y800491D01*
X33627Y800550D01*
X33635Y800604D01*
X33647Y800641D01*
X33646Y800681D01*
X33654Y800735D01*
X33654Y804545D01*
X33643Y804610D01*
X33641Y804676D01*
X33623Y804719D01*
X33615Y804766D01*
X33581Y804823D01*
X33556Y804883D01*
X33525Y804918D01*
X33500Y804959D01*
X33449Y805001D01*
X33405Y805049D01*
X33363Y805071D01*
X33326Y805100D01*
X33264Y805121D01*
X33205Y805152D01*
X33151Y805160D01*
X33114Y805172D01*
X33074Y805171D01*
X33020Y805179D01*
X30480Y805179D01*
X30415Y805168D01*
X30349Y805166D01*
X30306Y805148D01*
X30259Y805140D01*
X30202Y805106D01*
X30142Y805081D01*
X30107Y805050D01*
X30066Y805025D01*
X30025Y804974D01*
X29976Y804930D01*
X29954Y804888D01*
X29925Y804851D01*
X29904Y804789D01*
X29873Y804730D01*
X29865Y804676D01*
X29853Y804639D01*
X29853Y804635D01*
X29853Y804634D01*
X29854Y804599D01*
X29846Y804545D01*
X29846Y800735D01*
X29857Y800670D01*
X29859Y800604D01*
X29877Y800561D01*
X29885Y800514D01*
X29919Y800457D01*
X29944Y800397D01*
X29975Y800362D01*
X30000Y800321D01*
X30051Y800280D01*
X30095Y800231D01*
X30137Y800209D01*
X30174Y800180D01*
X30236Y800159D01*
X30295Y800128D01*
X30349Y800120D01*
X30386Y800108D01*
X30426Y800109D01*
X30480Y800101D01*
X33020Y800101D01*
X33085Y800112D01*
G37*
G36*
X551245Y800112D02*
X551245Y800112D01*
X551311Y800114D01*
X551354Y800132D01*
X551401Y800140D01*
X551458Y800174D01*
X551518Y800199D01*
X551553Y800230D01*
X551594Y800255D01*
X551636Y800306D01*
X551684Y800350D01*
X551706Y800392D01*
X551735Y800429D01*
X551756Y800491D01*
X551787Y800550D01*
X551795Y800604D01*
X551807Y800641D01*
X551806Y800681D01*
X551814Y800735D01*
X551814Y804545D01*
X551803Y804610D01*
X551801Y804676D01*
X551783Y804719D01*
X551775Y804766D01*
X551741Y804823D01*
X551716Y804883D01*
X551685Y804918D01*
X551660Y804959D01*
X551609Y805001D01*
X551565Y805049D01*
X551523Y805071D01*
X551486Y805100D01*
X551424Y805121D01*
X551365Y805152D01*
X551311Y805160D01*
X551274Y805172D01*
X551234Y805171D01*
X551180Y805179D01*
X548640Y805179D01*
X548575Y805168D01*
X548509Y805166D01*
X548466Y805148D01*
X548419Y805140D01*
X548362Y805106D01*
X548302Y805081D01*
X548267Y805050D01*
X548226Y805025D01*
X548185Y804974D01*
X548136Y804930D01*
X548114Y804888D01*
X548085Y804851D01*
X548064Y804789D01*
X548033Y804730D01*
X548025Y804676D01*
X548013Y804639D01*
X548013Y804635D01*
X548013Y804634D01*
X548014Y804599D01*
X548006Y804545D01*
X548006Y800735D01*
X548017Y800670D01*
X548019Y800604D01*
X548037Y800561D01*
X548045Y800514D01*
X548079Y800457D01*
X548104Y800397D01*
X548135Y800362D01*
X548160Y800321D01*
X548211Y800280D01*
X548255Y800231D01*
X548297Y800209D01*
X548334Y800180D01*
X548396Y800159D01*
X548455Y800128D01*
X548509Y800120D01*
X548546Y800108D01*
X548586Y800109D01*
X548640Y800101D01*
X551180Y800101D01*
X551245Y800112D01*
G37*
G36*
X1069405Y800112D02*
X1069405Y800112D01*
X1069471Y800114D01*
X1069514Y800132D01*
X1069561Y800140D01*
X1069618Y800174D01*
X1069678Y800199D01*
X1069713Y800230D01*
X1069754Y800255D01*
X1069796Y800306D01*
X1069844Y800350D01*
X1069866Y800392D01*
X1069895Y800429D01*
X1069916Y800491D01*
X1069947Y800550D01*
X1069955Y800604D01*
X1069967Y800641D01*
X1069966Y800681D01*
X1069974Y800735D01*
X1069974Y804545D01*
X1069963Y804610D01*
X1069961Y804676D01*
X1069943Y804719D01*
X1069935Y804766D01*
X1069901Y804823D01*
X1069876Y804883D01*
X1069845Y804918D01*
X1069820Y804959D01*
X1069769Y805001D01*
X1069725Y805049D01*
X1069683Y805071D01*
X1069646Y805100D01*
X1069584Y805121D01*
X1069525Y805152D01*
X1069471Y805160D01*
X1069434Y805172D01*
X1069394Y805171D01*
X1069340Y805179D01*
X1066800Y805179D01*
X1066735Y805168D01*
X1066669Y805166D01*
X1066626Y805148D01*
X1066579Y805140D01*
X1066522Y805106D01*
X1066462Y805081D01*
X1066427Y805050D01*
X1066386Y805025D01*
X1066345Y804974D01*
X1066296Y804930D01*
X1066274Y804888D01*
X1066245Y804851D01*
X1066224Y804789D01*
X1066193Y804730D01*
X1066185Y804676D01*
X1066173Y804639D01*
X1066173Y804635D01*
X1066173Y804634D01*
X1066174Y804599D01*
X1066166Y804545D01*
X1066166Y800735D01*
X1066177Y800670D01*
X1066179Y800604D01*
X1066197Y800561D01*
X1066205Y800514D01*
X1066239Y800457D01*
X1066264Y800397D01*
X1066295Y800362D01*
X1066320Y800321D01*
X1066371Y800280D01*
X1066415Y800231D01*
X1066457Y800209D01*
X1066494Y800180D01*
X1066556Y800159D01*
X1066615Y800128D01*
X1066669Y800120D01*
X1066706Y800108D01*
X1066746Y800109D01*
X1066800Y800101D01*
X1069340Y800101D01*
X1069405Y800112D01*
G37*
G36*
X810325Y800112D02*
X810325Y800112D01*
X810391Y800114D01*
X810434Y800132D01*
X810481Y800140D01*
X810538Y800174D01*
X810598Y800199D01*
X810633Y800230D01*
X810674Y800255D01*
X810716Y800306D01*
X810764Y800350D01*
X810786Y800392D01*
X810815Y800429D01*
X810836Y800491D01*
X810867Y800550D01*
X810875Y800604D01*
X810887Y800641D01*
X810886Y800681D01*
X810894Y800735D01*
X810894Y804545D01*
X810883Y804610D01*
X810881Y804676D01*
X810863Y804719D01*
X810855Y804766D01*
X810821Y804823D01*
X810796Y804883D01*
X810765Y804918D01*
X810740Y804959D01*
X810689Y805001D01*
X810645Y805049D01*
X810603Y805071D01*
X810566Y805100D01*
X810504Y805121D01*
X810445Y805152D01*
X810391Y805160D01*
X810354Y805172D01*
X810314Y805171D01*
X810260Y805179D01*
X807720Y805179D01*
X807655Y805168D01*
X807589Y805166D01*
X807546Y805148D01*
X807499Y805140D01*
X807442Y805106D01*
X807382Y805081D01*
X807347Y805050D01*
X807306Y805025D01*
X807265Y804974D01*
X807216Y804930D01*
X807194Y804888D01*
X807165Y804851D01*
X807144Y804789D01*
X807113Y804730D01*
X807105Y804676D01*
X807093Y804639D01*
X807093Y804635D01*
X807093Y804634D01*
X807094Y804599D01*
X807086Y804545D01*
X807086Y800735D01*
X807097Y800670D01*
X807099Y800604D01*
X807117Y800561D01*
X807125Y800514D01*
X807159Y800457D01*
X807184Y800397D01*
X807215Y800362D01*
X807240Y800321D01*
X807291Y800280D01*
X807335Y800231D01*
X807377Y800209D01*
X807414Y800180D01*
X807476Y800159D01*
X807535Y800128D01*
X807589Y800120D01*
X807626Y800108D01*
X807666Y800109D01*
X807720Y800101D01*
X810260Y800101D01*
X810325Y800112D01*
G37*
G36*
X551245Y1577352D02*
X551245Y1577352D01*
X551311Y1577354D01*
X551354Y1577372D01*
X551401Y1577380D01*
X551458Y1577414D01*
X551518Y1577439D01*
X551553Y1577470D01*
X551594Y1577495D01*
X551636Y1577546D01*
X551684Y1577590D01*
X551706Y1577632D01*
X551735Y1577669D01*
X551756Y1577731D01*
X551787Y1577790D01*
X551795Y1577844D01*
X551807Y1577881D01*
X551806Y1577921D01*
X551814Y1577975D01*
X551814Y1581785D01*
X551803Y1581850D01*
X551801Y1581916D01*
X551783Y1581959D01*
X551775Y1582006D01*
X551741Y1582063D01*
X551716Y1582123D01*
X551685Y1582158D01*
X551660Y1582199D01*
X551609Y1582241D01*
X551565Y1582289D01*
X551523Y1582311D01*
X551486Y1582340D01*
X551424Y1582361D01*
X551365Y1582392D01*
X551311Y1582400D01*
X551274Y1582412D01*
X551234Y1582411D01*
X551180Y1582419D01*
X548640Y1582419D01*
X548575Y1582408D01*
X548509Y1582406D01*
X548466Y1582388D01*
X548419Y1582380D01*
X548362Y1582346D01*
X548302Y1582321D01*
X548267Y1582290D01*
X548226Y1582265D01*
X548185Y1582214D01*
X548136Y1582170D01*
X548114Y1582128D01*
X548085Y1582091D01*
X548064Y1582029D01*
X548033Y1581970D01*
X548025Y1581916D01*
X548013Y1581879D01*
X548013Y1581875D01*
X548013Y1581874D01*
X548014Y1581839D01*
X548006Y1581785D01*
X548006Y1577975D01*
X548017Y1577910D01*
X548019Y1577844D01*
X548037Y1577801D01*
X548045Y1577754D01*
X548079Y1577697D01*
X548104Y1577637D01*
X548135Y1577602D01*
X548160Y1577561D01*
X548211Y1577520D01*
X548255Y1577471D01*
X548297Y1577449D01*
X548334Y1577420D01*
X548396Y1577399D01*
X548455Y1577368D01*
X548509Y1577360D01*
X548546Y1577348D01*
X548586Y1577349D01*
X548640Y1577341D01*
X551180Y1577341D01*
X551245Y1577352D01*
G37*
G36*
X1069405Y1577352D02*
X1069405Y1577352D01*
X1069471Y1577354D01*
X1069514Y1577372D01*
X1069561Y1577380D01*
X1069618Y1577414D01*
X1069678Y1577439D01*
X1069713Y1577470D01*
X1069754Y1577495D01*
X1069796Y1577546D01*
X1069844Y1577590D01*
X1069866Y1577632D01*
X1069895Y1577669D01*
X1069916Y1577731D01*
X1069947Y1577790D01*
X1069955Y1577844D01*
X1069967Y1577881D01*
X1069966Y1577921D01*
X1069974Y1577975D01*
X1069974Y1581785D01*
X1069963Y1581850D01*
X1069961Y1581916D01*
X1069943Y1581959D01*
X1069935Y1582006D01*
X1069901Y1582063D01*
X1069876Y1582123D01*
X1069845Y1582158D01*
X1069820Y1582199D01*
X1069769Y1582241D01*
X1069725Y1582289D01*
X1069683Y1582311D01*
X1069646Y1582340D01*
X1069584Y1582361D01*
X1069525Y1582392D01*
X1069471Y1582400D01*
X1069434Y1582412D01*
X1069394Y1582411D01*
X1069340Y1582419D01*
X1066800Y1582419D01*
X1066735Y1582408D01*
X1066669Y1582406D01*
X1066626Y1582388D01*
X1066579Y1582380D01*
X1066522Y1582346D01*
X1066462Y1582321D01*
X1066427Y1582290D01*
X1066386Y1582265D01*
X1066345Y1582214D01*
X1066296Y1582170D01*
X1066274Y1582128D01*
X1066245Y1582091D01*
X1066224Y1582029D01*
X1066193Y1581970D01*
X1066185Y1581916D01*
X1066173Y1581879D01*
X1066173Y1581875D01*
X1066173Y1581874D01*
X1066174Y1581839D01*
X1066166Y1581785D01*
X1066166Y1577975D01*
X1066177Y1577910D01*
X1066179Y1577844D01*
X1066197Y1577801D01*
X1066205Y1577754D01*
X1066239Y1577697D01*
X1066264Y1577637D01*
X1066295Y1577602D01*
X1066320Y1577561D01*
X1066371Y1577520D01*
X1066415Y1577471D01*
X1066457Y1577449D01*
X1066494Y1577420D01*
X1066556Y1577399D01*
X1066615Y1577368D01*
X1066669Y1577360D01*
X1066706Y1577348D01*
X1066746Y1577349D01*
X1066800Y1577341D01*
X1069340Y1577341D01*
X1069405Y1577352D01*
G37*
G36*
X292165Y1577352D02*
X292165Y1577352D01*
X292231Y1577354D01*
X292274Y1577372D01*
X292321Y1577380D01*
X292378Y1577414D01*
X292438Y1577439D01*
X292473Y1577470D01*
X292514Y1577495D01*
X292556Y1577546D01*
X292604Y1577590D01*
X292626Y1577632D01*
X292655Y1577669D01*
X292676Y1577731D01*
X292707Y1577790D01*
X292715Y1577844D01*
X292727Y1577881D01*
X292726Y1577921D01*
X292734Y1577975D01*
X292734Y1581785D01*
X292723Y1581850D01*
X292721Y1581916D01*
X292703Y1581959D01*
X292695Y1582006D01*
X292661Y1582063D01*
X292636Y1582123D01*
X292605Y1582158D01*
X292580Y1582199D01*
X292529Y1582241D01*
X292485Y1582289D01*
X292443Y1582311D01*
X292406Y1582340D01*
X292344Y1582361D01*
X292285Y1582392D01*
X292231Y1582400D01*
X292194Y1582412D01*
X292154Y1582411D01*
X292100Y1582419D01*
X289560Y1582419D01*
X289495Y1582408D01*
X289429Y1582406D01*
X289386Y1582388D01*
X289339Y1582380D01*
X289282Y1582346D01*
X289222Y1582321D01*
X289187Y1582290D01*
X289146Y1582265D01*
X289105Y1582214D01*
X289056Y1582170D01*
X289034Y1582128D01*
X289005Y1582091D01*
X288984Y1582029D01*
X288953Y1581970D01*
X288945Y1581916D01*
X288933Y1581879D01*
X288933Y1581875D01*
X288933Y1581874D01*
X288934Y1581839D01*
X288926Y1581785D01*
X288926Y1577975D01*
X288937Y1577910D01*
X288939Y1577844D01*
X288957Y1577801D01*
X288965Y1577754D01*
X288999Y1577697D01*
X289024Y1577637D01*
X289055Y1577602D01*
X289080Y1577561D01*
X289131Y1577520D01*
X289175Y1577471D01*
X289217Y1577449D01*
X289254Y1577420D01*
X289316Y1577399D01*
X289375Y1577368D01*
X289429Y1577360D01*
X289466Y1577348D01*
X289506Y1577349D01*
X289560Y1577341D01*
X292100Y1577341D01*
X292165Y1577352D01*
G37*
G36*
X292165Y800112D02*
X292165Y800112D01*
X292231Y800114D01*
X292274Y800132D01*
X292321Y800140D01*
X292378Y800174D01*
X292438Y800199D01*
X292473Y800230D01*
X292514Y800255D01*
X292556Y800306D01*
X292604Y800350D01*
X292626Y800392D01*
X292655Y800429D01*
X292676Y800491D01*
X292707Y800550D01*
X292715Y800604D01*
X292727Y800641D01*
X292726Y800681D01*
X292734Y800735D01*
X292734Y804545D01*
X292723Y804610D01*
X292721Y804676D01*
X292703Y804719D01*
X292695Y804766D01*
X292661Y804823D01*
X292636Y804883D01*
X292605Y804918D01*
X292580Y804959D01*
X292529Y805001D01*
X292485Y805049D01*
X292443Y805071D01*
X292406Y805100D01*
X292344Y805121D01*
X292285Y805152D01*
X292231Y805160D01*
X292194Y805172D01*
X292154Y805171D01*
X292100Y805179D01*
X289560Y805179D01*
X289495Y805168D01*
X289429Y805166D01*
X289386Y805148D01*
X289339Y805140D01*
X289282Y805106D01*
X289222Y805081D01*
X289187Y805050D01*
X289146Y805025D01*
X289105Y804974D01*
X289056Y804930D01*
X289034Y804888D01*
X289005Y804851D01*
X288984Y804789D01*
X288953Y804730D01*
X288945Y804676D01*
X288933Y804639D01*
X288933Y804635D01*
X288933Y804634D01*
X288934Y804599D01*
X288926Y804545D01*
X288926Y800735D01*
X288937Y800670D01*
X288939Y800604D01*
X288957Y800561D01*
X288965Y800514D01*
X288999Y800457D01*
X289024Y800397D01*
X289055Y800362D01*
X289080Y800321D01*
X289131Y800280D01*
X289175Y800231D01*
X289217Y800209D01*
X289254Y800180D01*
X289316Y800159D01*
X289375Y800128D01*
X289429Y800120D01*
X289466Y800108D01*
X289506Y800109D01*
X289560Y800101D01*
X292100Y800101D01*
X292165Y800112D01*
G37*
G36*
X810325Y1577352D02*
X810325Y1577352D01*
X810391Y1577354D01*
X810434Y1577372D01*
X810481Y1577380D01*
X810538Y1577414D01*
X810598Y1577439D01*
X810633Y1577470D01*
X810674Y1577495D01*
X810716Y1577546D01*
X810764Y1577590D01*
X810786Y1577632D01*
X810815Y1577669D01*
X810836Y1577731D01*
X810867Y1577790D01*
X810875Y1577844D01*
X810887Y1577881D01*
X810886Y1577921D01*
X810894Y1577975D01*
X810894Y1581785D01*
X810883Y1581850D01*
X810881Y1581916D01*
X810863Y1581959D01*
X810855Y1582006D01*
X810821Y1582063D01*
X810796Y1582123D01*
X810765Y1582158D01*
X810740Y1582199D01*
X810689Y1582241D01*
X810645Y1582289D01*
X810603Y1582311D01*
X810566Y1582340D01*
X810504Y1582361D01*
X810445Y1582392D01*
X810391Y1582400D01*
X810354Y1582412D01*
X810314Y1582411D01*
X810260Y1582419D01*
X807720Y1582419D01*
X807655Y1582408D01*
X807589Y1582406D01*
X807546Y1582388D01*
X807499Y1582380D01*
X807442Y1582346D01*
X807382Y1582321D01*
X807347Y1582290D01*
X807306Y1582265D01*
X807265Y1582214D01*
X807216Y1582170D01*
X807194Y1582128D01*
X807165Y1582091D01*
X807144Y1582029D01*
X807113Y1581970D01*
X807105Y1581916D01*
X807093Y1581879D01*
X807093Y1581875D01*
X807093Y1581874D01*
X807094Y1581839D01*
X807086Y1581785D01*
X807086Y1577975D01*
X807097Y1577910D01*
X807099Y1577844D01*
X807117Y1577801D01*
X807125Y1577754D01*
X807159Y1577697D01*
X807184Y1577637D01*
X807215Y1577602D01*
X807240Y1577561D01*
X807291Y1577520D01*
X807335Y1577471D01*
X807377Y1577449D01*
X807414Y1577420D01*
X807476Y1577399D01*
X807535Y1577368D01*
X807589Y1577360D01*
X807626Y1577348D01*
X807666Y1577349D01*
X807720Y1577341D01*
X810260Y1577341D01*
X810325Y1577352D01*
G37*
G36*
X292165Y541032D02*
X292165Y541032D01*
X292231Y541034D01*
X292274Y541052D01*
X292321Y541060D01*
X292378Y541094D01*
X292438Y541119D01*
X292473Y541150D01*
X292514Y541175D01*
X292556Y541226D01*
X292604Y541270D01*
X292626Y541312D01*
X292655Y541349D01*
X292676Y541411D01*
X292707Y541470D01*
X292715Y541524D01*
X292727Y541561D01*
X292726Y541601D01*
X292734Y541655D01*
X292734Y545465D01*
X292723Y545530D01*
X292721Y545596D01*
X292703Y545639D01*
X292695Y545686D01*
X292661Y545743D01*
X292636Y545803D01*
X292605Y545838D01*
X292580Y545879D01*
X292529Y545921D01*
X292485Y545969D01*
X292443Y545991D01*
X292406Y546020D01*
X292344Y546041D01*
X292285Y546072D01*
X292231Y546080D01*
X292194Y546092D01*
X292154Y546091D01*
X292100Y546099D01*
X289560Y546099D01*
X289495Y546088D01*
X289429Y546086D01*
X289386Y546068D01*
X289339Y546060D01*
X289282Y546026D01*
X289222Y546001D01*
X289187Y545970D01*
X289146Y545945D01*
X289105Y545894D01*
X289056Y545850D01*
X289034Y545808D01*
X289005Y545771D01*
X288984Y545709D01*
X288953Y545650D01*
X288945Y545596D01*
X288933Y545559D01*
X288933Y545555D01*
X288933Y545554D01*
X288934Y545519D01*
X288926Y545465D01*
X288926Y541655D01*
X288937Y541590D01*
X288939Y541524D01*
X288957Y541481D01*
X288965Y541434D01*
X288999Y541377D01*
X289024Y541317D01*
X289055Y541282D01*
X289080Y541241D01*
X289131Y541200D01*
X289175Y541151D01*
X289217Y541129D01*
X289254Y541100D01*
X289316Y541079D01*
X289375Y541048D01*
X289429Y541040D01*
X289466Y541028D01*
X289506Y541029D01*
X289560Y541021D01*
X292100Y541021D01*
X292165Y541032D01*
G37*
G36*
X551245Y541032D02*
X551245Y541032D01*
X551311Y541034D01*
X551354Y541052D01*
X551401Y541060D01*
X551458Y541094D01*
X551518Y541119D01*
X551553Y541150D01*
X551594Y541175D01*
X551636Y541226D01*
X551684Y541270D01*
X551706Y541312D01*
X551735Y541349D01*
X551756Y541411D01*
X551787Y541470D01*
X551795Y541524D01*
X551807Y541561D01*
X551806Y541601D01*
X551814Y541655D01*
X551814Y545465D01*
X551803Y545530D01*
X551801Y545596D01*
X551783Y545639D01*
X551775Y545686D01*
X551741Y545743D01*
X551716Y545803D01*
X551685Y545838D01*
X551660Y545879D01*
X551609Y545921D01*
X551565Y545969D01*
X551523Y545991D01*
X551486Y546020D01*
X551424Y546041D01*
X551365Y546072D01*
X551311Y546080D01*
X551274Y546092D01*
X551234Y546091D01*
X551180Y546099D01*
X548640Y546099D01*
X548575Y546088D01*
X548509Y546086D01*
X548466Y546068D01*
X548419Y546060D01*
X548362Y546026D01*
X548302Y546001D01*
X548267Y545970D01*
X548226Y545945D01*
X548185Y545894D01*
X548136Y545850D01*
X548114Y545808D01*
X548085Y545771D01*
X548064Y545709D01*
X548033Y545650D01*
X548025Y545596D01*
X548013Y545559D01*
X548013Y545555D01*
X548013Y545554D01*
X548014Y545519D01*
X548006Y545465D01*
X548006Y541655D01*
X548017Y541590D01*
X548019Y541524D01*
X548037Y541481D01*
X548045Y541434D01*
X548079Y541377D01*
X548104Y541317D01*
X548135Y541282D01*
X548160Y541241D01*
X548211Y541200D01*
X548255Y541151D01*
X548297Y541129D01*
X548334Y541100D01*
X548396Y541079D01*
X548455Y541048D01*
X548509Y541040D01*
X548546Y541028D01*
X548586Y541029D01*
X548640Y541021D01*
X551180Y541021D01*
X551245Y541032D01*
G37*
G36*
X33085Y541032D02*
X33085Y541032D01*
X33151Y541034D01*
X33194Y541052D01*
X33241Y541060D01*
X33298Y541094D01*
X33358Y541119D01*
X33393Y541150D01*
X33434Y541175D01*
X33476Y541226D01*
X33524Y541270D01*
X33546Y541312D01*
X33575Y541349D01*
X33596Y541411D01*
X33627Y541470D01*
X33635Y541524D01*
X33647Y541561D01*
X33646Y541601D01*
X33654Y541655D01*
X33654Y545465D01*
X33643Y545530D01*
X33641Y545596D01*
X33623Y545639D01*
X33615Y545686D01*
X33581Y545743D01*
X33556Y545803D01*
X33525Y545838D01*
X33500Y545879D01*
X33449Y545921D01*
X33405Y545969D01*
X33363Y545991D01*
X33326Y546020D01*
X33264Y546041D01*
X33205Y546072D01*
X33151Y546080D01*
X33114Y546092D01*
X33074Y546091D01*
X33020Y546099D01*
X30480Y546099D01*
X30415Y546088D01*
X30349Y546086D01*
X30306Y546068D01*
X30259Y546060D01*
X30202Y546026D01*
X30142Y546001D01*
X30107Y545970D01*
X30066Y545945D01*
X30025Y545894D01*
X29976Y545850D01*
X29954Y545808D01*
X29925Y545771D01*
X29904Y545709D01*
X29873Y545650D01*
X29865Y545596D01*
X29853Y545559D01*
X29853Y545555D01*
X29853Y545554D01*
X29854Y545519D01*
X29846Y545465D01*
X29846Y541655D01*
X29857Y541590D01*
X29859Y541524D01*
X29877Y541481D01*
X29885Y541434D01*
X29919Y541377D01*
X29944Y541317D01*
X29975Y541282D01*
X30000Y541241D01*
X30051Y541200D01*
X30095Y541151D01*
X30137Y541129D01*
X30174Y541100D01*
X30236Y541079D01*
X30295Y541048D01*
X30349Y541040D01*
X30386Y541028D01*
X30426Y541029D01*
X30480Y541021D01*
X33020Y541021D01*
X33085Y541032D01*
G37*
G36*
X810325Y541032D02*
X810325Y541032D01*
X810391Y541034D01*
X810434Y541052D01*
X810481Y541060D01*
X810538Y541094D01*
X810598Y541119D01*
X810633Y541150D01*
X810674Y541175D01*
X810716Y541226D01*
X810764Y541270D01*
X810786Y541312D01*
X810815Y541349D01*
X810836Y541411D01*
X810867Y541470D01*
X810875Y541524D01*
X810887Y541561D01*
X810886Y541601D01*
X810894Y541655D01*
X810894Y545465D01*
X810883Y545530D01*
X810881Y545596D01*
X810863Y545639D01*
X810855Y545686D01*
X810821Y545743D01*
X810796Y545803D01*
X810765Y545838D01*
X810740Y545879D01*
X810689Y545921D01*
X810645Y545969D01*
X810603Y545991D01*
X810566Y546020D01*
X810504Y546041D01*
X810445Y546072D01*
X810391Y546080D01*
X810354Y546092D01*
X810314Y546091D01*
X810260Y546099D01*
X807720Y546099D01*
X807655Y546088D01*
X807589Y546086D01*
X807546Y546068D01*
X807499Y546060D01*
X807442Y546026D01*
X807382Y546001D01*
X807347Y545970D01*
X807306Y545945D01*
X807265Y545894D01*
X807216Y545850D01*
X807194Y545808D01*
X807165Y545771D01*
X807144Y545709D01*
X807113Y545650D01*
X807105Y545596D01*
X807093Y545559D01*
X807093Y545555D01*
X807093Y545554D01*
X807094Y545519D01*
X807086Y545465D01*
X807086Y541655D01*
X807097Y541590D01*
X807099Y541524D01*
X807117Y541481D01*
X807125Y541434D01*
X807159Y541377D01*
X807184Y541317D01*
X807215Y541282D01*
X807240Y541241D01*
X807291Y541200D01*
X807335Y541151D01*
X807377Y541129D01*
X807414Y541100D01*
X807476Y541079D01*
X807535Y541048D01*
X807589Y541040D01*
X807626Y541028D01*
X807666Y541029D01*
X807720Y541021D01*
X810260Y541021D01*
X810325Y541032D01*
G37*
G36*
X1069405Y541032D02*
X1069405Y541032D01*
X1069471Y541034D01*
X1069514Y541052D01*
X1069561Y541060D01*
X1069618Y541094D01*
X1069678Y541119D01*
X1069713Y541150D01*
X1069754Y541175D01*
X1069796Y541226D01*
X1069844Y541270D01*
X1069866Y541312D01*
X1069895Y541349D01*
X1069916Y541411D01*
X1069947Y541470D01*
X1069955Y541524D01*
X1069967Y541561D01*
X1069966Y541601D01*
X1069974Y541655D01*
X1069974Y545465D01*
X1069963Y545530D01*
X1069961Y545596D01*
X1069943Y545639D01*
X1069935Y545686D01*
X1069901Y545743D01*
X1069876Y545803D01*
X1069845Y545838D01*
X1069820Y545879D01*
X1069769Y545921D01*
X1069725Y545969D01*
X1069683Y545991D01*
X1069646Y546020D01*
X1069584Y546041D01*
X1069525Y546072D01*
X1069471Y546080D01*
X1069434Y546092D01*
X1069394Y546091D01*
X1069340Y546099D01*
X1066800Y546099D01*
X1066735Y546088D01*
X1066669Y546086D01*
X1066626Y546068D01*
X1066579Y546060D01*
X1066522Y546026D01*
X1066462Y546001D01*
X1066427Y545970D01*
X1066386Y545945D01*
X1066345Y545894D01*
X1066296Y545850D01*
X1066274Y545808D01*
X1066245Y545771D01*
X1066224Y545709D01*
X1066193Y545650D01*
X1066185Y545596D01*
X1066173Y545559D01*
X1066173Y545555D01*
X1066173Y545554D01*
X1066174Y545519D01*
X1066166Y545465D01*
X1066166Y541655D01*
X1066177Y541590D01*
X1066179Y541524D01*
X1066197Y541481D01*
X1066205Y541434D01*
X1066239Y541377D01*
X1066264Y541317D01*
X1066295Y541282D01*
X1066320Y541241D01*
X1066371Y541200D01*
X1066415Y541151D01*
X1066457Y541129D01*
X1066494Y541100D01*
X1066556Y541079D01*
X1066615Y541048D01*
X1066669Y541040D01*
X1066706Y541028D01*
X1066746Y541029D01*
X1066800Y541021D01*
X1069340Y541021D01*
X1069405Y541032D01*
G37*
G36*
X1069405Y1318272D02*
X1069405Y1318272D01*
X1069471Y1318274D01*
X1069514Y1318292D01*
X1069561Y1318300D01*
X1069618Y1318334D01*
X1069678Y1318359D01*
X1069713Y1318390D01*
X1069754Y1318415D01*
X1069796Y1318466D01*
X1069844Y1318510D01*
X1069866Y1318552D01*
X1069895Y1318589D01*
X1069916Y1318651D01*
X1069947Y1318710D01*
X1069955Y1318764D01*
X1069967Y1318801D01*
X1069966Y1318841D01*
X1069974Y1318895D01*
X1069974Y1322705D01*
X1069963Y1322770D01*
X1069961Y1322836D01*
X1069943Y1322879D01*
X1069935Y1322926D01*
X1069901Y1322983D01*
X1069876Y1323043D01*
X1069845Y1323078D01*
X1069820Y1323119D01*
X1069769Y1323161D01*
X1069725Y1323209D01*
X1069683Y1323231D01*
X1069646Y1323260D01*
X1069584Y1323281D01*
X1069525Y1323312D01*
X1069471Y1323320D01*
X1069434Y1323332D01*
X1069394Y1323331D01*
X1069340Y1323339D01*
X1066800Y1323339D01*
X1066735Y1323328D01*
X1066669Y1323326D01*
X1066626Y1323308D01*
X1066579Y1323300D01*
X1066522Y1323266D01*
X1066462Y1323241D01*
X1066427Y1323210D01*
X1066386Y1323185D01*
X1066345Y1323134D01*
X1066296Y1323090D01*
X1066274Y1323048D01*
X1066245Y1323011D01*
X1066224Y1322949D01*
X1066193Y1322890D01*
X1066185Y1322836D01*
X1066173Y1322799D01*
X1066173Y1322795D01*
X1066173Y1322794D01*
X1066174Y1322759D01*
X1066166Y1322705D01*
X1066166Y1318895D01*
X1066177Y1318830D01*
X1066179Y1318764D01*
X1066197Y1318721D01*
X1066205Y1318674D01*
X1066239Y1318617D01*
X1066264Y1318557D01*
X1066295Y1318522D01*
X1066320Y1318481D01*
X1066371Y1318440D01*
X1066415Y1318391D01*
X1066457Y1318369D01*
X1066494Y1318340D01*
X1066556Y1318319D01*
X1066615Y1318288D01*
X1066669Y1318280D01*
X1066706Y1318268D01*
X1066746Y1318269D01*
X1066800Y1318261D01*
X1069340Y1318261D01*
X1069405Y1318272D01*
G37*
G36*
X33085Y1318272D02*
X33085Y1318272D01*
X33151Y1318274D01*
X33194Y1318292D01*
X33241Y1318300D01*
X33298Y1318334D01*
X33358Y1318359D01*
X33393Y1318390D01*
X33434Y1318415D01*
X33476Y1318466D01*
X33524Y1318510D01*
X33546Y1318552D01*
X33575Y1318589D01*
X33596Y1318651D01*
X33627Y1318710D01*
X33635Y1318764D01*
X33647Y1318801D01*
X33646Y1318841D01*
X33654Y1318895D01*
X33654Y1322705D01*
X33643Y1322770D01*
X33641Y1322836D01*
X33623Y1322879D01*
X33615Y1322926D01*
X33581Y1322983D01*
X33556Y1323043D01*
X33525Y1323078D01*
X33500Y1323119D01*
X33449Y1323161D01*
X33405Y1323209D01*
X33363Y1323231D01*
X33326Y1323260D01*
X33264Y1323281D01*
X33205Y1323312D01*
X33151Y1323320D01*
X33114Y1323332D01*
X33074Y1323331D01*
X33020Y1323339D01*
X30480Y1323339D01*
X30415Y1323328D01*
X30349Y1323326D01*
X30306Y1323308D01*
X30259Y1323300D01*
X30202Y1323266D01*
X30142Y1323241D01*
X30107Y1323210D01*
X30066Y1323185D01*
X30025Y1323134D01*
X29976Y1323090D01*
X29954Y1323048D01*
X29925Y1323011D01*
X29904Y1322949D01*
X29873Y1322890D01*
X29865Y1322836D01*
X29853Y1322799D01*
X29853Y1322795D01*
X29853Y1322794D01*
X29854Y1322759D01*
X29846Y1322705D01*
X29846Y1318895D01*
X29857Y1318830D01*
X29859Y1318764D01*
X29877Y1318721D01*
X29885Y1318674D01*
X29919Y1318617D01*
X29944Y1318557D01*
X29975Y1318522D01*
X30000Y1318481D01*
X30051Y1318440D01*
X30095Y1318391D01*
X30137Y1318369D01*
X30174Y1318340D01*
X30236Y1318319D01*
X30295Y1318288D01*
X30349Y1318280D01*
X30386Y1318268D01*
X30426Y1318269D01*
X30480Y1318261D01*
X33020Y1318261D01*
X33085Y1318272D01*
G37*
G36*
X292165Y1318272D02*
X292165Y1318272D01*
X292231Y1318274D01*
X292274Y1318292D01*
X292321Y1318300D01*
X292378Y1318334D01*
X292438Y1318359D01*
X292473Y1318390D01*
X292514Y1318415D01*
X292556Y1318466D01*
X292604Y1318510D01*
X292626Y1318552D01*
X292655Y1318589D01*
X292676Y1318651D01*
X292707Y1318710D01*
X292715Y1318764D01*
X292727Y1318801D01*
X292726Y1318841D01*
X292734Y1318895D01*
X292734Y1322705D01*
X292723Y1322770D01*
X292721Y1322836D01*
X292703Y1322879D01*
X292695Y1322926D01*
X292661Y1322983D01*
X292636Y1323043D01*
X292605Y1323078D01*
X292580Y1323119D01*
X292529Y1323161D01*
X292485Y1323209D01*
X292443Y1323231D01*
X292406Y1323260D01*
X292344Y1323281D01*
X292285Y1323312D01*
X292231Y1323320D01*
X292194Y1323332D01*
X292154Y1323331D01*
X292100Y1323339D01*
X289560Y1323339D01*
X289495Y1323328D01*
X289429Y1323326D01*
X289386Y1323308D01*
X289339Y1323300D01*
X289282Y1323266D01*
X289222Y1323241D01*
X289187Y1323210D01*
X289146Y1323185D01*
X289105Y1323134D01*
X289056Y1323090D01*
X289034Y1323048D01*
X289005Y1323011D01*
X288984Y1322949D01*
X288953Y1322890D01*
X288945Y1322836D01*
X288933Y1322799D01*
X288933Y1322795D01*
X288933Y1322794D01*
X288934Y1322759D01*
X288926Y1322705D01*
X288926Y1318895D01*
X288937Y1318830D01*
X288939Y1318764D01*
X288957Y1318721D01*
X288965Y1318674D01*
X288999Y1318617D01*
X289024Y1318557D01*
X289055Y1318522D01*
X289080Y1318481D01*
X289131Y1318440D01*
X289175Y1318391D01*
X289217Y1318369D01*
X289254Y1318340D01*
X289316Y1318319D01*
X289375Y1318288D01*
X289429Y1318280D01*
X289466Y1318268D01*
X289506Y1318269D01*
X289560Y1318261D01*
X292100Y1318261D01*
X292165Y1318272D01*
G37*
G36*
X810325Y1318272D02*
X810325Y1318272D01*
X810391Y1318274D01*
X810434Y1318292D01*
X810481Y1318300D01*
X810538Y1318334D01*
X810598Y1318359D01*
X810633Y1318390D01*
X810674Y1318415D01*
X810716Y1318466D01*
X810764Y1318510D01*
X810786Y1318552D01*
X810815Y1318589D01*
X810836Y1318651D01*
X810867Y1318710D01*
X810875Y1318764D01*
X810887Y1318801D01*
X810886Y1318841D01*
X810894Y1318895D01*
X810894Y1322705D01*
X810883Y1322770D01*
X810881Y1322836D01*
X810863Y1322879D01*
X810855Y1322926D01*
X810821Y1322983D01*
X810796Y1323043D01*
X810765Y1323078D01*
X810740Y1323119D01*
X810689Y1323161D01*
X810645Y1323209D01*
X810603Y1323231D01*
X810566Y1323260D01*
X810504Y1323281D01*
X810445Y1323312D01*
X810391Y1323320D01*
X810354Y1323332D01*
X810314Y1323331D01*
X810260Y1323339D01*
X807720Y1323339D01*
X807655Y1323328D01*
X807589Y1323326D01*
X807546Y1323308D01*
X807499Y1323300D01*
X807442Y1323266D01*
X807382Y1323241D01*
X807347Y1323210D01*
X807306Y1323185D01*
X807265Y1323134D01*
X807216Y1323090D01*
X807194Y1323048D01*
X807165Y1323011D01*
X807144Y1322949D01*
X807113Y1322890D01*
X807105Y1322836D01*
X807093Y1322799D01*
X807093Y1322795D01*
X807093Y1322794D01*
X807094Y1322759D01*
X807086Y1322705D01*
X807086Y1318895D01*
X807097Y1318830D01*
X807099Y1318764D01*
X807117Y1318721D01*
X807125Y1318674D01*
X807159Y1318617D01*
X807184Y1318557D01*
X807215Y1318522D01*
X807240Y1318481D01*
X807291Y1318440D01*
X807335Y1318391D01*
X807377Y1318369D01*
X807414Y1318340D01*
X807476Y1318319D01*
X807535Y1318288D01*
X807589Y1318280D01*
X807626Y1318268D01*
X807666Y1318269D01*
X807720Y1318261D01*
X810260Y1318261D01*
X810325Y1318272D01*
G37*
G36*
X551245Y1318272D02*
X551245Y1318272D01*
X551311Y1318274D01*
X551354Y1318292D01*
X551401Y1318300D01*
X551458Y1318334D01*
X551518Y1318359D01*
X551553Y1318390D01*
X551594Y1318415D01*
X551636Y1318466D01*
X551684Y1318510D01*
X551706Y1318552D01*
X551735Y1318589D01*
X551756Y1318651D01*
X551787Y1318710D01*
X551795Y1318764D01*
X551807Y1318801D01*
X551806Y1318841D01*
X551814Y1318895D01*
X551814Y1322705D01*
X551803Y1322770D01*
X551801Y1322836D01*
X551783Y1322879D01*
X551775Y1322926D01*
X551741Y1322983D01*
X551716Y1323043D01*
X551685Y1323078D01*
X551660Y1323119D01*
X551609Y1323161D01*
X551565Y1323209D01*
X551523Y1323231D01*
X551486Y1323260D01*
X551424Y1323281D01*
X551365Y1323312D01*
X551311Y1323320D01*
X551274Y1323332D01*
X551234Y1323331D01*
X551180Y1323339D01*
X548640Y1323339D01*
X548575Y1323328D01*
X548509Y1323326D01*
X548466Y1323308D01*
X548419Y1323300D01*
X548362Y1323266D01*
X548302Y1323241D01*
X548267Y1323210D01*
X548226Y1323185D01*
X548185Y1323134D01*
X548136Y1323090D01*
X548114Y1323048D01*
X548085Y1323011D01*
X548064Y1322949D01*
X548033Y1322890D01*
X548025Y1322836D01*
X548013Y1322799D01*
X548013Y1322795D01*
X548013Y1322794D01*
X548014Y1322759D01*
X548006Y1322705D01*
X548006Y1318895D01*
X548017Y1318830D01*
X548019Y1318764D01*
X548037Y1318721D01*
X548045Y1318674D01*
X548079Y1318617D01*
X548104Y1318557D01*
X548135Y1318522D01*
X548160Y1318481D01*
X548211Y1318440D01*
X548255Y1318391D01*
X548297Y1318369D01*
X548334Y1318340D01*
X548396Y1318319D01*
X548455Y1318288D01*
X548509Y1318280D01*
X548546Y1318268D01*
X548586Y1318269D01*
X548640Y1318261D01*
X551180Y1318261D01*
X551245Y1318272D01*
G37*
G36*
X33085Y281952D02*
X33085Y281952D01*
X33151Y281954D01*
X33194Y281972D01*
X33241Y281980D01*
X33298Y282014D01*
X33358Y282039D01*
X33393Y282070D01*
X33434Y282095D01*
X33476Y282146D01*
X33524Y282190D01*
X33546Y282232D01*
X33575Y282269D01*
X33596Y282331D01*
X33627Y282390D01*
X33635Y282444D01*
X33647Y282481D01*
X33646Y282521D01*
X33654Y282575D01*
X33654Y286385D01*
X33643Y286450D01*
X33641Y286516D01*
X33623Y286559D01*
X33615Y286606D01*
X33581Y286663D01*
X33556Y286723D01*
X33525Y286758D01*
X33500Y286799D01*
X33449Y286841D01*
X33405Y286889D01*
X33363Y286911D01*
X33326Y286940D01*
X33264Y286961D01*
X33205Y286992D01*
X33151Y287000D01*
X33114Y287012D01*
X33074Y287011D01*
X33020Y287019D01*
X30480Y287019D01*
X30415Y287008D01*
X30349Y287006D01*
X30306Y286988D01*
X30259Y286980D01*
X30202Y286946D01*
X30142Y286921D01*
X30107Y286890D01*
X30066Y286865D01*
X30025Y286814D01*
X29976Y286770D01*
X29954Y286728D01*
X29925Y286691D01*
X29904Y286629D01*
X29873Y286570D01*
X29865Y286516D01*
X29853Y286479D01*
X29853Y286475D01*
X29853Y286474D01*
X29854Y286439D01*
X29846Y286385D01*
X29846Y282575D01*
X29857Y282510D01*
X29859Y282444D01*
X29877Y282401D01*
X29885Y282354D01*
X29919Y282297D01*
X29944Y282237D01*
X29975Y282202D01*
X30000Y282161D01*
X30051Y282120D01*
X30095Y282071D01*
X30137Y282049D01*
X30174Y282020D01*
X30236Y281999D01*
X30295Y281968D01*
X30349Y281960D01*
X30386Y281948D01*
X30426Y281949D01*
X30480Y281941D01*
X33020Y281941D01*
X33085Y281952D01*
G37*
G36*
X1069405Y281952D02*
X1069405Y281952D01*
X1069471Y281954D01*
X1069514Y281972D01*
X1069561Y281980D01*
X1069618Y282014D01*
X1069678Y282039D01*
X1069713Y282070D01*
X1069754Y282095D01*
X1069796Y282146D01*
X1069844Y282190D01*
X1069866Y282232D01*
X1069895Y282269D01*
X1069916Y282331D01*
X1069947Y282390D01*
X1069955Y282444D01*
X1069967Y282481D01*
X1069966Y282521D01*
X1069974Y282575D01*
X1069974Y286385D01*
X1069963Y286450D01*
X1069961Y286516D01*
X1069943Y286559D01*
X1069935Y286606D01*
X1069901Y286663D01*
X1069876Y286723D01*
X1069845Y286758D01*
X1069820Y286799D01*
X1069769Y286841D01*
X1069725Y286889D01*
X1069683Y286911D01*
X1069646Y286940D01*
X1069584Y286961D01*
X1069525Y286992D01*
X1069471Y287000D01*
X1069434Y287012D01*
X1069394Y287011D01*
X1069340Y287019D01*
X1066800Y287019D01*
X1066735Y287008D01*
X1066669Y287006D01*
X1066626Y286988D01*
X1066579Y286980D01*
X1066522Y286946D01*
X1066462Y286921D01*
X1066427Y286890D01*
X1066386Y286865D01*
X1066345Y286814D01*
X1066296Y286770D01*
X1066274Y286728D01*
X1066245Y286691D01*
X1066224Y286629D01*
X1066193Y286570D01*
X1066185Y286516D01*
X1066173Y286479D01*
X1066173Y286475D01*
X1066173Y286474D01*
X1066174Y286439D01*
X1066166Y286385D01*
X1066166Y282575D01*
X1066177Y282510D01*
X1066179Y282444D01*
X1066197Y282401D01*
X1066205Y282354D01*
X1066239Y282297D01*
X1066264Y282237D01*
X1066295Y282202D01*
X1066320Y282161D01*
X1066371Y282120D01*
X1066415Y282071D01*
X1066457Y282049D01*
X1066494Y282020D01*
X1066556Y281999D01*
X1066615Y281968D01*
X1066669Y281960D01*
X1066706Y281948D01*
X1066746Y281949D01*
X1066800Y281941D01*
X1069340Y281941D01*
X1069405Y281952D01*
G37*
G36*
X810325Y281952D02*
X810325Y281952D01*
X810391Y281954D01*
X810434Y281972D01*
X810481Y281980D01*
X810538Y282014D01*
X810598Y282039D01*
X810633Y282070D01*
X810674Y282095D01*
X810716Y282146D01*
X810764Y282190D01*
X810786Y282232D01*
X810815Y282269D01*
X810836Y282331D01*
X810867Y282390D01*
X810875Y282444D01*
X810887Y282481D01*
X810886Y282521D01*
X810894Y282575D01*
X810894Y286385D01*
X810883Y286450D01*
X810881Y286516D01*
X810863Y286559D01*
X810855Y286606D01*
X810821Y286663D01*
X810796Y286723D01*
X810765Y286758D01*
X810740Y286799D01*
X810689Y286841D01*
X810645Y286889D01*
X810603Y286911D01*
X810566Y286940D01*
X810504Y286961D01*
X810445Y286992D01*
X810391Y287000D01*
X810354Y287012D01*
X810314Y287011D01*
X810260Y287019D01*
X807720Y287019D01*
X807655Y287008D01*
X807589Y287006D01*
X807546Y286988D01*
X807499Y286980D01*
X807442Y286946D01*
X807382Y286921D01*
X807347Y286890D01*
X807306Y286865D01*
X807265Y286814D01*
X807216Y286770D01*
X807194Y286728D01*
X807165Y286691D01*
X807144Y286629D01*
X807113Y286570D01*
X807105Y286516D01*
X807093Y286479D01*
X807093Y286475D01*
X807093Y286474D01*
X807094Y286439D01*
X807086Y286385D01*
X807086Y282575D01*
X807097Y282510D01*
X807099Y282444D01*
X807117Y282401D01*
X807125Y282354D01*
X807159Y282297D01*
X807184Y282237D01*
X807215Y282202D01*
X807240Y282161D01*
X807291Y282120D01*
X807335Y282071D01*
X807377Y282049D01*
X807414Y282020D01*
X807476Y281999D01*
X807535Y281968D01*
X807589Y281960D01*
X807626Y281948D01*
X807666Y281949D01*
X807720Y281941D01*
X810260Y281941D01*
X810325Y281952D01*
G37*
G36*
X551245Y281952D02*
X551245Y281952D01*
X551311Y281954D01*
X551354Y281972D01*
X551401Y281980D01*
X551458Y282014D01*
X551518Y282039D01*
X551553Y282070D01*
X551594Y282095D01*
X551636Y282146D01*
X551684Y282190D01*
X551706Y282232D01*
X551735Y282269D01*
X551756Y282331D01*
X551787Y282390D01*
X551795Y282444D01*
X551807Y282481D01*
X551806Y282521D01*
X551814Y282575D01*
X551814Y286385D01*
X551803Y286450D01*
X551801Y286516D01*
X551783Y286559D01*
X551775Y286606D01*
X551741Y286663D01*
X551716Y286723D01*
X551685Y286758D01*
X551660Y286799D01*
X551609Y286841D01*
X551565Y286889D01*
X551523Y286911D01*
X551486Y286940D01*
X551424Y286961D01*
X551365Y286992D01*
X551311Y287000D01*
X551274Y287012D01*
X551234Y287011D01*
X551180Y287019D01*
X548640Y287019D01*
X548575Y287008D01*
X548509Y287006D01*
X548466Y286988D01*
X548419Y286980D01*
X548362Y286946D01*
X548302Y286921D01*
X548267Y286890D01*
X548226Y286865D01*
X548185Y286814D01*
X548136Y286770D01*
X548114Y286728D01*
X548085Y286691D01*
X548064Y286629D01*
X548033Y286570D01*
X548025Y286516D01*
X548013Y286479D01*
X548013Y286475D01*
X548013Y286474D01*
X548014Y286439D01*
X548006Y286385D01*
X548006Y282575D01*
X548017Y282510D01*
X548019Y282444D01*
X548037Y282401D01*
X548045Y282354D01*
X548079Y282297D01*
X548104Y282237D01*
X548135Y282202D01*
X548160Y282161D01*
X548211Y282120D01*
X548255Y282071D01*
X548297Y282049D01*
X548334Y282020D01*
X548396Y281999D01*
X548455Y281968D01*
X548509Y281960D01*
X548546Y281948D01*
X548586Y281949D01*
X548640Y281941D01*
X551180Y281941D01*
X551245Y281952D01*
G37*
G36*
X292165Y281952D02*
X292165Y281952D01*
X292231Y281954D01*
X292274Y281972D01*
X292321Y281980D01*
X292378Y282014D01*
X292438Y282039D01*
X292473Y282070D01*
X292514Y282095D01*
X292556Y282146D01*
X292604Y282190D01*
X292626Y282232D01*
X292655Y282269D01*
X292676Y282331D01*
X292707Y282390D01*
X292715Y282444D01*
X292727Y282481D01*
X292726Y282521D01*
X292734Y282575D01*
X292734Y286385D01*
X292723Y286450D01*
X292721Y286516D01*
X292703Y286559D01*
X292695Y286606D01*
X292661Y286663D01*
X292636Y286723D01*
X292605Y286758D01*
X292580Y286799D01*
X292529Y286841D01*
X292485Y286889D01*
X292443Y286911D01*
X292406Y286940D01*
X292344Y286961D01*
X292285Y286992D01*
X292231Y287000D01*
X292194Y287012D01*
X292154Y287011D01*
X292100Y287019D01*
X289560Y287019D01*
X289495Y287008D01*
X289429Y287006D01*
X289386Y286988D01*
X289339Y286980D01*
X289282Y286946D01*
X289222Y286921D01*
X289187Y286890D01*
X289146Y286865D01*
X289105Y286814D01*
X289056Y286770D01*
X289034Y286728D01*
X289005Y286691D01*
X288984Y286629D01*
X288953Y286570D01*
X288945Y286516D01*
X288933Y286479D01*
X288933Y286475D01*
X288933Y286474D01*
X288934Y286439D01*
X288926Y286385D01*
X288926Y282575D01*
X288937Y282510D01*
X288939Y282444D01*
X288957Y282401D01*
X288965Y282354D01*
X288999Y282297D01*
X289024Y282237D01*
X289055Y282202D01*
X289080Y282161D01*
X289131Y282120D01*
X289175Y282071D01*
X289217Y282049D01*
X289254Y282020D01*
X289316Y281999D01*
X289375Y281968D01*
X289429Y281960D01*
X289466Y281948D01*
X289506Y281949D01*
X289560Y281941D01*
X292100Y281941D01*
X292165Y281952D01*
G37*
G36*
X1069405Y1059192D02*
X1069405Y1059192D01*
X1069471Y1059194D01*
X1069514Y1059212D01*
X1069561Y1059220D01*
X1069618Y1059254D01*
X1069678Y1059279D01*
X1069713Y1059310D01*
X1069754Y1059335D01*
X1069796Y1059386D01*
X1069844Y1059430D01*
X1069866Y1059472D01*
X1069895Y1059509D01*
X1069916Y1059571D01*
X1069947Y1059630D01*
X1069955Y1059684D01*
X1069967Y1059721D01*
X1069966Y1059761D01*
X1069974Y1059815D01*
X1069974Y1063625D01*
X1069963Y1063690D01*
X1069961Y1063756D01*
X1069943Y1063799D01*
X1069935Y1063846D01*
X1069901Y1063903D01*
X1069876Y1063963D01*
X1069845Y1063998D01*
X1069820Y1064039D01*
X1069769Y1064081D01*
X1069725Y1064129D01*
X1069683Y1064151D01*
X1069646Y1064180D01*
X1069584Y1064201D01*
X1069525Y1064232D01*
X1069471Y1064240D01*
X1069434Y1064252D01*
X1069394Y1064251D01*
X1069340Y1064259D01*
X1066800Y1064259D01*
X1066735Y1064248D01*
X1066669Y1064246D01*
X1066626Y1064228D01*
X1066579Y1064220D01*
X1066522Y1064186D01*
X1066462Y1064161D01*
X1066427Y1064130D01*
X1066386Y1064105D01*
X1066345Y1064054D01*
X1066296Y1064010D01*
X1066274Y1063968D01*
X1066245Y1063931D01*
X1066224Y1063869D01*
X1066193Y1063810D01*
X1066185Y1063756D01*
X1066173Y1063719D01*
X1066173Y1063715D01*
X1066173Y1063714D01*
X1066174Y1063679D01*
X1066166Y1063625D01*
X1066166Y1059815D01*
X1066177Y1059750D01*
X1066179Y1059684D01*
X1066197Y1059641D01*
X1066205Y1059594D01*
X1066239Y1059537D01*
X1066264Y1059477D01*
X1066295Y1059442D01*
X1066320Y1059401D01*
X1066371Y1059360D01*
X1066415Y1059311D01*
X1066457Y1059289D01*
X1066494Y1059260D01*
X1066556Y1059239D01*
X1066615Y1059208D01*
X1066669Y1059200D01*
X1066706Y1059188D01*
X1066746Y1059189D01*
X1066800Y1059181D01*
X1069340Y1059181D01*
X1069405Y1059192D01*
G37*
G36*
X33085Y1059192D02*
X33085Y1059192D01*
X33151Y1059194D01*
X33194Y1059212D01*
X33241Y1059220D01*
X33298Y1059254D01*
X33358Y1059279D01*
X33393Y1059310D01*
X33434Y1059335D01*
X33476Y1059386D01*
X33524Y1059430D01*
X33546Y1059472D01*
X33575Y1059509D01*
X33596Y1059571D01*
X33627Y1059630D01*
X33635Y1059684D01*
X33647Y1059721D01*
X33646Y1059761D01*
X33654Y1059815D01*
X33654Y1063625D01*
X33643Y1063690D01*
X33641Y1063756D01*
X33623Y1063799D01*
X33615Y1063846D01*
X33581Y1063903D01*
X33556Y1063963D01*
X33525Y1063998D01*
X33500Y1064039D01*
X33449Y1064081D01*
X33405Y1064129D01*
X33363Y1064151D01*
X33326Y1064180D01*
X33264Y1064201D01*
X33205Y1064232D01*
X33151Y1064240D01*
X33114Y1064252D01*
X33074Y1064251D01*
X33020Y1064259D01*
X30480Y1064259D01*
X30415Y1064248D01*
X30349Y1064246D01*
X30306Y1064228D01*
X30259Y1064220D01*
X30202Y1064186D01*
X30142Y1064161D01*
X30107Y1064130D01*
X30066Y1064105D01*
X30025Y1064054D01*
X29976Y1064010D01*
X29954Y1063968D01*
X29925Y1063931D01*
X29904Y1063869D01*
X29873Y1063810D01*
X29865Y1063756D01*
X29853Y1063719D01*
X29853Y1063715D01*
X29853Y1063714D01*
X29854Y1063679D01*
X29846Y1063625D01*
X29846Y1059815D01*
X29857Y1059750D01*
X29859Y1059684D01*
X29877Y1059641D01*
X29885Y1059594D01*
X29919Y1059537D01*
X29944Y1059477D01*
X29975Y1059442D01*
X30000Y1059401D01*
X30051Y1059360D01*
X30095Y1059311D01*
X30137Y1059289D01*
X30174Y1059260D01*
X30236Y1059239D01*
X30295Y1059208D01*
X30349Y1059200D01*
X30386Y1059188D01*
X30426Y1059189D01*
X30480Y1059181D01*
X33020Y1059181D01*
X33085Y1059192D01*
G37*
G36*
X551245Y1059192D02*
X551245Y1059192D01*
X551311Y1059194D01*
X551354Y1059212D01*
X551401Y1059220D01*
X551458Y1059254D01*
X551518Y1059279D01*
X551553Y1059310D01*
X551594Y1059335D01*
X551636Y1059386D01*
X551684Y1059430D01*
X551706Y1059472D01*
X551735Y1059509D01*
X551756Y1059571D01*
X551787Y1059630D01*
X551795Y1059684D01*
X551807Y1059721D01*
X551806Y1059761D01*
X551814Y1059815D01*
X551814Y1063625D01*
X551803Y1063690D01*
X551801Y1063756D01*
X551783Y1063799D01*
X551775Y1063846D01*
X551741Y1063903D01*
X551716Y1063963D01*
X551685Y1063998D01*
X551660Y1064039D01*
X551609Y1064081D01*
X551565Y1064129D01*
X551523Y1064151D01*
X551486Y1064180D01*
X551424Y1064201D01*
X551365Y1064232D01*
X551311Y1064240D01*
X551274Y1064252D01*
X551234Y1064251D01*
X551180Y1064259D01*
X548640Y1064259D01*
X548575Y1064248D01*
X548509Y1064246D01*
X548466Y1064228D01*
X548419Y1064220D01*
X548362Y1064186D01*
X548302Y1064161D01*
X548267Y1064130D01*
X548226Y1064105D01*
X548185Y1064054D01*
X548136Y1064010D01*
X548114Y1063968D01*
X548085Y1063931D01*
X548064Y1063869D01*
X548033Y1063810D01*
X548025Y1063756D01*
X548013Y1063719D01*
X548013Y1063715D01*
X548013Y1063714D01*
X548014Y1063679D01*
X548006Y1063625D01*
X548006Y1059815D01*
X548017Y1059750D01*
X548019Y1059684D01*
X548037Y1059641D01*
X548045Y1059594D01*
X548079Y1059537D01*
X548104Y1059477D01*
X548135Y1059442D01*
X548160Y1059401D01*
X548211Y1059360D01*
X548255Y1059311D01*
X548297Y1059289D01*
X548334Y1059260D01*
X548396Y1059239D01*
X548455Y1059208D01*
X548509Y1059200D01*
X548546Y1059188D01*
X548586Y1059189D01*
X548640Y1059181D01*
X551180Y1059181D01*
X551245Y1059192D01*
G37*
G36*
X292165Y1059192D02*
X292165Y1059192D01*
X292231Y1059194D01*
X292274Y1059212D01*
X292321Y1059220D01*
X292378Y1059254D01*
X292438Y1059279D01*
X292473Y1059310D01*
X292514Y1059335D01*
X292556Y1059386D01*
X292604Y1059430D01*
X292626Y1059472D01*
X292655Y1059509D01*
X292676Y1059571D01*
X292707Y1059630D01*
X292715Y1059684D01*
X292727Y1059721D01*
X292726Y1059761D01*
X292734Y1059815D01*
X292734Y1063625D01*
X292723Y1063690D01*
X292721Y1063756D01*
X292703Y1063799D01*
X292695Y1063846D01*
X292661Y1063903D01*
X292636Y1063963D01*
X292605Y1063998D01*
X292580Y1064039D01*
X292529Y1064081D01*
X292485Y1064129D01*
X292443Y1064151D01*
X292406Y1064180D01*
X292344Y1064201D01*
X292285Y1064232D01*
X292231Y1064240D01*
X292194Y1064252D01*
X292154Y1064251D01*
X292100Y1064259D01*
X289560Y1064259D01*
X289495Y1064248D01*
X289429Y1064246D01*
X289386Y1064228D01*
X289339Y1064220D01*
X289282Y1064186D01*
X289222Y1064161D01*
X289187Y1064130D01*
X289146Y1064105D01*
X289105Y1064054D01*
X289056Y1064010D01*
X289034Y1063968D01*
X289005Y1063931D01*
X288984Y1063869D01*
X288953Y1063810D01*
X288945Y1063756D01*
X288933Y1063719D01*
X288933Y1063715D01*
X288933Y1063714D01*
X288934Y1063679D01*
X288926Y1063625D01*
X288926Y1059815D01*
X288937Y1059750D01*
X288939Y1059684D01*
X288957Y1059641D01*
X288965Y1059594D01*
X288999Y1059537D01*
X289024Y1059477D01*
X289055Y1059442D01*
X289080Y1059401D01*
X289131Y1059360D01*
X289175Y1059311D01*
X289217Y1059289D01*
X289254Y1059260D01*
X289316Y1059239D01*
X289375Y1059208D01*
X289429Y1059200D01*
X289466Y1059188D01*
X289506Y1059189D01*
X289560Y1059181D01*
X292100Y1059181D01*
X292165Y1059192D01*
G37*
G36*
X810325Y1059192D02*
X810325Y1059192D01*
X810391Y1059194D01*
X810434Y1059212D01*
X810481Y1059220D01*
X810538Y1059254D01*
X810598Y1059279D01*
X810633Y1059310D01*
X810674Y1059335D01*
X810716Y1059386D01*
X810764Y1059430D01*
X810786Y1059472D01*
X810815Y1059509D01*
X810836Y1059571D01*
X810867Y1059630D01*
X810875Y1059684D01*
X810887Y1059721D01*
X810886Y1059761D01*
X810894Y1059815D01*
X810894Y1063625D01*
X810883Y1063690D01*
X810881Y1063756D01*
X810863Y1063799D01*
X810855Y1063846D01*
X810821Y1063903D01*
X810796Y1063963D01*
X810765Y1063998D01*
X810740Y1064039D01*
X810689Y1064081D01*
X810645Y1064129D01*
X810603Y1064151D01*
X810566Y1064180D01*
X810504Y1064201D01*
X810445Y1064232D01*
X810391Y1064240D01*
X810354Y1064252D01*
X810314Y1064251D01*
X810260Y1064259D01*
X807720Y1064259D01*
X807655Y1064248D01*
X807589Y1064246D01*
X807546Y1064228D01*
X807499Y1064220D01*
X807442Y1064186D01*
X807382Y1064161D01*
X807347Y1064130D01*
X807306Y1064105D01*
X807265Y1064054D01*
X807216Y1064010D01*
X807194Y1063968D01*
X807165Y1063931D01*
X807144Y1063869D01*
X807113Y1063810D01*
X807105Y1063756D01*
X807093Y1063719D01*
X807093Y1063715D01*
X807093Y1063714D01*
X807094Y1063679D01*
X807086Y1063625D01*
X807086Y1059815D01*
X807097Y1059750D01*
X807099Y1059684D01*
X807117Y1059641D01*
X807125Y1059594D01*
X807159Y1059537D01*
X807184Y1059477D01*
X807215Y1059442D01*
X807240Y1059401D01*
X807291Y1059360D01*
X807335Y1059311D01*
X807377Y1059289D01*
X807414Y1059260D01*
X807476Y1059239D01*
X807535Y1059208D01*
X807589Y1059200D01*
X807626Y1059188D01*
X807666Y1059189D01*
X807720Y1059181D01*
X810260Y1059181D01*
X810325Y1059192D01*
G37*
G36*
X1069405Y22872D02*
X1069405Y22872D01*
X1069471Y22874D01*
X1069514Y22892D01*
X1069561Y22900D01*
X1069618Y22934D01*
X1069678Y22959D01*
X1069713Y22990D01*
X1069754Y23015D01*
X1069796Y23066D01*
X1069844Y23110D01*
X1069866Y23152D01*
X1069895Y23189D01*
X1069916Y23251D01*
X1069947Y23310D01*
X1069955Y23364D01*
X1069967Y23401D01*
X1069966Y23441D01*
X1069974Y23495D01*
X1069974Y27305D01*
X1069963Y27370D01*
X1069961Y27436D01*
X1069943Y27479D01*
X1069935Y27526D01*
X1069901Y27583D01*
X1069876Y27643D01*
X1069845Y27678D01*
X1069820Y27719D01*
X1069769Y27761D01*
X1069725Y27809D01*
X1069683Y27831D01*
X1069646Y27860D01*
X1069584Y27881D01*
X1069525Y27912D01*
X1069471Y27920D01*
X1069434Y27932D01*
X1069394Y27931D01*
X1069340Y27939D01*
X1066800Y27939D01*
X1066735Y27928D01*
X1066669Y27926D01*
X1066626Y27908D01*
X1066579Y27900D01*
X1066522Y27866D01*
X1066462Y27841D01*
X1066427Y27810D01*
X1066386Y27785D01*
X1066345Y27734D01*
X1066296Y27690D01*
X1066274Y27648D01*
X1066245Y27611D01*
X1066224Y27549D01*
X1066193Y27490D01*
X1066185Y27436D01*
X1066173Y27399D01*
X1066173Y27395D01*
X1066173Y27394D01*
X1066174Y27359D01*
X1066166Y27305D01*
X1066166Y23495D01*
X1066177Y23430D01*
X1066179Y23364D01*
X1066197Y23321D01*
X1066205Y23274D01*
X1066239Y23217D01*
X1066264Y23157D01*
X1066295Y23122D01*
X1066320Y23081D01*
X1066371Y23040D01*
X1066415Y22991D01*
X1066457Y22969D01*
X1066494Y22940D01*
X1066556Y22919D01*
X1066615Y22888D01*
X1066669Y22880D01*
X1066706Y22868D01*
X1066746Y22869D01*
X1066800Y22861D01*
X1069340Y22861D01*
X1069405Y22872D01*
G37*
G36*
X292165Y22872D02*
X292165Y22872D01*
X292231Y22874D01*
X292274Y22892D01*
X292321Y22900D01*
X292378Y22934D01*
X292438Y22959D01*
X292473Y22990D01*
X292514Y23015D01*
X292556Y23066D01*
X292604Y23110D01*
X292626Y23152D01*
X292655Y23189D01*
X292676Y23251D01*
X292707Y23310D01*
X292715Y23364D01*
X292727Y23401D01*
X292726Y23441D01*
X292734Y23495D01*
X292734Y27305D01*
X292723Y27370D01*
X292721Y27436D01*
X292703Y27479D01*
X292695Y27526D01*
X292661Y27583D01*
X292636Y27643D01*
X292605Y27678D01*
X292580Y27719D01*
X292529Y27761D01*
X292485Y27809D01*
X292443Y27831D01*
X292406Y27860D01*
X292344Y27881D01*
X292285Y27912D01*
X292231Y27920D01*
X292194Y27932D01*
X292154Y27931D01*
X292100Y27939D01*
X289560Y27939D01*
X289495Y27928D01*
X289429Y27926D01*
X289386Y27908D01*
X289339Y27900D01*
X289282Y27866D01*
X289222Y27841D01*
X289187Y27810D01*
X289146Y27785D01*
X289105Y27734D01*
X289056Y27690D01*
X289034Y27648D01*
X289005Y27611D01*
X288984Y27549D01*
X288953Y27490D01*
X288945Y27436D01*
X288933Y27399D01*
X288933Y27395D01*
X288933Y27394D01*
X288934Y27359D01*
X288926Y27305D01*
X288926Y23495D01*
X288937Y23430D01*
X288939Y23364D01*
X288957Y23321D01*
X288965Y23274D01*
X288999Y23217D01*
X289024Y23157D01*
X289055Y23122D01*
X289080Y23081D01*
X289131Y23040D01*
X289175Y22991D01*
X289217Y22969D01*
X289254Y22940D01*
X289316Y22919D01*
X289375Y22888D01*
X289429Y22880D01*
X289466Y22868D01*
X289506Y22869D01*
X289560Y22861D01*
X292100Y22861D01*
X292165Y22872D01*
G37*
G36*
X551245Y22872D02*
X551245Y22872D01*
X551311Y22874D01*
X551354Y22892D01*
X551401Y22900D01*
X551458Y22934D01*
X551518Y22959D01*
X551553Y22990D01*
X551594Y23015D01*
X551636Y23066D01*
X551684Y23110D01*
X551706Y23152D01*
X551735Y23189D01*
X551756Y23251D01*
X551787Y23310D01*
X551795Y23364D01*
X551807Y23401D01*
X551806Y23441D01*
X551814Y23495D01*
X551814Y27305D01*
X551803Y27370D01*
X551801Y27436D01*
X551783Y27479D01*
X551775Y27526D01*
X551741Y27583D01*
X551716Y27643D01*
X551685Y27678D01*
X551660Y27719D01*
X551609Y27761D01*
X551565Y27809D01*
X551523Y27831D01*
X551486Y27860D01*
X551424Y27881D01*
X551365Y27912D01*
X551311Y27920D01*
X551274Y27932D01*
X551234Y27931D01*
X551180Y27939D01*
X548640Y27939D01*
X548575Y27928D01*
X548509Y27926D01*
X548466Y27908D01*
X548419Y27900D01*
X548362Y27866D01*
X548302Y27841D01*
X548267Y27810D01*
X548226Y27785D01*
X548185Y27734D01*
X548136Y27690D01*
X548114Y27648D01*
X548085Y27611D01*
X548064Y27549D01*
X548033Y27490D01*
X548025Y27436D01*
X548013Y27399D01*
X548013Y27395D01*
X548013Y27394D01*
X548014Y27359D01*
X548006Y27305D01*
X548006Y23495D01*
X548017Y23430D01*
X548019Y23364D01*
X548037Y23321D01*
X548045Y23274D01*
X548079Y23217D01*
X548104Y23157D01*
X548135Y23122D01*
X548160Y23081D01*
X548211Y23040D01*
X548255Y22991D01*
X548297Y22969D01*
X548334Y22940D01*
X548396Y22919D01*
X548455Y22888D01*
X548509Y22880D01*
X548546Y22868D01*
X548586Y22869D01*
X548640Y22861D01*
X551180Y22861D01*
X551245Y22872D01*
G37*
G36*
X810325Y22872D02*
X810325Y22872D01*
X810391Y22874D01*
X810434Y22892D01*
X810481Y22900D01*
X810538Y22934D01*
X810598Y22959D01*
X810633Y22990D01*
X810674Y23015D01*
X810716Y23066D01*
X810764Y23110D01*
X810786Y23152D01*
X810815Y23189D01*
X810836Y23251D01*
X810867Y23310D01*
X810875Y23364D01*
X810887Y23401D01*
X810886Y23441D01*
X810894Y23495D01*
X810894Y27305D01*
X810883Y27370D01*
X810881Y27436D01*
X810863Y27479D01*
X810855Y27526D01*
X810821Y27583D01*
X810796Y27643D01*
X810765Y27678D01*
X810740Y27719D01*
X810689Y27761D01*
X810645Y27809D01*
X810603Y27831D01*
X810566Y27860D01*
X810504Y27881D01*
X810445Y27912D01*
X810391Y27920D01*
X810354Y27932D01*
X810314Y27931D01*
X810260Y27939D01*
X807720Y27939D01*
X807655Y27928D01*
X807589Y27926D01*
X807546Y27908D01*
X807499Y27900D01*
X807442Y27866D01*
X807382Y27841D01*
X807347Y27810D01*
X807306Y27785D01*
X807265Y27734D01*
X807216Y27690D01*
X807194Y27648D01*
X807165Y27611D01*
X807144Y27549D01*
X807113Y27490D01*
X807105Y27436D01*
X807093Y27399D01*
X807093Y27395D01*
X807093Y27394D01*
X807094Y27359D01*
X807086Y27305D01*
X807086Y23495D01*
X807097Y23430D01*
X807099Y23364D01*
X807117Y23321D01*
X807125Y23274D01*
X807159Y23217D01*
X807184Y23157D01*
X807215Y23122D01*
X807240Y23081D01*
X807291Y23040D01*
X807335Y22991D01*
X807377Y22969D01*
X807414Y22940D01*
X807476Y22919D01*
X807535Y22888D01*
X807589Y22880D01*
X807626Y22868D01*
X807666Y22869D01*
X807720Y22861D01*
X810260Y22861D01*
X810325Y22872D01*
G37*
G36*
X33085Y22872D02*
X33085Y22872D01*
X33151Y22874D01*
X33194Y22892D01*
X33241Y22900D01*
X33298Y22934D01*
X33358Y22959D01*
X33393Y22990D01*
X33434Y23015D01*
X33476Y23066D01*
X33524Y23110D01*
X33546Y23152D01*
X33575Y23189D01*
X33596Y23251D01*
X33627Y23310D01*
X33635Y23364D01*
X33647Y23401D01*
X33646Y23441D01*
X33654Y23495D01*
X33654Y27305D01*
X33643Y27370D01*
X33641Y27436D01*
X33623Y27479D01*
X33615Y27526D01*
X33581Y27583D01*
X33556Y27643D01*
X33525Y27678D01*
X33500Y27719D01*
X33449Y27761D01*
X33405Y27809D01*
X33363Y27831D01*
X33326Y27860D01*
X33264Y27881D01*
X33205Y27912D01*
X33151Y27920D01*
X33114Y27932D01*
X33074Y27931D01*
X33020Y27939D01*
X30480Y27939D01*
X30415Y27928D01*
X30349Y27926D01*
X30306Y27908D01*
X30259Y27900D01*
X30202Y27866D01*
X30142Y27841D01*
X30107Y27810D01*
X30066Y27785D01*
X30025Y27734D01*
X29976Y27690D01*
X29954Y27648D01*
X29925Y27611D01*
X29904Y27549D01*
X29873Y27490D01*
X29865Y27436D01*
X29853Y27399D01*
X29853Y27395D01*
X29853Y27394D01*
X29854Y27359D01*
X29846Y27305D01*
X29846Y23495D01*
X29857Y23430D01*
X29859Y23364D01*
X29877Y23321D01*
X29885Y23274D01*
X29919Y23217D01*
X29944Y23157D01*
X29975Y23122D01*
X30000Y23081D01*
X30051Y23040D01*
X30095Y22991D01*
X30137Y22969D01*
X30174Y22940D01*
X30236Y22919D01*
X30295Y22888D01*
X30349Y22880D01*
X30386Y22868D01*
X30426Y22869D01*
X30480Y22861D01*
X33020Y22861D01*
X33085Y22872D01*
G37*
D10*
X25400Y228600D03*
X228600Y228600D03*
D11*
X245110Y8890D03*
X7620Y246380D03*
D12*
X14050Y155000D03*
X14050Y99000D03*
D13*
X50800Y142000D03*
X50800Y132000D03*
X50800Y122000D03*
X50800Y112000D03*
D14*
X118500Y152400D03*
X135500Y152400D03*
D12*
X239950Y99000D03*
X239950Y155000D03*
D13*
X203200Y112000D03*
X203200Y122000D03*
X203200Y132000D03*
X203200Y142000D03*
D14*
X23250Y46990D03*
X40250Y46990D03*
D15*
X37030Y57470D02*
X37030Y64450D01*
X44010Y64450D01*
X44010Y57470D01*
X37030Y57470D01*
X37030Y62270D02*
X44010Y62270D01*
X19490Y64450D02*
X19490Y57470D01*
X19490Y64450D02*
X26470Y64450D01*
X26470Y57470D01*
X19490Y57470D01*
X19490Y62270D02*
X26470Y62270D01*
D16*
X117500Y75899D03*
X127000Y75899D03*
X136500Y75899D03*
X136500Y101901D03*
X117500Y101901D03*
D17*
X98900Y168300D03*
X98900Y187300D03*
X77900Y177800D03*
X155100Y187300D03*
X155100Y168300D03*
X176100Y177800D03*
D18*
X63500Y169300D03*
X63500Y186300D03*
X114300Y186300D03*
X114300Y169300D03*
X139700Y169300D03*
X139700Y186300D03*
X190500Y169300D03*
X190500Y186300D03*
X101600Y75320D03*
X101600Y92320D03*
X152400Y92320D03*
X152400Y75320D03*
D19*
X31750Y30607D03*
X31750Y20193D03*
D20*
X88900Y12700D03*
X114300Y12700D03*
X139700Y12700D03*
X165100Y12700D03*
D21*
X138500Y127000D03*
X138500Y135000D03*
X138500Y119000D03*
X115500Y119000D03*
X115500Y127000D03*
X115500Y135000D03*
D10*
X284480Y228600D03*
X487680Y228600D03*
D11*
X504190Y8890D03*
X266700Y246380D03*
D12*
X273130Y155000D03*
X273130Y99000D03*
D13*
X309880Y142000D03*
X309880Y132000D03*
X309880Y122000D03*
X309880Y112000D03*
D14*
X377580Y152400D03*
X394580Y152400D03*
D12*
X499030Y99000D03*
X499030Y155000D03*
D13*
X462280Y112000D03*
X462280Y122000D03*
X462280Y132000D03*
X462280Y142000D03*
D14*
X282330Y46990D03*
X299330Y46990D03*
D15*
X296110Y57470D02*
X296110Y64450D01*
X303090Y64450D01*
X303090Y57470D01*
X296110Y57470D01*
X296110Y62270D02*
X303090Y62270D01*
X278570Y64450D02*
X278570Y57470D01*
X278570Y64450D02*
X285550Y64450D01*
X285550Y57470D01*
X278570Y57470D01*
X278570Y62270D02*
X285550Y62270D01*
D16*
X376580Y75899D03*
X386080Y75899D03*
X395580Y75899D03*
X395580Y101901D03*
X376580Y101901D03*
D17*
X357980Y168300D03*
X357980Y187300D03*
X336980Y177800D03*
X414180Y187300D03*
X414180Y168300D03*
X435180Y177800D03*
D18*
X322580Y169300D03*
X322580Y186300D03*
X373380Y186300D03*
X373380Y169300D03*
X398780Y169300D03*
X398780Y186300D03*
X449580Y169300D03*
X449580Y186300D03*
X360680Y75320D03*
X360680Y92320D03*
X411480Y92320D03*
X411480Y75320D03*
D19*
X290830Y30607D03*
X290830Y20193D03*
D20*
X347980Y12700D03*
X373380Y12700D03*
X398780Y12700D03*
X424180Y12700D03*
D21*
X397580Y127000D03*
X397580Y135000D03*
X397580Y119000D03*
X374580Y119000D03*
X374580Y127000D03*
X374580Y135000D03*
D10*
X543560Y228600D03*
X746760Y228600D03*
D11*
X763270Y8890D03*
X525780Y246380D03*
D12*
X532210Y155000D03*
X532210Y99000D03*
D13*
X568960Y142000D03*
X568960Y132000D03*
X568960Y122000D03*
X568960Y112000D03*
D14*
X636660Y152400D03*
X653660Y152400D03*
D12*
X758110Y99000D03*
X758110Y155000D03*
D13*
X721360Y112000D03*
X721360Y122000D03*
X721360Y132000D03*
X721360Y142000D03*
D14*
X541410Y46990D03*
X558410Y46990D03*
D15*
X555190Y57470D02*
X555190Y64450D01*
X562170Y64450D01*
X562170Y57470D01*
X555190Y57470D01*
X555190Y62270D02*
X562170Y62270D01*
X537650Y64450D02*
X537650Y57470D01*
X537650Y64450D02*
X544630Y64450D01*
X544630Y57470D01*
X537650Y57470D01*
X537650Y62270D02*
X544630Y62270D01*
D16*
X635660Y75899D03*
X645160Y75899D03*
X654660Y75899D03*
X654660Y101901D03*
X635660Y101901D03*
D17*
X617060Y168300D03*
X617060Y187300D03*
X596060Y177800D03*
X673260Y187300D03*
X673260Y168300D03*
X694260Y177800D03*
D18*
X581660Y169300D03*
X581660Y186300D03*
X632460Y186300D03*
X632460Y169300D03*
X657860Y169300D03*
X657860Y186300D03*
X708660Y169300D03*
X708660Y186300D03*
X619760Y75320D03*
X619760Y92320D03*
X670560Y92320D03*
X670560Y75320D03*
D19*
X549910Y30607D03*
X549910Y20193D03*
D20*
X607060Y12700D03*
X632460Y12700D03*
X657860Y12700D03*
X683260Y12700D03*
D21*
X656660Y127000D03*
X656660Y135000D03*
X656660Y119000D03*
X633660Y119000D03*
X633660Y127000D03*
X633660Y135000D03*
D10*
X802640Y228600D03*
X1005840Y228600D03*
D11*
X1022350Y8890D03*
X784860Y246380D03*
D12*
X791290Y155000D03*
X791290Y99000D03*
D13*
X828040Y142000D03*
X828040Y132000D03*
X828040Y122000D03*
X828040Y112000D03*
D14*
X895740Y152400D03*
X912740Y152400D03*
D12*
X1017190Y99000D03*
X1017190Y155000D03*
D13*
X980440Y112000D03*
X980440Y122000D03*
X980440Y132000D03*
X980440Y142000D03*
D14*
X800490Y46990D03*
X817490Y46990D03*
D15*
X814270Y57470D02*
X814270Y64450D01*
X821250Y64450D01*
X821250Y57470D01*
X814270Y57470D01*
X814270Y62270D02*
X821250Y62270D01*
X796730Y64450D02*
X796730Y57470D01*
X796730Y64450D02*
X803710Y64450D01*
X803710Y57470D01*
X796730Y57470D01*
X796730Y62270D02*
X803710Y62270D01*
D16*
X894740Y75899D03*
X904240Y75899D03*
X913740Y75899D03*
X913740Y101901D03*
X894740Y101901D03*
D17*
X876140Y168300D03*
X876140Y187300D03*
X855140Y177800D03*
X932340Y187300D03*
X932340Y168300D03*
X953340Y177800D03*
D18*
X840740Y169300D03*
X840740Y186300D03*
X891540Y186300D03*
X891540Y169300D03*
X916940Y169300D03*
X916940Y186300D03*
X967740Y169300D03*
X967740Y186300D03*
X878840Y75320D03*
X878840Y92320D03*
X929640Y92320D03*
X929640Y75320D03*
D19*
X808990Y30607D03*
X808990Y20193D03*
D20*
X866140Y12700D03*
X891540Y12700D03*
X916940Y12700D03*
X942340Y12700D03*
D21*
X915740Y127000D03*
X915740Y135000D03*
X915740Y119000D03*
X892740Y119000D03*
X892740Y127000D03*
X892740Y135000D03*
D10*
X1061720Y228600D03*
X1264920Y228600D03*
D11*
X1281430Y8890D03*
X1043940Y246380D03*
D12*
X1050370Y155000D03*
X1050370Y99000D03*
D13*
X1087120Y142000D03*
X1087120Y132000D03*
X1087120Y122000D03*
X1087120Y112000D03*
D14*
X1154820Y152400D03*
X1171820Y152400D03*
D12*
X1276270Y99000D03*
X1276270Y155000D03*
D13*
X1239520Y112000D03*
X1239520Y122000D03*
X1239520Y132000D03*
X1239520Y142000D03*
D14*
X1059570Y46990D03*
X1076570Y46990D03*
D15*
X1073350Y57470D02*
X1073350Y64450D01*
X1080330Y64450D01*
X1080330Y57470D01*
X1073350Y57470D01*
X1073350Y62270D02*
X1080330Y62270D01*
X1055810Y64450D02*
X1055810Y57470D01*
X1055810Y64450D02*
X1062790Y64450D01*
X1062790Y57470D01*
X1055810Y57470D01*
X1055810Y62270D02*
X1062790Y62270D01*
D16*
X1153820Y75899D03*
X1163320Y75899D03*
X1172820Y75899D03*
X1172820Y101901D03*
X1153820Y101901D03*
D17*
X1135220Y168300D03*
X1135220Y187300D03*
X1114220Y177800D03*
X1191420Y187300D03*
X1191420Y168300D03*
X1212420Y177800D03*
D18*
X1099820Y169300D03*
X1099820Y186300D03*
X1150620Y186300D03*
X1150620Y169300D03*
X1176020Y169300D03*
X1176020Y186300D03*
X1226820Y169300D03*
X1226820Y186300D03*
X1137920Y75320D03*
X1137920Y92320D03*
X1188720Y92320D03*
X1188720Y75320D03*
D19*
X1068070Y30607D03*
X1068070Y20193D03*
D20*
X1125220Y12700D03*
X1150620Y12700D03*
X1176020Y12700D03*
X1201420Y12700D03*
D21*
X1174820Y127000D03*
X1174820Y135000D03*
X1174820Y119000D03*
X1151820Y119000D03*
X1151820Y127000D03*
X1151820Y135000D03*
D10*
X25400Y487680D03*
X228600Y487680D03*
D11*
X245110Y267970D03*
X7620Y505460D03*
D12*
X14050Y414080D03*
X14050Y358080D03*
D13*
X50800Y401080D03*
X50800Y391080D03*
X50800Y381080D03*
X50800Y371080D03*
D14*
X118500Y411480D03*
X135500Y411480D03*
D12*
X239950Y358080D03*
X239950Y414080D03*
D13*
X203200Y371080D03*
X203200Y381080D03*
X203200Y391080D03*
X203200Y401080D03*
D14*
X23250Y306070D03*
X40250Y306070D03*
D15*
X37030Y316550D02*
X37030Y323530D01*
X44010Y323530D01*
X44010Y316550D01*
X37030Y316550D01*
X37030Y321350D02*
X44010Y321350D01*
X19490Y323530D02*
X19490Y316550D01*
X19490Y323530D02*
X26470Y323530D01*
X26470Y316550D01*
X19490Y316550D01*
X19490Y321350D02*
X26470Y321350D01*
D16*
X117500Y334979D03*
X127000Y334979D03*
X136500Y334979D03*
X136500Y360981D03*
X117500Y360981D03*
D17*
X98900Y427380D03*
X98900Y446380D03*
X77900Y436880D03*
X155100Y446380D03*
X155100Y427380D03*
X176100Y436880D03*
D18*
X63500Y428380D03*
X63500Y445380D03*
X114300Y445380D03*
X114300Y428380D03*
X139700Y428380D03*
X139700Y445380D03*
X190500Y428380D03*
X190500Y445380D03*
X101600Y334400D03*
X101600Y351400D03*
X152400Y351400D03*
X152400Y334400D03*
D19*
X31750Y289687D03*
X31750Y279273D03*
D20*
X88900Y271780D03*
X114300Y271780D03*
X139700Y271780D03*
X165100Y271780D03*
D21*
X138500Y386080D03*
X138500Y394080D03*
X138500Y378080D03*
X115500Y378080D03*
X115500Y386080D03*
X115500Y394080D03*
D10*
X284480Y487680D03*
X487680Y487680D03*
D11*
X504190Y267970D03*
X266700Y505460D03*
D12*
X273130Y414080D03*
X273130Y358080D03*
D13*
X309880Y401080D03*
X309880Y391080D03*
X309880Y381080D03*
X309880Y371080D03*
D14*
X377580Y411480D03*
X394580Y411480D03*
D12*
X499030Y358080D03*
X499030Y414080D03*
D13*
X462280Y371080D03*
X462280Y381080D03*
X462280Y391080D03*
X462280Y401080D03*
D14*
X282330Y306070D03*
X299330Y306070D03*
D15*
X296110Y316550D02*
X296110Y323530D01*
X303090Y323530D01*
X303090Y316550D01*
X296110Y316550D01*
X296110Y321350D02*
X303090Y321350D01*
X278570Y323530D02*
X278570Y316550D01*
X278570Y323530D02*
X285550Y323530D01*
X285550Y316550D01*
X278570Y316550D01*
X278570Y321350D02*
X285550Y321350D01*
D16*
X376580Y334979D03*
X386080Y334979D03*
X395580Y334979D03*
X395580Y360981D03*
X376580Y360981D03*
D17*
X357980Y427380D03*
X357980Y446380D03*
X336980Y436880D03*
X414180Y446380D03*
X414180Y427380D03*
X435180Y436880D03*
D18*
X322580Y428380D03*
X322580Y445380D03*
X373380Y445380D03*
X373380Y428380D03*
X398780Y428380D03*
X398780Y445380D03*
X449580Y428380D03*
X449580Y445380D03*
X360680Y334400D03*
X360680Y351400D03*
X411480Y351400D03*
X411480Y334400D03*
D19*
X290830Y289687D03*
X290830Y279273D03*
D20*
X347980Y271780D03*
X373380Y271780D03*
X398780Y271780D03*
X424180Y271780D03*
D21*
X397580Y386080D03*
X397580Y394080D03*
X397580Y378080D03*
X374580Y378080D03*
X374580Y386080D03*
X374580Y394080D03*
D10*
X543560Y487680D03*
X746760Y487680D03*
D11*
X763270Y267970D03*
X525780Y505460D03*
D12*
X532210Y414080D03*
X532210Y358080D03*
D13*
X568960Y401080D03*
X568960Y391080D03*
X568960Y381080D03*
X568960Y371080D03*
D14*
X636660Y411480D03*
X653660Y411480D03*
D12*
X758110Y358080D03*
X758110Y414080D03*
D13*
X721360Y371080D03*
X721360Y381080D03*
X721360Y391080D03*
X721360Y401080D03*
D14*
X541410Y306070D03*
X558410Y306070D03*
D15*
X555190Y316550D02*
X555190Y323530D01*
X562170Y323530D01*
X562170Y316550D01*
X555190Y316550D01*
X555190Y321350D02*
X562170Y321350D01*
X537650Y323530D02*
X537650Y316550D01*
X537650Y323530D02*
X544630Y323530D01*
X544630Y316550D01*
X537650Y316550D01*
X537650Y321350D02*
X544630Y321350D01*
D16*
X635660Y334979D03*
X645160Y334979D03*
X654660Y334979D03*
X654660Y360981D03*
X635660Y360981D03*
D17*
X617060Y427380D03*
X617060Y446380D03*
X596060Y436880D03*
X673260Y446380D03*
X673260Y427380D03*
X694260Y436880D03*
D18*
X581660Y428380D03*
X581660Y445380D03*
X632460Y445380D03*
X632460Y428380D03*
X657860Y428380D03*
X657860Y445380D03*
X708660Y428380D03*
X708660Y445380D03*
X619760Y334400D03*
X619760Y351400D03*
X670560Y351400D03*
X670560Y334400D03*
D19*
X549910Y289687D03*
X549910Y279273D03*
D20*
X607060Y271780D03*
X632460Y271780D03*
X657860Y271780D03*
X683260Y271780D03*
D21*
X656660Y386080D03*
X656660Y394080D03*
X656660Y378080D03*
X633660Y378080D03*
X633660Y386080D03*
X633660Y394080D03*
D10*
X802640Y487680D03*
X1005840Y487680D03*
D11*
X1022350Y267970D03*
X784860Y505460D03*
D12*
X791290Y414080D03*
X791290Y358080D03*
D13*
X828040Y401080D03*
X828040Y391080D03*
X828040Y381080D03*
X828040Y371080D03*
D14*
X895740Y411480D03*
X912740Y411480D03*
D12*
X1017190Y358080D03*
X1017190Y414080D03*
D13*
X980440Y371080D03*
X980440Y381080D03*
X980440Y391080D03*
X980440Y401080D03*
D14*
X800490Y306070D03*
X817490Y306070D03*
D15*
X814270Y316550D02*
X814270Y323530D01*
X821250Y323530D01*
X821250Y316550D01*
X814270Y316550D01*
X814270Y321350D02*
X821250Y321350D01*
X796730Y323530D02*
X796730Y316550D01*
X796730Y323530D02*
X803710Y323530D01*
X803710Y316550D01*
X796730Y316550D01*
X796730Y321350D02*
X803710Y321350D01*
D16*
X894740Y334979D03*
X904240Y334979D03*
X913740Y334979D03*
X913740Y360981D03*
X894740Y360981D03*
D17*
X876140Y427380D03*
X876140Y446380D03*
X855140Y436880D03*
X932340Y446380D03*
X932340Y427380D03*
X953340Y436880D03*
D18*
X840740Y428380D03*
X840740Y445380D03*
X891540Y445380D03*
X891540Y428380D03*
X916940Y428380D03*
X916940Y445380D03*
X967740Y428380D03*
X967740Y445380D03*
X878840Y334400D03*
X878840Y351400D03*
X929640Y351400D03*
X929640Y334400D03*
D19*
X808990Y289687D03*
X808990Y279273D03*
D20*
X866140Y271780D03*
X891540Y271780D03*
X916940Y271780D03*
X942340Y271780D03*
D21*
X915740Y386080D03*
X915740Y394080D03*
X915740Y378080D03*
X892740Y378080D03*
X892740Y386080D03*
X892740Y394080D03*
D10*
X1061720Y487680D03*
X1264920Y487680D03*
D11*
X1281430Y267970D03*
X1043940Y505460D03*
D12*
X1050370Y414080D03*
X1050370Y358080D03*
D13*
X1087120Y401080D03*
X1087120Y391080D03*
X1087120Y381080D03*
X1087120Y371080D03*
D14*
X1154820Y411480D03*
X1171820Y411480D03*
D12*
X1276270Y358080D03*
X1276270Y414080D03*
D13*
X1239520Y371080D03*
X1239520Y381080D03*
X1239520Y391080D03*
X1239520Y401080D03*
D14*
X1059570Y306070D03*
X1076570Y306070D03*
D15*
X1073350Y316550D02*
X1073350Y323530D01*
X1080330Y323530D01*
X1080330Y316550D01*
X1073350Y316550D01*
X1073350Y321350D02*
X1080330Y321350D01*
X1055810Y323530D02*
X1055810Y316550D01*
X1055810Y323530D02*
X1062790Y323530D01*
X1062790Y316550D01*
X1055810Y316550D01*
X1055810Y321350D02*
X1062790Y321350D01*
D16*
X1153820Y334979D03*
X1163320Y334979D03*
X1172820Y334979D03*
X1172820Y360981D03*
X1153820Y360981D03*
D17*
X1135220Y427380D03*
X1135220Y446380D03*
X1114220Y436880D03*
X1191420Y446380D03*
X1191420Y427380D03*
X1212420Y436880D03*
D18*
X1099820Y428380D03*
X1099820Y445380D03*
X1150620Y445380D03*
X1150620Y428380D03*
X1176020Y428380D03*
X1176020Y445380D03*
X1226820Y428380D03*
X1226820Y445380D03*
X1137920Y334400D03*
X1137920Y351400D03*
X1188720Y351400D03*
X1188720Y334400D03*
D19*
X1068070Y289687D03*
X1068070Y279273D03*
D20*
X1125220Y271780D03*
X1150620Y271780D03*
X1176020Y271780D03*
X1201420Y271780D03*
D21*
X1174820Y386080D03*
X1174820Y394080D03*
X1174820Y378080D03*
X1151820Y378080D03*
X1151820Y386080D03*
X1151820Y394080D03*
D10*
X25400Y746760D03*
X228600Y746760D03*
D11*
X245110Y527050D03*
X7620Y764540D03*
D12*
X14050Y673160D03*
X14050Y617160D03*
D13*
X50800Y660160D03*
X50800Y650160D03*
X50800Y640160D03*
X50800Y630160D03*
D14*
X118500Y670560D03*
X135500Y670560D03*
D12*
X239950Y617160D03*
X239950Y673160D03*
D13*
X203200Y630160D03*
X203200Y640160D03*
X203200Y650160D03*
X203200Y660160D03*
D14*
X23250Y565150D03*
X40250Y565150D03*
D15*
X37030Y575630D02*
X37030Y582610D01*
X44010Y582610D01*
X44010Y575630D01*
X37030Y575630D01*
X37030Y580430D02*
X44010Y580430D01*
X19490Y582610D02*
X19490Y575630D01*
X19490Y582610D02*
X26470Y582610D01*
X26470Y575630D01*
X19490Y575630D01*
X19490Y580430D02*
X26470Y580430D01*
D16*
X117500Y594059D03*
X127000Y594059D03*
X136500Y594059D03*
X136500Y620061D03*
X117500Y620061D03*
D17*
X98900Y686460D03*
X98900Y705460D03*
X77900Y695960D03*
X155100Y705460D03*
X155100Y686460D03*
X176100Y695960D03*
D18*
X63500Y687460D03*
X63500Y704460D03*
X114300Y704460D03*
X114300Y687460D03*
X139700Y687460D03*
X139700Y704460D03*
X190500Y687460D03*
X190500Y704460D03*
X101600Y593480D03*
X101600Y610480D03*
X152400Y610480D03*
X152400Y593480D03*
D19*
X31750Y548767D03*
X31750Y538353D03*
D20*
X88900Y530860D03*
X114300Y530860D03*
X139700Y530860D03*
X165100Y530860D03*
D21*
X138500Y645160D03*
X138500Y653160D03*
X138500Y637160D03*
X115500Y637160D03*
X115500Y645160D03*
X115500Y653160D03*
D10*
X284480Y746760D03*
X487680Y746760D03*
D11*
X504190Y527050D03*
X266700Y764540D03*
D12*
X273130Y673160D03*
X273130Y617160D03*
D13*
X309880Y660160D03*
X309880Y650160D03*
X309880Y640160D03*
X309880Y630160D03*
D14*
X377580Y670560D03*
X394580Y670560D03*
D12*
X499030Y617160D03*
X499030Y673160D03*
D13*
X462280Y630160D03*
X462280Y640160D03*
X462280Y650160D03*
X462280Y660160D03*
D14*
X282330Y565150D03*
X299330Y565150D03*
D15*
X296110Y575630D02*
X296110Y582610D01*
X303090Y582610D01*
X303090Y575630D01*
X296110Y575630D01*
X296110Y580430D02*
X303090Y580430D01*
X278570Y582610D02*
X278570Y575630D01*
X278570Y582610D02*
X285550Y582610D01*
X285550Y575630D01*
X278570Y575630D01*
X278570Y580430D02*
X285550Y580430D01*
D16*
X376580Y594059D03*
X386080Y594059D03*
X395580Y594059D03*
X395580Y620061D03*
X376580Y620061D03*
D17*
X357980Y686460D03*
X357980Y705460D03*
X336980Y695960D03*
X414180Y705460D03*
X414180Y686460D03*
X435180Y695960D03*
D18*
X322580Y687460D03*
X322580Y704460D03*
X373380Y704460D03*
X373380Y687460D03*
X398780Y687460D03*
X398780Y704460D03*
X449580Y687460D03*
X449580Y704460D03*
X360680Y593480D03*
X360680Y610480D03*
X411480Y610480D03*
X411480Y593480D03*
D19*
X290830Y548767D03*
X290830Y538353D03*
D20*
X347980Y530860D03*
X373380Y530860D03*
X398780Y530860D03*
X424180Y530860D03*
D21*
X397580Y645160D03*
X397580Y653160D03*
X397580Y637160D03*
X374580Y637160D03*
X374580Y645160D03*
X374580Y653160D03*
D10*
X543560Y746760D03*
X746760Y746760D03*
D11*
X763270Y527050D03*
X525780Y764540D03*
D12*
X532210Y673160D03*
X532210Y617160D03*
D13*
X568960Y660160D03*
X568960Y650160D03*
X568960Y640160D03*
X568960Y630160D03*
D14*
X636660Y670560D03*
X653660Y670560D03*
D12*
X758110Y617160D03*
X758110Y673160D03*
D13*
X721360Y630160D03*
X721360Y640160D03*
X721360Y650160D03*
X721360Y660160D03*
D14*
X541410Y565150D03*
X558410Y565150D03*
D15*
X555190Y575630D02*
X555190Y582610D01*
X562170Y582610D01*
X562170Y575630D01*
X555190Y575630D01*
X555190Y580430D02*
X562170Y580430D01*
X537650Y582610D02*
X537650Y575630D01*
X537650Y582610D02*
X544630Y582610D01*
X544630Y575630D01*
X537650Y575630D01*
X537650Y580430D02*
X544630Y580430D01*
D16*
X635660Y594059D03*
X645160Y594059D03*
X654660Y594059D03*
X654660Y620061D03*
X635660Y620061D03*
D17*
X617060Y686460D03*
X617060Y705460D03*
X596060Y695960D03*
X673260Y705460D03*
X673260Y686460D03*
X694260Y695960D03*
D18*
X581660Y687460D03*
X581660Y704460D03*
X632460Y704460D03*
X632460Y687460D03*
X657860Y687460D03*
X657860Y704460D03*
X708660Y687460D03*
X708660Y704460D03*
X619760Y593480D03*
X619760Y610480D03*
X670560Y610480D03*
X670560Y593480D03*
D19*
X549910Y548767D03*
X549910Y538353D03*
D20*
X607060Y530860D03*
X632460Y530860D03*
X657860Y530860D03*
X683260Y530860D03*
D21*
X656660Y645160D03*
X656660Y653160D03*
X656660Y637160D03*
X633660Y637160D03*
X633660Y645160D03*
X633660Y653160D03*
D10*
X802640Y746760D03*
X1005840Y746760D03*
D11*
X1022350Y527050D03*
X784860Y764540D03*
D12*
X791290Y673160D03*
X791290Y617160D03*
D13*
X828040Y660160D03*
X828040Y650160D03*
X828040Y640160D03*
X828040Y630160D03*
D14*
X895740Y670560D03*
X912740Y670560D03*
D12*
X1017190Y617160D03*
X1017190Y673160D03*
D13*
X980440Y630160D03*
X980440Y640160D03*
X980440Y650160D03*
X980440Y660160D03*
D14*
X800490Y565150D03*
X817490Y565150D03*
D15*
X814270Y575630D02*
X814270Y582610D01*
X821250Y582610D01*
X821250Y575630D01*
X814270Y575630D01*
X814270Y580430D02*
X821250Y580430D01*
X796730Y582610D02*
X796730Y575630D01*
X796730Y582610D02*
X803710Y582610D01*
X803710Y575630D01*
X796730Y575630D01*
X796730Y580430D02*
X803710Y580430D01*
D16*
X894740Y594059D03*
X904240Y594059D03*
X913740Y594059D03*
X913740Y620061D03*
X894740Y620061D03*
D17*
X876140Y686460D03*
X876140Y705460D03*
X855140Y695960D03*
X932340Y705460D03*
X932340Y686460D03*
X953340Y695960D03*
D18*
X840740Y687460D03*
X840740Y704460D03*
X891540Y704460D03*
X891540Y687460D03*
X916940Y687460D03*
X916940Y704460D03*
X967740Y687460D03*
X967740Y704460D03*
X878840Y593480D03*
X878840Y610480D03*
X929640Y610480D03*
X929640Y593480D03*
D19*
X808990Y548767D03*
X808990Y538353D03*
D20*
X866140Y530860D03*
X891540Y530860D03*
X916940Y530860D03*
X942340Y530860D03*
D21*
X915740Y645160D03*
X915740Y653160D03*
X915740Y637160D03*
X892740Y637160D03*
X892740Y645160D03*
X892740Y653160D03*
D10*
X1061720Y746760D03*
X1264920Y746760D03*
D11*
X1281430Y527050D03*
X1043940Y764540D03*
D12*
X1050370Y673160D03*
X1050370Y617160D03*
D13*
X1087120Y660160D03*
X1087120Y650160D03*
X1087120Y640160D03*
X1087120Y630160D03*
D14*
X1154820Y670560D03*
X1171820Y670560D03*
D12*
X1276270Y617160D03*
X1276270Y673160D03*
D13*
X1239520Y630160D03*
X1239520Y640160D03*
X1239520Y650160D03*
X1239520Y660160D03*
D14*
X1059570Y565150D03*
X1076570Y565150D03*
D15*
X1073350Y575630D02*
X1073350Y582610D01*
X1080330Y582610D01*
X1080330Y575630D01*
X1073350Y575630D01*
X1073350Y580430D02*
X1080330Y580430D01*
X1055810Y582610D02*
X1055810Y575630D01*
X1055810Y582610D02*
X1062790Y582610D01*
X1062790Y575630D01*
X1055810Y575630D01*
X1055810Y580430D02*
X1062790Y580430D01*
D16*
X1153820Y594059D03*
X1163320Y594059D03*
X1172820Y594059D03*
X1172820Y620061D03*
X1153820Y620061D03*
D17*
X1135220Y686460D03*
X1135220Y705460D03*
X1114220Y695960D03*
X1191420Y705460D03*
X1191420Y686460D03*
X1212420Y695960D03*
D18*
X1099820Y687460D03*
X1099820Y704460D03*
X1150620Y704460D03*
X1150620Y687460D03*
X1176020Y687460D03*
X1176020Y704460D03*
X1226820Y687460D03*
X1226820Y704460D03*
X1137920Y593480D03*
X1137920Y610480D03*
X1188720Y610480D03*
X1188720Y593480D03*
D19*
X1068070Y548767D03*
X1068070Y538353D03*
D20*
X1125220Y530860D03*
X1150620Y530860D03*
X1176020Y530860D03*
X1201420Y530860D03*
D21*
X1174820Y645160D03*
X1174820Y653160D03*
X1174820Y637160D03*
X1151820Y637160D03*
X1151820Y645160D03*
X1151820Y653160D03*
D10*
X25400Y1005840D03*
X228600Y1005840D03*
D11*
X245110Y786130D03*
X7620Y1023620D03*
D12*
X14050Y932240D03*
X14050Y876240D03*
D13*
X50800Y919240D03*
X50800Y909240D03*
X50800Y899240D03*
X50800Y889240D03*
D14*
X118500Y929640D03*
X135500Y929640D03*
D12*
X239950Y876240D03*
X239950Y932240D03*
D13*
X203200Y889240D03*
X203200Y899240D03*
X203200Y909240D03*
X203200Y919240D03*
D14*
X23250Y824230D03*
X40250Y824230D03*
D15*
X37030Y834710D02*
X37030Y841690D01*
X44010Y841690D01*
X44010Y834710D01*
X37030Y834710D01*
X37030Y839510D02*
X44010Y839510D01*
X19490Y841690D02*
X19490Y834710D01*
X19490Y841690D02*
X26470Y841690D01*
X26470Y834710D01*
X19490Y834710D01*
X19490Y839510D02*
X26470Y839510D01*
D16*
X117500Y853139D03*
X127000Y853139D03*
X136500Y853139D03*
X136500Y879141D03*
X117500Y879141D03*
D17*
X98900Y945540D03*
X98900Y964540D03*
X77900Y955040D03*
X155100Y964540D03*
X155100Y945540D03*
X176100Y955040D03*
D18*
X63500Y946540D03*
X63500Y963540D03*
X114300Y963540D03*
X114300Y946540D03*
X139700Y946540D03*
X139700Y963540D03*
X190500Y946540D03*
X190500Y963540D03*
X101600Y852560D03*
X101600Y869560D03*
X152400Y869560D03*
X152400Y852560D03*
D19*
X31750Y807847D03*
X31750Y797433D03*
D20*
X88900Y789940D03*
X114300Y789940D03*
X139700Y789940D03*
X165100Y789940D03*
D21*
X138500Y904240D03*
X138500Y912240D03*
X138500Y896240D03*
X115500Y896240D03*
X115500Y904240D03*
X115500Y912240D03*
D10*
X284480Y1005840D03*
X487680Y1005840D03*
D11*
X504190Y786130D03*
X266700Y1023620D03*
D12*
X273130Y932240D03*
X273130Y876240D03*
D13*
X309880Y919240D03*
X309880Y909240D03*
X309880Y899240D03*
X309880Y889240D03*
D14*
X377580Y929640D03*
X394580Y929640D03*
D12*
X499030Y876240D03*
X499030Y932240D03*
D13*
X462280Y889240D03*
X462280Y899240D03*
X462280Y909240D03*
X462280Y919240D03*
D14*
X282330Y824230D03*
X299330Y824230D03*
D15*
X296110Y834710D02*
X296110Y841690D01*
X303090Y841690D01*
X303090Y834710D01*
X296110Y834710D01*
X296110Y839510D02*
X303090Y839510D01*
X278570Y841690D02*
X278570Y834710D01*
X278570Y841690D02*
X285550Y841690D01*
X285550Y834710D01*
X278570Y834710D01*
X278570Y839510D02*
X285550Y839510D01*
D16*
X376580Y853139D03*
X386080Y853139D03*
X395580Y853139D03*
X395580Y879141D03*
X376580Y879141D03*
D17*
X357980Y945540D03*
X357980Y964540D03*
X336980Y955040D03*
X414180Y964540D03*
X414180Y945540D03*
X435180Y955040D03*
D18*
X322580Y946540D03*
X322580Y963540D03*
X373380Y963540D03*
X373380Y946540D03*
X398780Y946540D03*
X398780Y963540D03*
X449580Y946540D03*
X449580Y963540D03*
X360680Y852560D03*
X360680Y869560D03*
X411480Y869560D03*
X411480Y852560D03*
D19*
X290830Y807847D03*
X290830Y797433D03*
D20*
X347980Y789940D03*
X373380Y789940D03*
X398780Y789940D03*
X424180Y789940D03*
D21*
X397580Y904240D03*
X397580Y912240D03*
X397580Y896240D03*
X374580Y896240D03*
X374580Y904240D03*
X374580Y912240D03*
D10*
X543560Y1005840D03*
X746760Y1005840D03*
D11*
X763270Y786130D03*
X525780Y1023620D03*
D12*
X532210Y932240D03*
X532210Y876240D03*
D13*
X568960Y919240D03*
X568960Y909240D03*
X568960Y899240D03*
X568960Y889240D03*
D14*
X636660Y929640D03*
X653660Y929640D03*
D12*
X758110Y876240D03*
X758110Y932240D03*
D13*
X721360Y889240D03*
X721360Y899240D03*
X721360Y909240D03*
X721360Y919240D03*
D14*
X541410Y824230D03*
X558410Y824230D03*
D15*
X555190Y834710D02*
X555190Y841690D01*
X562170Y841690D01*
X562170Y834710D01*
X555190Y834710D01*
X555190Y839510D02*
X562170Y839510D01*
X537650Y841690D02*
X537650Y834710D01*
X537650Y841690D02*
X544630Y841690D01*
X544630Y834710D01*
X537650Y834710D01*
X537650Y839510D02*
X544630Y839510D01*
D16*
X635660Y853139D03*
X645160Y853139D03*
X654660Y853139D03*
X654660Y879141D03*
X635660Y879141D03*
D17*
X617060Y945540D03*
X617060Y964540D03*
X596060Y955040D03*
X673260Y964540D03*
X673260Y945540D03*
X694260Y955040D03*
D18*
X581660Y946540D03*
X581660Y963540D03*
X632460Y963540D03*
X632460Y946540D03*
X657860Y946540D03*
X657860Y963540D03*
X708660Y946540D03*
X708660Y963540D03*
X619760Y852560D03*
X619760Y869560D03*
X670560Y869560D03*
X670560Y852560D03*
D19*
X549910Y807847D03*
X549910Y797433D03*
D20*
X607060Y789940D03*
X632460Y789940D03*
X657860Y789940D03*
X683260Y789940D03*
D21*
X656660Y904240D03*
X656660Y912240D03*
X656660Y896240D03*
X633660Y896240D03*
X633660Y904240D03*
X633660Y912240D03*
D10*
X802640Y1005840D03*
X1005840Y1005840D03*
D11*
X1022350Y786130D03*
X784860Y1023620D03*
D12*
X791290Y932240D03*
X791290Y876240D03*
D13*
X828040Y919240D03*
X828040Y909240D03*
X828040Y899240D03*
X828040Y889240D03*
D14*
X895740Y929640D03*
X912740Y929640D03*
D12*
X1017190Y876240D03*
X1017190Y932240D03*
D13*
X980440Y889240D03*
X980440Y899240D03*
X980440Y909240D03*
X980440Y919240D03*
D14*
X800490Y824230D03*
X817490Y824230D03*
D15*
X814270Y834710D02*
X814270Y841690D01*
X821250Y841690D01*
X821250Y834710D01*
X814270Y834710D01*
X814270Y839510D02*
X821250Y839510D01*
X796730Y841690D02*
X796730Y834710D01*
X796730Y841690D02*
X803710Y841690D01*
X803710Y834710D01*
X796730Y834710D01*
X796730Y839510D02*
X803710Y839510D01*
D16*
X894740Y853139D03*
X904240Y853139D03*
X913740Y853139D03*
X913740Y879141D03*
X894740Y879141D03*
D17*
X876140Y945540D03*
X876140Y964540D03*
X855140Y955040D03*
X932340Y964540D03*
X932340Y945540D03*
X953340Y955040D03*
D18*
X840740Y946540D03*
X840740Y963540D03*
X891540Y963540D03*
X891540Y946540D03*
X916940Y946540D03*
X916940Y963540D03*
X967740Y946540D03*
X967740Y963540D03*
X878840Y852560D03*
X878840Y869560D03*
X929640Y869560D03*
X929640Y852560D03*
D19*
X808990Y807847D03*
X808990Y797433D03*
D20*
X866140Y789940D03*
X891540Y789940D03*
X916940Y789940D03*
X942340Y789940D03*
D21*
X915740Y904240D03*
X915740Y912240D03*
X915740Y896240D03*
X892740Y896240D03*
X892740Y904240D03*
X892740Y912240D03*
D10*
X1061720Y1005840D03*
X1264920Y1005840D03*
D11*
X1281430Y786130D03*
X1043940Y1023620D03*
D12*
X1050370Y932240D03*
X1050370Y876240D03*
D13*
X1087120Y919240D03*
X1087120Y909240D03*
X1087120Y899240D03*
X1087120Y889240D03*
D14*
X1154820Y929640D03*
X1171820Y929640D03*
D12*
X1276270Y876240D03*
X1276270Y932240D03*
D13*
X1239520Y889240D03*
X1239520Y899240D03*
X1239520Y909240D03*
X1239520Y919240D03*
D14*
X1059570Y824230D03*
X1076570Y824230D03*
D15*
X1073350Y834710D02*
X1073350Y841690D01*
X1080330Y841690D01*
X1080330Y834710D01*
X1073350Y834710D01*
X1073350Y839510D02*
X1080330Y839510D01*
X1055810Y841690D02*
X1055810Y834710D01*
X1055810Y841690D02*
X1062790Y841690D01*
X1062790Y834710D01*
X1055810Y834710D01*
X1055810Y839510D02*
X1062790Y839510D01*
D16*
X1153820Y853139D03*
X1163320Y853139D03*
X1172820Y853139D03*
X1172820Y879141D03*
X1153820Y879141D03*
D17*
X1135220Y945540D03*
X1135220Y964540D03*
X1114220Y955040D03*
X1191420Y964540D03*
X1191420Y945540D03*
X1212420Y955040D03*
D18*
X1099820Y946540D03*
X1099820Y963540D03*
X1150620Y963540D03*
X1150620Y946540D03*
X1176020Y946540D03*
X1176020Y963540D03*
X1226820Y946540D03*
X1226820Y963540D03*
X1137920Y852560D03*
X1137920Y869560D03*
X1188720Y869560D03*
X1188720Y852560D03*
D19*
X1068070Y807847D03*
X1068070Y797433D03*
D20*
X1125220Y789940D03*
X1150620Y789940D03*
X1176020Y789940D03*
X1201420Y789940D03*
D21*
X1174820Y904240D03*
X1174820Y912240D03*
X1174820Y896240D03*
X1151820Y896240D03*
X1151820Y904240D03*
X1151820Y912240D03*
D10*
X25400Y1264920D03*
X228600Y1264920D03*
D11*
X245110Y1045210D03*
X7620Y1282700D03*
D12*
X14050Y1191320D03*
X14050Y1135320D03*
D13*
X50800Y1178320D03*
X50800Y1168320D03*
X50800Y1158320D03*
X50800Y1148320D03*
D14*
X118500Y1188720D03*
X135500Y1188720D03*
D12*
X239950Y1135320D03*
X239950Y1191320D03*
D13*
X203200Y1148320D03*
X203200Y1158320D03*
X203200Y1168320D03*
X203200Y1178320D03*
D14*
X23250Y1083310D03*
X40250Y1083310D03*
D15*
X37030Y1093790D02*
X37030Y1100770D01*
X44010Y1100770D01*
X44010Y1093790D01*
X37030Y1093790D01*
X37030Y1098590D02*
X44010Y1098590D01*
X19490Y1100770D02*
X19490Y1093790D01*
X19490Y1100770D02*
X26470Y1100770D01*
X26470Y1093790D01*
X19490Y1093790D01*
X19490Y1098590D02*
X26470Y1098590D01*
D16*
X117500Y1112219D03*
X127000Y1112219D03*
X136500Y1112219D03*
X136500Y1138221D03*
X117500Y1138221D03*
D17*
X98900Y1204620D03*
X98900Y1223620D03*
X77900Y1214120D03*
X155100Y1223620D03*
X155100Y1204620D03*
X176100Y1214120D03*
D18*
X63500Y1205620D03*
X63500Y1222620D03*
X114300Y1222620D03*
X114300Y1205620D03*
X139700Y1205620D03*
X139700Y1222620D03*
X190500Y1205620D03*
X190500Y1222620D03*
X101600Y1111640D03*
X101600Y1128640D03*
X152400Y1128640D03*
X152400Y1111640D03*
D19*
X31750Y1066927D03*
X31750Y1056513D03*
D20*
X88900Y1049020D03*
X114300Y1049020D03*
X139700Y1049020D03*
X165100Y1049020D03*
D21*
X138500Y1163320D03*
X138500Y1171320D03*
X138500Y1155320D03*
X115500Y1155320D03*
X115500Y1163320D03*
X115500Y1171320D03*
D10*
X284480Y1264920D03*
X487680Y1264920D03*
D11*
X504190Y1045210D03*
X266700Y1282700D03*
D12*
X273130Y1191320D03*
X273130Y1135320D03*
D13*
X309880Y1178320D03*
X309880Y1168320D03*
X309880Y1158320D03*
X309880Y1148320D03*
D14*
X377580Y1188720D03*
X394580Y1188720D03*
D12*
X499030Y1135320D03*
X499030Y1191320D03*
D13*
X462280Y1148320D03*
X462280Y1158320D03*
X462280Y1168320D03*
X462280Y1178320D03*
D14*
X282330Y1083310D03*
X299330Y1083310D03*
D15*
X296110Y1093790D02*
X296110Y1100770D01*
X303090Y1100770D01*
X303090Y1093790D01*
X296110Y1093790D01*
X296110Y1098590D02*
X303090Y1098590D01*
X278570Y1100770D02*
X278570Y1093790D01*
X278570Y1100770D02*
X285550Y1100770D01*
X285550Y1093790D01*
X278570Y1093790D01*
X278570Y1098590D02*
X285550Y1098590D01*
D16*
X376580Y1112219D03*
X386080Y1112219D03*
X395580Y1112219D03*
X395580Y1138221D03*
X376580Y1138221D03*
D17*
X357980Y1204620D03*
X357980Y1223620D03*
X336980Y1214120D03*
X414180Y1223620D03*
X414180Y1204620D03*
X435180Y1214120D03*
D18*
X322580Y1205620D03*
X322580Y1222620D03*
X373380Y1222620D03*
X373380Y1205620D03*
X398780Y1205620D03*
X398780Y1222620D03*
X449580Y1205620D03*
X449580Y1222620D03*
X360680Y1111640D03*
X360680Y1128640D03*
X411480Y1128640D03*
X411480Y1111640D03*
D19*
X290830Y1066927D03*
X290830Y1056513D03*
D20*
X347980Y1049020D03*
X373380Y1049020D03*
X398780Y1049020D03*
X424180Y1049020D03*
D21*
X397580Y1163320D03*
X397580Y1171320D03*
X397580Y1155320D03*
X374580Y1155320D03*
X374580Y1163320D03*
X374580Y1171320D03*
D10*
X543560Y1264920D03*
X746760Y1264920D03*
D11*
X763270Y1045210D03*
X525780Y1282700D03*
D12*
X532210Y1191320D03*
X532210Y1135320D03*
D13*
X568960Y1178320D03*
X568960Y1168320D03*
X568960Y1158320D03*
X568960Y1148320D03*
D14*
X636660Y1188720D03*
X653660Y1188720D03*
D12*
X758110Y1135320D03*
X758110Y1191320D03*
D13*
X721360Y1148320D03*
X721360Y1158320D03*
X721360Y1168320D03*
X721360Y1178320D03*
D14*
X541410Y1083310D03*
X558410Y1083310D03*
D15*
X555190Y1093790D02*
X555190Y1100770D01*
X562170Y1100770D01*
X562170Y1093790D01*
X555190Y1093790D01*
X555190Y1098590D02*
X562170Y1098590D01*
X537650Y1100770D02*
X537650Y1093790D01*
X537650Y1100770D02*
X544630Y1100770D01*
X544630Y1093790D01*
X537650Y1093790D01*
X537650Y1098590D02*
X544630Y1098590D01*
D16*
X635660Y1112219D03*
X645160Y1112219D03*
X654660Y1112219D03*
X654660Y1138221D03*
X635660Y1138221D03*
D17*
X617060Y1204620D03*
X617060Y1223620D03*
X596060Y1214120D03*
X673260Y1223620D03*
X673260Y1204620D03*
X694260Y1214120D03*
D18*
X581660Y1205620D03*
X581660Y1222620D03*
X632460Y1222620D03*
X632460Y1205620D03*
X657860Y1205620D03*
X657860Y1222620D03*
X708660Y1205620D03*
X708660Y1222620D03*
X619760Y1111640D03*
X619760Y1128640D03*
X670560Y1128640D03*
X670560Y1111640D03*
D19*
X549910Y1066927D03*
X549910Y1056513D03*
D20*
X607060Y1049020D03*
X632460Y1049020D03*
X657860Y1049020D03*
X683260Y1049020D03*
D21*
X656660Y1163320D03*
X656660Y1171320D03*
X656660Y1155320D03*
X633660Y1155320D03*
X633660Y1163320D03*
X633660Y1171320D03*
D10*
X802640Y1264920D03*
X1005840Y1264920D03*
D11*
X1022350Y1045210D03*
X784860Y1282700D03*
D12*
X791290Y1191320D03*
X791290Y1135320D03*
D13*
X828040Y1178320D03*
X828040Y1168320D03*
X828040Y1158320D03*
X828040Y1148320D03*
D14*
X895740Y1188720D03*
X912740Y1188720D03*
D12*
X1017190Y1135320D03*
X1017190Y1191320D03*
D13*
X980440Y1148320D03*
X980440Y1158320D03*
X980440Y1168320D03*
X980440Y1178320D03*
D14*
X800490Y1083310D03*
X817490Y1083310D03*
D15*
X814270Y1093790D02*
X814270Y1100770D01*
X821250Y1100770D01*
X821250Y1093790D01*
X814270Y1093790D01*
X814270Y1098590D02*
X821250Y1098590D01*
X796730Y1100770D02*
X796730Y1093790D01*
X796730Y1100770D02*
X803710Y1100770D01*
X803710Y1093790D01*
X796730Y1093790D01*
X796730Y1098590D02*
X803710Y1098590D01*
D16*
X894740Y1112219D03*
X904240Y1112219D03*
X913740Y1112219D03*
X913740Y1138221D03*
X894740Y1138221D03*
D17*
X876140Y1204620D03*
X876140Y1223620D03*
X855140Y1214120D03*
X932340Y1223620D03*
X932340Y1204620D03*
X953340Y1214120D03*
D18*
X840740Y1205620D03*
X840740Y1222620D03*
X891540Y1222620D03*
X891540Y1205620D03*
X916940Y1205620D03*
X916940Y1222620D03*
X967740Y1205620D03*
X967740Y1222620D03*
X878840Y1111640D03*
X878840Y1128640D03*
X929640Y1128640D03*
X929640Y1111640D03*
D19*
X808990Y1066927D03*
X808990Y1056513D03*
D20*
X866140Y1049020D03*
X891540Y1049020D03*
X916940Y1049020D03*
X942340Y1049020D03*
D21*
X915740Y1163320D03*
X915740Y1171320D03*
X915740Y1155320D03*
X892740Y1155320D03*
X892740Y1163320D03*
X892740Y1171320D03*
D10*
X1061720Y1264920D03*
X1264920Y1264920D03*
D11*
X1281430Y1045210D03*
X1043940Y1282700D03*
D12*
X1050370Y1191320D03*
X1050370Y1135320D03*
D13*
X1087120Y1178320D03*
X1087120Y1168320D03*
X1087120Y1158320D03*
X1087120Y1148320D03*
D14*
X1154820Y1188720D03*
X1171820Y1188720D03*
D12*
X1276270Y1135320D03*
X1276270Y1191320D03*
D13*
X1239520Y1148320D03*
X1239520Y1158320D03*
X1239520Y1168320D03*
X1239520Y1178320D03*
D14*
X1059570Y1083310D03*
X1076570Y1083310D03*
D15*
X1073350Y1093790D02*
X1073350Y1100770D01*
X1080330Y1100770D01*
X1080330Y1093790D01*
X1073350Y1093790D01*
X1073350Y1098590D02*
X1080330Y1098590D01*
X1055810Y1100770D02*
X1055810Y1093790D01*
X1055810Y1100770D02*
X1062790Y1100770D01*
X1062790Y1093790D01*
X1055810Y1093790D01*
X1055810Y1098590D02*
X1062790Y1098590D01*
D16*
X1153820Y1112219D03*
X1163320Y1112219D03*
X1172820Y1112219D03*
X1172820Y1138221D03*
X1153820Y1138221D03*
D17*
X1135220Y1204620D03*
X1135220Y1223620D03*
X1114220Y1214120D03*
X1191420Y1223620D03*
X1191420Y1204620D03*
X1212420Y1214120D03*
D18*
X1099820Y1205620D03*
X1099820Y1222620D03*
X1150620Y1222620D03*
X1150620Y1205620D03*
X1176020Y1205620D03*
X1176020Y1222620D03*
X1226820Y1205620D03*
X1226820Y1222620D03*
X1137920Y1111640D03*
X1137920Y1128640D03*
X1188720Y1128640D03*
X1188720Y1111640D03*
D19*
X1068070Y1066927D03*
X1068070Y1056513D03*
D20*
X1125220Y1049020D03*
X1150620Y1049020D03*
X1176020Y1049020D03*
X1201420Y1049020D03*
D21*
X1174820Y1163320D03*
X1174820Y1171320D03*
X1174820Y1155320D03*
X1151820Y1155320D03*
X1151820Y1163320D03*
X1151820Y1171320D03*
D10*
X25400Y1524000D03*
X228600Y1524000D03*
D11*
X245110Y1304290D03*
X7620Y1541780D03*
D12*
X14050Y1450400D03*
X14050Y1394400D03*
D13*
X50800Y1437400D03*
X50800Y1427400D03*
X50800Y1417400D03*
X50800Y1407400D03*
D14*
X118500Y1447800D03*
X135500Y1447800D03*
D12*
X239950Y1394400D03*
X239950Y1450400D03*
D13*
X203200Y1407400D03*
X203200Y1417400D03*
X203200Y1427400D03*
X203200Y1437400D03*
D14*
X23250Y1342390D03*
X40250Y1342390D03*
D15*
X37030Y1352870D02*
X37030Y1359850D01*
X44010Y1359850D01*
X44010Y1352870D01*
X37030Y1352870D01*
X37030Y1357670D02*
X44010Y1357670D01*
X19490Y1359850D02*
X19490Y1352870D01*
X19490Y1359850D02*
X26470Y1359850D01*
X26470Y1352870D01*
X19490Y1352870D01*
X19490Y1357670D02*
X26470Y1357670D01*
D16*
X117500Y1371299D03*
X127000Y1371299D03*
X136500Y1371299D03*
X136500Y1397301D03*
X117500Y1397301D03*
D17*
X98900Y1463700D03*
X98900Y1482700D03*
X77900Y1473200D03*
X155100Y1482700D03*
X155100Y1463700D03*
X176100Y1473200D03*
D18*
X63500Y1464700D03*
X63500Y1481700D03*
X114300Y1481700D03*
X114300Y1464700D03*
X139700Y1464700D03*
X139700Y1481700D03*
X190500Y1464700D03*
X190500Y1481700D03*
X101600Y1370720D03*
X101600Y1387720D03*
X152400Y1387720D03*
X152400Y1370720D03*
D19*
X31750Y1326007D03*
X31750Y1315593D03*
D20*
X88900Y1308100D03*
X114300Y1308100D03*
X139700Y1308100D03*
X165100Y1308100D03*
D21*
X138500Y1422400D03*
X138500Y1430400D03*
X138500Y1414400D03*
X115500Y1414400D03*
X115500Y1422400D03*
X115500Y1430400D03*
D10*
X284480Y1524000D03*
X487680Y1524000D03*
D11*
X504190Y1304290D03*
X266700Y1541780D03*
D12*
X273130Y1450400D03*
X273130Y1394400D03*
D13*
X309880Y1437400D03*
X309880Y1427400D03*
X309880Y1417400D03*
X309880Y1407400D03*
D14*
X377580Y1447800D03*
X394580Y1447800D03*
D12*
X499030Y1394400D03*
X499030Y1450400D03*
D13*
X462280Y1407400D03*
X462280Y1417400D03*
X462280Y1427400D03*
X462280Y1437400D03*
D14*
X282330Y1342390D03*
X299330Y1342390D03*
D15*
X296110Y1352870D02*
X296110Y1359850D01*
X303090Y1359850D01*
X303090Y1352870D01*
X296110Y1352870D01*
X296110Y1357670D02*
X303090Y1357670D01*
X278570Y1359850D02*
X278570Y1352870D01*
X278570Y1359850D02*
X285550Y1359850D01*
X285550Y1352870D01*
X278570Y1352870D01*
X278570Y1357670D02*
X285550Y1357670D01*
D16*
X376580Y1371299D03*
X386080Y1371299D03*
X395580Y1371299D03*
X395580Y1397301D03*
X376580Y1397301D03*
D17*
X357980Y1463700D03*
X357980Y1482700D03*
X336980Y1473200D03*
X414180Y1482700D03*
X414180Y1463700D03*
X435180Y1473200D03*
D18*
X322580Y1464700D03*
X322580Y1481700D03*
X373380Y1481700D03*
X373380Y1464700D03*
X398780Y1464700D03*
X398780Y1481700D03*
X449580Y1464700D03*
X449580Y1481700D03*
X360680Y1370720D03*
X360680Y1387720D03*
X411480Y1387720D03*
X411480Y1370720D03*
D19*
X290830Y1326007D03*
X290830Y1315593D03*
D20*
X347980Y1308100D03*
X373380Y1308100D03*
X398780Y1308100D03*
X424180Y1308100D03*
D21*
X397580Y1422400D03*
X397580Y1430400D03*
X397580Y1414400D03*
X374580Y1414400D03*
X374580Y1422400D03*
X374580Y1430400D03*
D10*
X543560Y1524000D03*
X746760Y1524000D03*
D11*
X763270Y1304290D03*
X525780Y1541780D03*
D12*
X532210Y1450400D03*
X532210Y1394400D03*
D13*
X568960Y1437400D03*
X568960Y1427400D03*
X568960Y1417400D03*
X568960Y1407400D03*
D14*
X636660Y1447800D03*
X653660Y1447800D03*
D12*
X758110Y1394400D03*
X758110Y1450400D03*
D13*
X721360Y1407400D03*
X721360Y1417400D03*
X721360Y1427400D03*
X721360Y1437400D03*
D14*
X541410Y1342390D03*
X558410Y1342390D03*
D15*
X555190Y1352870D02*
X555190Y1359850D01*
X562170Y1359850D01*
X562170Y1352870D01*
X555190Y1352870D01*
X555190Y1357670D02*
X562170Y1357670D01*
X537650Y1359850D02*
X537650Y1352870D01*
X537650Y1359850D02*
X544630Y1359850D01*
X544630Y1352870D01*
X537650Y1352870D01*
X537650Y1357670D02*
X544630Y1357670D01*
D16*
X635660Y1371299D03*
X645160Y1371299D03*
X654660Y1371299D03*
X654660Y1397301D03*
X635660Y1397301D03*
D17*
X617060Y1463700D03*
X617060Y1482700D03*
X596060Y1473200D03*
X673260Y1482700D03*
X673260Y1463700D03*
X694260Y1473200D03*
D18*
X581660Y1464700D03*
X581660Y1481700D03*
X632460Y1481700D03*
X632460Y1464700D03*
X657860Y1464700D03*
X657860Y1481700D03*
X708660Y1464700D03*
X708660Y1481700D03*
X619760Y1370720D03*
X619760Y1387720D03*
X670560Y1387720D03*
X670560Y1370720D03*
D19*
X549910Y1326007D03*
X549910Y1315593D03*
D20*
X607060Y1308100D03*
X632460Y1308100D03*
X657860Y1308100D03*
X683260Y1308100D03*
D21*
X656660Y1422400D03*
X656660Y1430400D03*
X656660Y1414400D03*
X633660Y1414400D03*
X633660Y1422400D03*
X633660Y1430400D03*
D10*
X802640Y1524000D03*
X1005840Y1524000D03*
D11*
X1022350Y1304290D03*
X784860Y1541780D03*
D12*
X791290Y1450400D03*
X791290Y1394400D03*
D13*
X828040Y1437400D03*
X828040Y1427400D03*
X828040Y1417400D03*
X828040Y1407400D03*
D14*
X895740Y1447800D03*
X912740Y1447800D03*
D12*
X1017190Y1394400D03*
X1017190Y1450400D03*
D13*
X980440Y1407400D03*
X980440Y1417400D03*
X980440Y1427400D03*
X980440Y1437400D03*
D14*
X800490Y1342390D03*
X817490Y1342390D03*
D15*
X814270Y1352870D02*
X814270Y1359850D01*
X821250Y1359850D01*
X821250Y1352870D01*
X814270Y1352870D01*
X814270Y1357670D02*
X821250Y1357670D01*
X796730Y1359850D02*
X796730Y1352870D01*
X796730Y1359850D02*
X803710Y1359850D01*
X803710Y1352870D01*
X796730Y1352870D01*
X796730Y1357670D02*
X803710Y1357670D01*
D16*
X894740Y1371299D03*
X904240Y1371299D03*
X913740Y1371299D03*
X913740Y1397301D03*
X894740Y1397301D03*
D17*
X876140Y1463700D03*
X876140Y1482700D03*
X855140Y1473200D03*
X932340Y1482700D03*
X932340Y1463700D03*
X953340Y1473200D03*
D18*
X840740Y1464700D03*
X840740Y1481700D03*
X891540Y1481700D03*
X891540Y1464700D03*
X916940Y1464700D03*
X916940Y1481700D03*
X967740Y1464700D03*
X967740Y1481700D03*
X878840Y1370720D03*
X878840Y1387720D03*
X929640Y1387720D03*
X929640Y1370720D03*
D19*
X808990Y1326007D03*
X808990Y1315593D03*
D20*
X866140Y1308100D03*
X891540Y1308100D03*
X916940Y1308100D03*
X942340Y1308100D03*
D21*
X915740Y1422400D03*
X915740Y1430400D03*
X915740Y1414400D03*
X892740Y1414400D03*
X892740Y1422400D03*
X892740Y1430400D03*
D10*
X1061720Y1524000D03*
X1264920Y1524000D03*
D11*
X1281430Y1304290D03*
X1043940Y1541780D03*
D12*
X1050370Y1450400D03*
X1050370Y1394400D03*
D13*
X1087120Y1437400D03*
X1087120Y1427400D03*
X1087120Y1417400D03*
X1087120Y1407400D03*
D14*
X1154820Y1447800D03*
X1171820Y1447800D03*
D12*
X1276270Y1394400D03*
X1276270Y1450400D03*
D13*
X1239520Y1407400D03*
X1239520Y1417400D03*
X1239520Y1427400D03*
X1239520Y1437400D03*
D14*
X1059570Y1342390D03*
X1076570Y1342390D03*
D15*
X1073350Y1352870D02*
X1073350Y1359850D01*
X1080330Y1359850D01*
X1080330Y1352870D01*
X1073350Y1352870D01*
X1073350Y1357670D02*
X1080330Y1357670D01*
X1055810Y1359850D02*
X1055810Y1352870D01*
X1055810Y1359850D02*
X1062790Y1359850D01*
X1062790Y1352870D01*
X1055810Y1352870D01*
X1055810Y1357670D02*
X1062790Y1357670D01*
D16*
X1153820Y1371299D03*
X1163320Y1371299D03*
X1172820Y1371299D03*
X1172820Y1397301D03*
X1153820Y1397301D03*
D17*
X1135220Y1463700D03*
X1135220Y1482700D03*
X1114220Y1473200D03*
X1191420Y1482700D03*
X1191420Y1463700D03*
X1212420Y1473200D03*
D18*
X1099820Y1464700D03*
X1099820Y1481700D03*
X1150620Y1481700D03*
X1150620Y1464700D03*
X1176020Y1464700D03*
X1176020Y1481700D03*
X1226820Y1464700D03*
X1226820Y1481700D03*
X1137920Y1370720D03*
X1137920Y1387720D03*
X1188720Y1387720D03*
X1188720Y1370720D03*
D19*
X1068070Y1326007D03*
X1068070Y1315593D03*
D20*
X1125220Y1308100D03*
X1150620Y1308100D03*
X1176020Y1308100D03*
X1201420Y1308100D03*
D21*
X1174820Y1422400D03*
X1174820Y1430400D03*
X1174820Y1414400D03*
X1151820Y1414400D03*
X1151820Y1422400D03*
X1151820Y1430400D03*
D10*
X25400Y1783080D03*
X228600Y1783080D03*
D11*
X245110Y1563370D03*
X7620Y1800860D03*
D12*
X14050Y1709480D03*
X14050Y1653480D03*
D13*
X50800Y1696480D03*
X50800Y1686480D03*
X50800Y1676480D03*
X50800Y1666480D03*
D14*
X118500Y1706880D03*
X135500Y1706880D03*
D12*
X239950Y1653480D03*
X239950Y1709480D03*
D13*
X203200Y1666480D03*
X203200Y1676480D03*
X203200Y1686480D03*
X203200Y1696480D03*
D14*
X23250Y1601470D03*
X40250Y1601470D03*
D15*
X37030Y1611950D02*
X37030Y1618930D01*
X44010Y1618930D01*
X44010Y1611950D01*
X37030Y1611950D01*
X37030Y1616750D02*
X44010Y1616750D01*
X19490Y1618930D02*
X19490Y1611950D01*
X19490Y1618930D02*
X26470Y1618930D01*
X26470Y1611950D01*
X19490Y1611950D01*
X19490Y1616750D02*
X26470Y1616750D01*
D16*
X117500Y1630379D03*
X127000Y1630379D03*
X136500Y1630379D03*
X136500Y1656381D03*
X117500Y1656381D03*
D17*
X98900Y1722780D03*
X98900Y1741780D03*
X77900Y1732280D03*
X155100Y1741780D03*
X155100Y1722780D03*
X176100Y1732280D03*
D18*
X63500Y1723780D03*
X63500Y1740780D03*
X114300Y1740780D03*
X114300Y1723780D03*
X139700Y1723780D03*
X139700Y1740780D03*
X190500Y1723780D03*
X190500Y1740780D03*
X101600Y1629800D03*
X101600Y1646800D03*
X152400Y1646800D03*
X152400Y1629800D03*
D19*
X31750Y1585087D03*
X31750Y1574673D03*
D20*
X88900Y1567180D03*
X114300Y1567180D03*
X139700Y1567180D03*
X165100Y1567180D03*
D21*
X138500Y1681480D03*
X138500Y1689480D03*
X138500Y1673480D03*
X115500Y1673480D03*
X115500Y1681480D03*
X115500Y1689480D03*
D10*
X284480Y1783080D03*
X487680Y1783080D03*
D11*
X504190Y1563370D03*
X266700Y1800860D03*
D12*
X273130Y1709480D03*
X273130Y1653480D03*
D13*
X309880Y1696480D03*
X309880Y1686480D03*
X309880Y1676480D03*
X309880Y1666480D03*
D14*
X377580Y1706880D03*
X394580Y1706880D03*
D12*
X499030Y1653480D03*
X499030Y1709480D03*
D13*
X462280Y1666480D03*
X462280Y1676480D03*
X462280Y1686480D03*
X462280Y1696480D03*
D14*
X282330Y1601470D03*
X299330Y1601470D03*
D15*
X296110Y1611950D02*
X296110Y1618930D01*
X303090Y1618930D01*
X303090Y1611950D01*
X296110Y1611950D01*
X296110Y1616750D02*
X303090Y1616750D01*
X278570Y1618930D02*
X278570Y1611950D01*
X278570Y1618930D02*
X285550Y1618930D01*
X285550Y1611950D01*
X278570Y1611950D01*
X278570Y1616750D02*
X285550Y1616750D01*
D16*
X376580Y1630379D03*
X386080Y1630379D03*
X395580Y1630379D03*
X395580Y1656381D03*
X376580Y1656381D03*
D17*
X357980Y1722780D03*
X357980Y1741780D03*
X336980Y1732280D03*
X414180Y1741780D03*
X414180Y1722780D03*
X435180Y1732280D03*
D18*
X322580Y1723780D03*
X322580Y1740780D03*
X373380Y1740780D03*
X373380Y1723780D03*
X398780Y1723780D03*
X398780Y1740780D03*
X449580Y1723780D03*
X449580Y1740780D03*
X360680Y1629800D03*
X360680Y1646800D03*
X411480Y1646800D03*
X411480Y1629800D03*
D19*
X290830Y1585087D03*
X290830Y1574673D03*
D20*
X347980Y1567180D03*
X373380Y1567180D03*
X398780Y1567180D03*
X424180Y1567180D03*
D21*
X397580Y1681480D03*
X397580Y1689480D03*
X397580Y1673480D03*
X374580Y1673480D03*
X374580Y1681480D03*
X374580Y1689480D03*
D10*
X543560Y1783080D03*
X746760Y1783080D03*
D11*
X763270Y1563370D03*
X525780Y1800860D03*
D12*
X532210Y1709480D03*
X532210Y1653480D03*
D13*
X568960Y1696480D03*
X568960Y1686480D03*
X568960Y1676480D03*
X568960Y1666480D03*
D14*
X636660Y1706880D03*
X653660Y1706880D03*
D12*
X758110Y1653480D03*
X758110Y1709480D03*
D13*
X721360Y1666480D03*
X721360Y1676480D03*
X721360Y1686480D03*
X721360Y1696480D03*
D14*
X541410Y1601470D03*
X558410Y1601470D03*
D15*
X555190Y1611950D02*
X555190Y1618930D01*
X562170Y1618930D01*
X562170Y1611950D01*
X555190Y1611950D01*
X555190Y1616750D02*
X562170Y1616750D01*
X537650Y1618930D02*
X537650Y1611950D01*
X537650Y1618930D02*
X544630Y1618930D01*
X544630Y1611950D01*
X537650Y1611950D01*
X537650Y1616750D02*
X544630Y1616750D01*
D16*
X635660Y1630379D03*
X645160Y1630379D03*
X654660Y1630379D03*
X654660Y1656381D03*
X635660Y1656381D03*
D17*
X617060Y1722780D03*
X617060Y1741780D03*
X596060Y1732280D03*
X673260Y1741780D03*
X673260Y1722780D03*
X694260Y1732280D03*
D18*
X581660Y1723780D03*
X581660Y1740780D03*
X632460Y1740780D03*
X632460Y1723780D03*
X657860Y1723780D03*
X657860Y1740780D03*
X708660Y1723780D03*
X708660Y1740780D03*
X619760Y1629800D03*
X619760Y1646800D03*
X670560Y1646800D03*
X670560Y1629800D03*
D19*
X549910Y1585087D03*
X549910Y1574673D03*
D20*
X607060Y1567180D03*
X632460Y1567180D03*
X657860Y1567180D03*
X683260Y1567180D03*
D21*
X656660Y1681480D03*
X656660Y1689480D03*
X656660Y1673480D03*
X633660Y1673480D03*
X633660Y1681480D03*
X633660Y1689480D03*
D10*
X802640Y1783080D03*
X1005840Y1783080D03*
D11*
X1022350Y1563370D03*
X784860Y1800860D03*
D12*
X791290Y1709480D03*
X791290Y1653480D03*
D13*
X828040Y1696480D03*
X828040Y1686480D03*
X828040Y1676480D03*
X828040Y1666480D03*
D14*
X895740Y1706880D03*
X912740Y1706880D03*
D12*
X1017190Y1653480D03*
X1017190Y1709480D03*
D13*
X980440Y1666480D03*
X980440Y1676480D03*
X980440Y1686480D03*
X980440Y1696480D03*
D14*
X800490Y1601470D03*
X817490Y1601470D03*
D15*
X814270Y1611950D02*
X814270Y1618930D01*
X821250Y1618930D01*
X821250Y1611950D01*
X814270Y1611950D01*
X814270Y1616750D02*
X821250Y1616750D01*
X796730Y1618930D02*
X796730Y1611950D01*
X796730Y1618930D02*
X803710Y1618930D01*
X803710Y1611950D01*
X796730Y1611950D01*
X796730Y1616750D02*
X803710Y1616750D01*
D16*
X894740Y1630379D03*
X904240Y1630379D03*
X913740Y1630379D03*
X913740Y1656381D03*
X894740Y1656381D03*
D17*
X876140Y1722780D03*
X876140Y1741780D03*
X855140Y1732280D03*
X932340Y1741780D03*
X932340Y1722780D03*
X953340Y1732280D03*
D18*
X840740Y1723780D03*
X840740Y1740780D03*
X891540Y1740780D03*
X891540Y1723780D03*
X916940Y1723780D03*
X916940Y1740780D03*
X967740Y1723780D03*
X967740Y1740780D03*
X878840Y1629800D03*
X878840Y1646800D03*
X929640Y1646800D03*
X929640Y1629800D03*
D19*
X808990Y1585087D03*
X808990Y1574673D03*
D20*
X866140Y1567180D03*
X891540Y1567180D03*
X916940Y1567180D03*
X942340Y1567180D03*
D21*
X915740Y1681480D03*
X915740Y1689480D03*
X915740Y1673480D03*
X892740Y1673480D03*
X892740Y1681480D03*
X892740Y1689480D03*
D10*
X1061720Y1783080D03*
X1264920Y1783080D03*
D11*
X1281430Y1563370D03*
X1043940Y1800860D03*
D12*
X1050370Y1709480D03*
X1050370Y1653480D03*
D13*
X1087120Y1696480D03*
X1087120Y1686480D03*
X1087120Y1676480D03*
X1087120Y1666480D03*
D14*
X1154820Y1706880D03*
X1171820Y1706880D03*
D12*
X1276270Y1653480D03*
X1276270Y1709480D03*
D13*
X1239520Y1666480D03*
X1239520Y1676480D03*
X1239520Y1686480D03*
X1239520Y1696480D03*
D14*
X1059570Y1601470D03*
X1076570Y1601470D03*
D15*
X1073350Y1611950D02*
X1073350Y1618930D01*
X1080330Y1618930D01*
X1080330Y1611950D01*
X1073350Y1611950D01*
X1073350Y1616750D02*
X1080330Y1616750D01*
X1055810Y1618930D02*
X1055810Y1611950D01*
X1055810Y1618930D02*
X1062790Y1618930D01*
X1062790Y1611950D01*
X1055810Y1611950D01*
X1055810Y1616750D02*
X1062790Y1616750D01*
D16*
X1153820Y1630379D03*
X1163320Y1630379D03*
X1172820Y1630379D03*
X1172820Y1656381D03*
X1153820Y1656381D03*
D17*
X1135220Y1722780D03*
X1135220Y1741780D03*
X1114220Y1732280D03*
X1191420Y1741780D03*
X1191420Y1722780D03*
X1212420Y1732280D03*
D18*
X1099820Y1723780D03*
X1099820Y1740780D03*
X1150620Y1740780D03*
X1150620Y1723780D03*
X1176020Y1723780D03*
X1176020Y1740780D03*
X1226820Y1723780D03*
X1226820Y1740780D03*
X1137920Y1629800D03*
X1137920Y1646800D03*
X1188720Y1646800D03*
X1188720Y1629800D03*
D19*
X1068070Y1585087D03*
X1068070Y1574673D03*
D20*
X1125220Y1567180D03*
X1150620Y1567180D03*
X1176020Y1567180D03*
X1201420Y1567180D03*
D21*
X1174820Y1681480D03*
X1174820Y1689480D03*
X1174820Y1673480D03*
X1151820Y1673480D03*
X1151820Y1681480D03*
X1151820Y1689480D03*
D22*
X68580Y1829435D03*
X1221105Y1829435D03*
D23*
X59525Y-20955D02*
X59528Y-20733D01*
X59536Y-20511D01*
X59550Y-20289D01*
X59569Y-20067D01*
X59593Y-19847D01*
X59623Y-19626D01*
X59658Y-19407D01*
X59699Y-19188D01*
X59745Y-18971D01*
X59796Y-18755D01*
X59853Y-18540D01*
X59915Y-18326D01*
X59982Y-18115D01*
X60054Y-17904D01*
X60132Y-17696D01*
X60214Y-17490D01*
X60302Y-17286D01*
X60394Y-17083D01*
X60492Y-16884D01*
X60594Y-16687D01*
X60701Y-16492D01*
X60813Y-16300D01*
X60930Y-16111D01*
X61051Y-15924D01*
X61177Y-15741D01*
X61307Y-15561D01*
X61442Y-15384D01*
X61580Y-15211D01*
X61723Y-15041D01*
X61871Y-14874D01*
X62022Y-14711D01*
X62177Y-14552D01*
X62336Y-14397D01*
X62499Y-14246D01*
X62666Y-14098D01*
X62836Y-13955D01*
X63009Y-13817D01*
X63186Y-13682D01*
X63366Y-13552D01*
X63549Y-13426D01*
X63736Y-13305D01*
X63925Y-13188D01*
X64117Y-13076D01*
X64312Y-12969D01*
X64509Y-12867D01*
X64708Y-12769D01*
X64911Y-12677D01*
X65115Y-12589D01*
X65321Y-12507D01*
X65529Y-12429D01*
X65740Y-12357D01*
X65951Y-12290D01*
X66165Y-12228D01*
X66380Y-12171D01*
X66596Y-12120D01*
X66813Y-12074D01*
X67032Y-12033D01*
X67251Y-11998D01*
X67472Y-11968D01*
X67692Y-11944D01*
X67914Y-11925D01*
X68136Y-11911D01*
X68358Y-11903D01*
X68580Y-11900D01*
X68802Y-11903D01*
X69024Y-11911D01*
X69246Y-11925D01*
X69468Y-11944D01*
X69688Y-11968D01*
X69909Y-11998D01*
X70128Y-12033D01*
X70347Y-12074D01*
X70564Y-12120D01*
X70780Y-12171D01*
X70995Y-12228D01*
X71209Y-12290D01*
X71420Y-12357D01*
X71631Y-12429D01*
X71839Y-12507D01*
X72045Y-12589D01*
X72249Y-12677D01*
X72452Y-12769D01*
X72651Y-12867D01*
X72848Y-12969D01*
X73043Y-13076D01*
X73235Y-13188D01*
X73424Y-13305D01*
X73611Y-13426D01*
X73794Y-13552D01*
X73974Y-13682D01*
X74151Y-13817D01*
X74324Y-13955D01*
X74494Y-14098D01*
X74661Y-14246D01*
X74824Y-14397D01*
X74983Y-14552D01*
X75138Y-14711D01*
X75289Y-14874D01*
X75437Y-15041D01*
X75580Y-15211D01*
X75718Y-15384D01*
X75853Y-15561D01*
X75983Y-15741D01*
X76109Y-15924D01*
X76230Y-16111D01*
X76347Y-16300D01*
X76459Y-16492D01*
X76566Y-16687D01*
X76668Y-16884D01*
X76766Y-17083D01*
X76858Y-17286D01*
X76946Y-17490D01*
X77028Y-17696D01*
X77106Y-17904D01*
X77178Y-18115D01*
X77245Y-18326D01*
X77307Y-18540D01*
X77364Y-18755D01*
X77415Y-18971D01*
X77461Y-19188D01*
X77502Y-19407D01*
X77537Y-19626D01*
X77567Y-19847D01*
X77591Y-20067D01*
X77610Y-20289D01*
X77624Y-20511D01*
X77632Y-20733D01*
X77635Y-20955D01*
X77632Y-21177D01*
X77624Y-21399D01*
X77610Y-21621D01*
X77591Y-21843D01*
X77567Y-22063D01*
X77537Y-22284D01*
X77502Y-22503D01*
X77461Y-22722D01*
X77415Y-22939D01*
X77364Y-23155D01*
X77307Y-23370D01*
X77245Y-23584D01*
X77178Y-23795D01*
X77106Y-24006D01*
X77028Y-24214D01*
X76946Y-24420D01*
X76858Y-24624D01*
X76766Y-24827D01*
X76668Y-25026D01*
X76566Y-25223D01*
X76459Y-25418D01*
X76347Y-25610D01*
X76230Y-25799D01*
X76109Y-25986D01*
X75983Y-26169D01*
X75853Y-26349D01*
X75718Y-26526D01*
X75580Y-26699D01*
X75437Y-26869D01*
X75289Y-27036D01*
X75138Y-27199D01*
X74983Y-27358D01*
X74824Y-27513D01*
X74661Y-27664D01*
X74494Y-27812D01*
X74324Y-27955D01*
X74151Y-28093D01*
X73974Y-28228D01*
X73794Y-28358D01*
X73611Y-28484D01*
X73424Y-28605D01*
X73235Y-28722D01*
X73043Y-28834D01*
X72848Y-28941D01*
X72651Y-29043D01*
X72452Y-29141D01*
X72249Y-29233D01*
X72045Y-29321D01*
X71839Y-29403D01*
X71631Y-29481D01*
X71420Y-29553D01*
X71209Y-29620D01*
X70995Y-29682D01*
X70780Y-29739D01*
X70564Y-29790D01*
X70347Y-29836D01*
X70128Y-29877D01*
X69909Y-29912D01*
X69688Y-29942D01*
X69468Y-29966D01*
X69246Y-29985D01*
X69024Y-29999D01*
X68802Y-30007D01*
X68580Y-30010D01*
X68358Y-30007D01*
X68136Y-29999D01*
X67914Y-29985D01*
X67692Y-29966D01*
X67472Y-29942D01*
X67251Y-29912D01*
X67032Y-29877D01*
X66813Y-29836D01*
X66596Y-29790D01*
X66380Y-29739D01*
X66165Y-29682D01*
X65951Y-29620D01*
X65740Y-29553D01*
X65529Y-29481D01*
X65321Y-29403D01*
X65115Y-29321D01*
X64911Y-29233D01*
X64708Y-29141D01*
X64509Y-29043D01*
X64312Y-28941D01*
X64117Y-28834D01*
X63925Y-28722D01*
X63736Y-28605D01*
X63549Y-28484D01*
X63366Y-28358D01*
X63186Y-28228D01*
X63009Y-28093D01*
X62836Y-27955D01*
X62666Y-27812D01*
X62499Y-27664D01*
X62336Y-27513D01*
X62177Y-27358D01*
X62022Y-27199D01*
X61871Y-27036D01*
X61723Y-26869D01*
X61580Y-26699D01*
X61442Y-26526D01*
X61307Y-26349D01*
X61177Y-26169D01*
X61051Y-25986D01*
X60930Y-25799D01*
X60813Y-25610D01*
X60701Y-25418D01*
X60594Y-25223D01*
X60492Y-25026D01*
X60394Y-24827D01*
X60302Y-24624D01*
X60214Y-24420D01*
X60132Y-24214D01*
X60054Y-24006D01*
X59982Y-23795D01*
X59915Y-23584D01*
X59853Y-23370D01*
X59796Y-23155D01*
X59745Y-22939D01*
X59699Y-22722D01*
X59658Y-22503D01*
X59623Y-22284D01*
X59593Y-22063D01*
X59569Y-21843D01*
X59550Y-21621D01*
X59536Y-21399D01*
X59528Y-21177D01*
X59525Y-20955D01*
D24*
X68580Y-20955D03*
M02*
